<?xml version="1.0" encoding="UTF-8" standalone="no"?><svg xmlns="http://www.w3.org/2000/svg" xmlns:xlink="http://www.w3.org/1999/xlink" contentScriptType="application/ecmascript" contentStyleType="text/css" height="571px" preserveAspectRatio="none" style="width:1454px;height:571px;" version="1.1" viewBox="0 0 1454 571" width="1454px" zoomAndPan="magnify"><defs><filter height="300%" id="f7fgyvf40l1yc" width="300%" x="-1" y="-1"><feGaussianBlur result="blurOut" stdDeviation="2.0"/><feColorMatrix in="blurOut" result="blurOut2" type="matrix" values="0 0 0 0 0 0 0 0 0 0 0 0 0 0 0 0 0 0 .4 0"/><feOffset dx="4.0" dy="4.0" in="blurOut2" result="blurOut3"/><feBlend in="SourceGraphic" in2="blurOut3" mode="normal"/></filter></defs><g><!--MD5=[069e9760850462dce85f4fc8f425d607]
cluster task--><polygon fill="#FFFFFF" filter="url(#f7fgyvf40l1yc)" points="474,154,513,154,520,176.2969,590,176.2969,590,391.5,474,391.5,474,154" style="stroke: #000000; stroke-width: 1.5;"/><line style="stroke: #000000; stroke-width: 1.5;" x1="474" x2="520" y1="176.2969" y2="176.2969"/><text fill="#000000" font-family="sans-serif" font-size="14" font-weight="bold" lengthAdjust="spacingAndGlyphs" textLength="33" x="478" y="168.9951">task</text><!--MD5=[87f8a3a00a2fa5ddd5caf781eed993f7]
cluster algos--><polygon fill="#FFFFFF" filter="url(#f7fgyvf40l1yc)" points="726,133.5,774,133.5,781,155.7969,1095,155.7969,1095,399.5,726,399.5,726,133.5" style="stroke: #000000; stroke-width: 1.5;"/><line style="stroke: #000000; stroke-width: 1.5;" x1="726" x2="781" y1="155.7969" y2="155.7969"/><text fill="#000000" font-family="sans-serif" font-size="14" font-weight="bold" lengthAdjust="spacingAndGlyphs" textLength="42" x="730" y="148.4951">algos</text><!--MD5=[dc6ea05477d27a46d26532ab9b7f2125]
cluster trainer--><polygon fill="#FFFFFF" filter="url(#f7fgyvf40l1yc)" points="995,160.5,1054,160.5,1061,182.7969,1087,182.7969,1087,243.5,995,243.5,995,160.5" style="stroke: #000000; stroke-width: 1.5;"/><line style="stroke: #000000; stroke-width: 1.5;" x1="995" x2="1061" y1="182.7969" y2="182.7969"/><text fill="#000000" font-family="sans-serif" font-size="14" font-weight="bold" lengthAdjust="spacingAndGlyphs" textLength="53" x="999" y="175.4951">trainer</text><!--MD5=[11deb2d3d13514570db491c951d8ed2a]
cluster observer--><polygon fill="#FFFFFF" filter="url(#f7fgyvf40l1yc)" points="983,308.5,1061,308.5,1068,330.7969,1087,330.7969,1087,391.5,983,391.5,983,308.5" style="stroke: #000000; stroke-width: 1.5;"/><line style="stroke: #000000; stroke-width: 1.5;" x1="983" x2="1068" y1="330.7969" y2="330.7969"/><text fill="#000000" font-family="sans-serif" font-size="14" font-weight="bold" lengthAdjust="spacingAndGlyphs" textLength="72" x="987" y="323.4951">observer</text><!--MD5=[a5dcfd8e27bfd7961a25ab31384b9578]
cluster model_selection--><polygon fill="#FFFFFF" filter="url(#f7fgyvf40l1yc)" points="844,160.5,977,160.5,984,182.7969,987,182.7969,987,243.5,844,243.5,844,160.5" style="stroke: #000000; stroke-width: 1.5;"/><line style="stroke: #000000; stroke-width: 1.5;" x1="844" x2="984" y1="182.7969" y2="182.7969"/><text fill="#000000" font-family="sans-serif" font-size="14" font-weight="bold" lengthAdjust="spacingAndGlyphs" textLength="127" x="848" y="175.4951">model_selection</text><!--MD5=[d00c18208dae02e212a5592433a1df85]
cluster dataset--><path d="M610,270 C610,260 664,260 664,260 C664,260 718,260 718,270 L718,415 C718,425 664,425 664,425 C664,425 610,425 610,415 L610,270 " fill="#FFFFFF" filter="url(#f7fgyvf40l1yc)" style="stroke: #000000; stroke-width: 1.5;"/><path d="M610,270 C610,280 664,280 664,280 C664,280 718,280 718,270 " fill="none" style="stroke: #000000; stroke-width: 1.5;"/><text fill="#000000" font-family="sans-serif" font-size="14" font-weight="bold" lengthAdjust="spacingAndGlyphs" textLength="59" x="634.5" y="294.9951">dataset</text><!--MD5=[5d4cd377749310b66bf14896f5cd8d9b]
cluster model--><polygon fill="#FFFFFF" filter="url(#f7fgyvf40l1yc)" points="1103,302,1157,302,1164,324.2969,1432,324.2969,1432,559,1103,559,1103,302" style="stroke: #000000; stroke-width: 1.5;"/><line style="stroke: #000000; stroke-width: 1.5;" x1="1103" x2="1164" y1="324.2969" y2="324.2969"/><text fill="#000000" font-family="sans-serif" font-size="14" font-weight="bold" lengthAdjust="spacingAndGlyphs" textLength="48" x="1107" y="316.9951">model</text><!--MD5=[67a6735b2a5707e03290b64fb931c9ce]
cluster components--><polygon fill="#FFFFFF" filter="url(#f7fgyvf40l1yc)" points="14,16.5,118,16.5,125,38.7969,466,38.7969,466,251.5,14,251.5,14,16.5" style="stroke: #000000; stroke-width: 1.5;"/><line style="stroke: #000000; stroke-width: 1.5;" x1="14" x2="125" y1="38.7969" y2="38.7969"/><text fill="#000000" font-family="sans-serif" font-size="14" font-weight="bold" lengthAdjust="spacingAndGlyphs" textLength="98" x="18" y="31.4951">components</text><!--MD5=[229e27752f54fd5e7d127f0fc31beeed]
cluster experiment--><polygon fill="#FFFFFF" filter="url(#f7fgyvf40l1yc)" points="332,43.5,428,43.5,435,65.7969,458,65.7969,458,243.5,332,243.5,332,43.5" style="stroke: #000000; stroke-width: 1.5;"/><line style="stroke: #000000; stroke-width: 1.5;" x1="332" x2="435" y1="65.7969" y2="65.7969"/><text fill="#000000" font-family="sans-serif" font-size="14" font-weight="bold" lengthAdjust="spacingAndGlyphs" textLength="90" x="336" y="58.4951">experiment</text><!--MD5=[b34797a66dc35cbf1d65f7e3ca75530e]
class Task--><rect fill="#FEFECE" filter="url(#f7fgyvf40l1yc)" height="60.8047" id="Task" style="stroke: #A80036; stroke-width: 1.5;" width="60" x="502" y="181"/><ellipse cx="517" cy="197" fill="#A9DCDF" rx="11" ry="11" style="stroke: #A80036; stroke-width: 1.0;"/><path d="M517.1094,192.3438 L515.9531,197.4219 L518.2813,197.4219 L517.1094,192.3438 Z M515.625,190.1094 L518.6094,190.1094 L521.9688,202.5 L519.5156,202.5 L518.75,199.4375 L515.4688,199.4375 L514.7188,202.5 L512.2813,202.5 L515.625,190.1094 Z "/><text fill="#000000" font-family="sans-serif" font-size="12" font-style="italic" lengthAdjust="spacingAndGlyphs" textLength="28" x="531" y="201.1543">Task</text><line style="stroke: #A80036; stroke-width: 1.5;" x1="503" x2="561" y1="213" y2="213"/><ellipse cx="513" cy="224" fill="none" rx="3" ry="3" style="stroke: #038048; stroke-width: 1.0;"/><text fill="#000000" font-family="sans-serif" font-size="11" lengthAdjust="spacingAndGlyphs" textLength="33" x="522" y="227.2104">dim_y</text><line style="stroke: #A80036; stroke-width: 1.5;" x1="503" x2="561" y1="233.8047" y2="233.8047"/><!--MD5=[5b5a07016a0d6740f0fb84d05fbc9352]
class TaskFolder--><rect fill="#FEFECE" filter="url(#f7fgyvf40l1yc)" height="48" id="TaskFolder" style="stroke: #A80036; stroke-width: 1.5;" width="100" x="482" y="335.5"/><ellipse cx="497" cy="351.5" fill="#ADD1B2" rx="11" ry="11" style="stroke: #A80036; stroke-width: 1.0;"/><path d="M499.9688,357.1406 Q499.3906,357.4375 498.75,357.5781 Q498.1094,357.7344 497.4063,357.7344 Q494.9063,357.7344 493.5781,356.0938 Q492.2656,354.4375 492.2656,351.3125 Q492.2656,348.1875 493.5781,346.5313 Q494.9063,344.875 497.4063,344.875 Q498.1094,344.875 498.75,345.0313 Q499.4063,345.1875 499.9688,345.4844 L499.9688,348.2031 Q499.3438,347.625 498.75,347.3594 Q498.1563,347.0781 497.5313,347.0781 Q496.1875,347.0781 495.5,348.1563 Q494.8125,349.2188 494.8125,351.3125 Q494.8125,353.4063 495.5,354.4844 Q496.1875,355.5469 497.5313,355.5469 Q498.1563,355.5469 498.75,355.2813 Q499.3438,355 499.9688,354.4219 L499.9688,357.1406 Z "/><text fill="#000000" font-family="sans-serif" font-size="12" lengthAdjust="spacingAndGlyphs" textLength="68" x="511" y="355.6543">TaskFolder</text><line style="stroke: #A80036; stroke-width: 1.5;" x1="483" x2="581" y1="367.5" y2="367.5"/><line style="stroke: #A80036; stroke-width: 1.5;" x1="483" x2="581" y1="375.5" y2="375.5"/><!--MD5=[a4dc2b9a52fafc9c4c7e964c40966336]
class AlgoBuilder--><rect fill="#FEFECE" filter="url(#f7fgyvf40l1yc)" height="48" id="AlgoBuilder" style="stroke: #A80036; stroke-width: 1.5;" width="102" x="734" y="187.5"/><ellipse cx="749" cy="203.5" fill="#ADD1B2" rx="11" ry="11" style="stroke: #A80036; stroke-width: 1.0;"/><path d="M751.9688,209.1406 Q751.3906,209.4375 750.75,209.5781 Q750.1094,209.7344 749.4063,209.7344 Q746.9063,209.7344 745.5781,208.0938 Q744.2656,206.4375 744.2656,203.3125 Q744.2656,200.1875 745.5781,198.5313 Q746.9063,196.875 749.4063,196.875 Q750.1094,196.875 750.75,197.0313 Q751.4063,197.1875 751.9688,197.4844 L751.9688,200.2031 Q751.3438,199.625 750.75,199.3594 Q750.1563,199.0781 749.5313,199.0781 Q748.1875,199.0781 747.5,200.1563 Q746.8125,201.2188 746.8125,203.3125 Q746.8125,205.4063 747.5,206.4844 Q748.1875,207.5469 749.5313,207.5469 Q750.1563,207.5469 750.75,207.2813 Q751.3438,207 751.9688,206.4219 L751.9688,209.1406 Z "/><text fill="#000000" font-family="sans-serif" font-size="12" lengthAdjust="spacingAndGlyphs" textLength="70" x="763" y="207.6543">AlgoBuilder</text><line style="stroke: #A80036; stroke-width: 1.5;" x1="735" x2="835" y1="219.5" y2="219.5"/><line style="stroke: #A80036; stroke-width: 1.5;" x1="735" x2="835" y1="227.5" y2="227.5"/><!--MD5=[3512c909caa28192c0057f20071d7997]
class Trainer--><rect fill="#FEFECE" filter="url(#f7fgyvf40l1yc)" height="48" id="Trainer" style="stroke: #A80036; stroke-width: 1.5;" width="76" x="1003" y="187.5"/><ellipse cx="1018" cy="203.5" fill="#ADD1B2" rx="11" ry="11" style="stroke: #A80036; stroke-width: 1.0;"/><path d="M1020.9688,209.1406 Q1020.3906,209.4375 1019.75,209.5781 Q1019.1094,209.7344 1018.4063,209.7344 Q1015.9063,209.7344 1014.5781,208.0938 Q1013.2656,206.4375 1013.2656,203.3125 Q1013.2656,200.1875 1014.5781,198.5313 Q1015.9063,196.875 1018.4063,196.875 Q1019.1094,196.875 1019.75,197.0313 Q1020.4063,197.1875 1020.9688,197.4844 L1020.9688,200.2031 Q1020.3438,199.625 1019.75,199.3594 Q1019.1563,199.0781 1018.5313,199.0781 Q1017.1875,199.0781 1016.5,200.1563 Q1015.8125,201.2188 1015.8125,203.3125 Q1015.8125,205.4063 1016.5,206.4844 Q1017.1875,207.5469 1018.5313,207.5469 Q1019.1563,207.5469 1019.75,207.2813 Q1020.3438,207 1020.9688,206.4219 L1020.9688,209.1406 Z "/><text fill="#000000" font-family="sans-serif" font-size="12" lengthAdjust="spacingAndGlyphs" textLength="44" x="1032" y="207.6543">Trainer</text><line style="stroke: #A80036; stroke-width: 1.5;" x1="1004" x2="1078" y1="219.5" y2="219.5"/><line style="stroke: #A80036; stroke-width: 1.5;" x1="1004" x2="1078" y1="227.5" y2="227.5"/><!--MD5=[d40932010816485ec57b44b6eea2392a]
class Observer--><rect fill="#FEFECE" filter="url(#f7fgyvf40l1yc)" height="48" id="Observer" style="stroke: #A80036; stroke-width: 1.5;" width="88" x="991" y="335.5"/><ellipse cx="1006" cy="351.5" fill="#ADD1B2" rx="11" ry="11" style="stroke: #A80036; stroke-width: 1.0;"/><path d="M1008.9688,357.1406 Q1008.3906,357.4375 1007.75,357.5781 Q1007.1094,357.7344 1006.4063,357.7344 Q1003.9063,357.7344 1002.5781,356.0938 Q1001.2656,354.4375 1001.2656,351.3125 Q1001.2656,348.1875 1002.5781,346.5313 Q1003.9063,344.875 1006.4063,344.875 Q1007.1094,344.875 1007.75,345.0313 Q1008.4063,345.1875 1008.9688,345.4844 L1008.9688,348.2031 Q1008.3438,347.625 1007.75,347.3594 Q1007.1563,347.0781 1006.5313,347.0781 Q1005.1875,347.0781 1004.5,348.1563 Q1003.8125,349.2188 1003.8125,351.3125 Q1003.8125,353.4063 1004.5,354.4844 Q1005.1875,355.5469 1006.5313,355.5469 Q1007.1563,355.5469 1007.75,355.2813 Q1008.3438,355 1008.9688,354.4219 L1008.9688,357.1406 Z "/><text fill="#000000" font-family="sans-serif" font-size="12" lengthAdjust="spacingAndGlyphs" textLength="56" x="1020" y="355.6543">Observer</text><line style="stroke: #A80036; stroke-width: 1.5;" x1="992" x2="1078" y1="367.5" y2="367.5"/><line style="stroke: #A80036; stroke-width: 1.5;" x1="992" x2="1078" y1="375.5" y2="375.5"/><!--MD5=[44287fa3e0564af7b41ad1c1d16f6e6a]
class ModelSel--><rect fill="#FEFECE" filter="url(#f7fgyvf40l1yc)" height="48" id="ModelSel" style="stroke: #A80036; stroke-width: 1.5;" width="88" x="875" y="187.5"/><ellipse cx="890" cy="203.5" fill="#ADD1B2" rx="11" ry="11" style="stroke: #A80036; stroke-width: 1.0;"/><path d="M892.9688,209.1406 Q892.3906,209.4375 891.75,209.5781 Q891.1094,209.7344 890.4063,209.7344 Q887.9063,209.7344 886.5781,208.0938 Q885.2656,206.4375 885.2656,203.3125 Q885.2656,200.1875 886.5781,198.5313 Q887.9063,196.875 890.4063,196.875 Q891.1094,196.875 891.75,197.0313 Q892.4063,197.1875 892.9688,197.4844 L892.9688,200.2031 Q892.3438,199.625 891.75,199.3594 Q891.1563,199.0781 890.5313,199.0781 Q889.1875,199.0781 888.5,200.1563 Q887.8125,201.2188 887.8125,203.3125 Q887.8125,205.4063 888.5,206.4844 Q889.1875,207.5469 890.5313,207.5469 Q891.1563,207.5469 891.75,207.2813 Q892.3438,207 892.9688,206.4219 L892.9688,209.1406 Z "/><text fill="#000000" font-family="sans-serif" font-size="12" lengthAdjust="spacingAndGlyphs" textLength="56" x="904" y="207.6543">ModelSel</text><line style="stroke: #A80036; stroke-width: 1.5;" x1="876" x2="962" y1="219.5" y2="219.5"/><line style="stroke: #A80036; stroke-width: 1.5;" x1="876" x2="962" y1="227.5" y2="227.5"/><!--MD5=[8b82677223ea9eb28a50de16faa90dcd]
class Dataset--><rect fill="#FEFECE" filter="url(#f7fgyvf40l1yc)" height="115.2188" id="Dataset" style="stroke: #A80036; stroke-width: 1.5;" width="93" x="617.5" y="302"/><ellipse cx="637.45" cy="318" fill="#ADD1B2" rx="11" ry="11" style="stroke: #A80036; stroke-width: 1.0;"/><path d="M640.4188,323.6406 Q639.8406,323.9375 639.2,324.0781 Q638.5594,324.2344 637.8563,324.2344 Q635.3563,324.2344 634.0281,322.5938 Q632.7156,320.9375 632.7156,317.8125 Q632.7156,314.6875 634.0281,313.0313 Q635.3563,311.375 637.8563,311.375 Q638.5594,311.375 639.2,311.5313 Q639.8563,311.6875 640.4188,311.9844 L640.4188,314.7031 Q639.7938,314.125 639.2,313.8594 Q638.6063,313.5781 637.9813,313.5781 Q636.6375,313.5781 635.95,314.6563 Q635.2625,315.7188 635.2625,317.8125 Q635.2625,319.9063 635.95,320.9844 Q636.6375,322.0469 637.9813,322.0469 Q638.6063,322.0469 639.2,321.7813 Q639.7938,321.5 640.4188,320.9219 L640.4188,323.6406 Z "/><text fill="#000000" font-family="sans-serif" font-size="12" lengthAdjust="spacingAndGlyphs" textLength="50" x="652.55" y="322.1543">Dataset</text><line style="stroke: #A80036; stroke-width: 1.5;" x1="618.5" x2="709.5" y1="334" y2="334"/><text fill="#000000" font-family="sans-serif" font-size="11" lengthAdjust="spacingAndGlyphs" textLength="79" x="623.5" y="348.2104">minit-m(9000)</text><line style="stroke: #A80036; stroke-width: 1.0;" x1="618.5" x2="709.5" y1="354.8047" y2="354.8047"/><text fill="#000000" font-family="sans-serif" font-size="11" lengthAdjust="spacingAndGlyphs" textLength="70" x="623.5" y="369.0151">svhn(73240)</text><line style="stroke: #A80036; stroke-width: 1.0;" x1="618.5" x2="709.5" y1="375.6094" y2="375.6094"/><text fill="#000000" font-family="sans-serif" font-size="11" lengthAdjust="spacingAndGlyphs" textLength="64" x="623.5" y="389.8198">usps(7280)</text><line style="stroke: #A80036; stroke-width: 1.0;" x1="618.5" x2="709.5" y1="396.4141" y2="396.4141"/><text fill="#000000" font-family="sans-serif" font-size="11" lengthAdjust="spacingAndGlyphs" textLength="81" x="623.5" y="410.6245">synth(479400)</text><!--MD5=[7e20e022571e30ec1001cf6eabd7f3e2]
class Model--><rect fill="#FEFECE" filter="url(#f7fgyvf40l1yc)" height="60.8047" id="Model" style="stroke: #A80036; stroke-width: 1.5;" width="77" x="1148.5" y="329"/><ellipse cx="1167.1" cy="345" fill="#A9DCDF" rx="11" ry="11" style="stroke: #A80036; stroke-width: 1.0;"/><path d="M1167.2094,340.3438 L1166.0531,345.4219 L1168.3813,345.4219 L1167.2094,340.3438 Z M1165.725,338.1094 L1168.7094,338.1094 L1172.0688,350.5 L1169.6156,350.5 L1168.85,347.4375 L1165.5688,347.4375 L1164.8188,350.5 L1162.3813,350.5 L1165.725,338.1094 Z "/><text fill="#000000" font-family="sans-serif" font-size="12" font-style="italic" lengthAdjust="spacingAndGlyphs" textLength="37" x="1181.9" y="349.1543">Model</text><line style="stroke: #A80036; stroke-width: 1.5;" x1="1149.5" x2="1224.5" y1="361" y2="361"/><ellipse cx="1159.5" cy="372" fill="none" rx="3" ry="3" style="stroke: #038048; stroke-width: 1.0;"/><text fill="#000000" font-family="sans-serif" font-size="11" lengthAdjust="spacingAndGlyphs" textLength="51" x="1168.5" y="375.2104">int y_dim</text><line style="stroke: #A80036; stroke-width: 1.5;" x1="1149.5" x2="1224.5" y1="381.8047" y2="381.8047"/><!--MD5=[de853b39a30e94ea5f90241bcbd78441]
class ModelBuilder--><rect fill="#FEFECE" filter="url(#f7fgyvf40l1yc)" height="73.6094" id="ModelBuilder" style="stroke: #A80036; stroke-width: 1.5;" width="152" x="1111" y="477"/><ellipse cx="1144" cy="493" fill="#A9DCDF" rx="11" ry="11" style="stroke: #A80036; stroke-width: 1.0;"/><path d="M1144.1094,488.3438 L1142.9531,493.4219 L1145.2813,493.4219 L1144.1094,488.3438 Z M1142.625,486.1094 L1145.6094,486.1094 L1148.9688,498.5 L1146.5156,498.5 L1145.75,495.4375 L1142.4688,495.4375 L1141.7188,498.5 L1139.2813,498.5 L1142.625,486.1094 Z "/><text fill="#000000" font-family="sans-serif" font-size="12" font-style="italic" lengthAdjust="spacingAndGlyphs" textLength="80" x="1162" y="497.1543">ModelBuilder</text><line style="stroke: #A80036; stroke-width: 1.5;" x1="1112" x2="1262" y1="509" y2="509"/><line style="stroke: #A80036; stroke-width: 1.5;" x1="1112" x2="1262" y1="517" y2="517"/><ellipse cx="1122" cy="528" fill="#84BE84" rx="3" ry="3" style="stroke: #038048; stroke-width: 1.0;"/><text fill="#000000" font-family="sans-serif" font-size="11" lengthAdjust="spacingAndGlyphs" textLength="126" x="1131" y="531.2104">build_part_a(scenario)</text><ellipse cx="1122" cy="540.8047" fill="#84BE84" rx="3" ry="3" style="stroke: #038048; stroke-width: 1.0;"/><text fill="#000000" font-family="sans-serif" font-size="11" lengthAdjust="spacingAndGlyphs" textLength="126" x="1131" y="544.0151">build_part_b(scenario)</text><!--MD5=[269ed4e23a75e217dd0324641cbe2b7d]
class ConcreteModel--><rect fill="#FEFECE" filter="url(#f7fgyvf40l1yc)" height="48" id="ConcreteModel" style="stroke: #A80036; stroke-width: 1.5;" width="126" x="1298" y="490"/><ellipse cx="1313" cy="506" fill="#ADD1B2" rx="11" ry="11" style="stroke: #A80036; stroke-width: 1.0;"/><path d="M1315.9688,511.6406 Q1315.3906,511.9375 1314.75,512.0781 Q1314.1094,512.2344 1313.4063,512.2344 Q1310.9063,512.2344 1309.5781,510.5938 Q1308.2656,508.9375 1308.2656,505.8125 Q1308.2656,502.6875 1309.5781,501.0313 Q1310.9063,499.375 1313.4063,499.375 Q1314.1094,499.375 1314.75,499.5313 Q1315.4063,499.6875 1315.9688,499.9844 L1315.9688,502.7031 Q1315.3438,502.125 1314.75,501.8594 Q1314.1563,501.5781 1313.5313,501.5781 Q1312.1875,501.5781 1311.5,502.6563 Q1310.8125,503.7188 1310.8125,505.8125 Q1310.8125,507.9063 1311.5,508.9844 Q1312.1875,510.0469 1313.5313,510.0469 Q1314.1563,510.0469 1314.75,509.7813 Q1315.3438,509.5 1315.9688,508.9219 L1315.9688,511.6406 Z "/><text fill="#000000" font-family="sans-serif" font-size="12" lengthAdjust="spacingAndGlyphs" textLength="94" x="1327" y="510.1543">ConcreteModel</text><line style="stroke: #A80036; stroke-width: 1.5;" x1="1299" x2="1423" y1="522" y2="522"/><line style="stroke: #A80036; stroke-width: 1.5;" x1="1299" x2="1423" y1="530" y2="530"/><polygon fill="#FFFFFF" filter="url(#f7fgyvf40l1yc)" points="144.5,68,299.5,68,306.5,90.2969,313.5,90.2969,313.5,120.5938,144.5,120.5938,144.5,68" style="stroke: #000000; stroke-width: 1.5;"/><line style="stroke: #000000; stroke-width: 1.5;" x1="144.5" x2="306.5" y1="90.2969" y2="90.2969"/><text fill="#000000" font-family="sans-serif" font-size="14" font-weight="bold" lengthAdjust="spacingAndGlyphs" textLength="149" x="148.5" y="82.9951">common_networks</text><polygon fill="#FFFFFF" filter="url(#f7fgyvf40l1yc)" points="22.5,68,95.5,68,102.5,90.2969,109.5,90.2969,109.5,120.5938,22.5,120.5938,22.5,68" style="stroke: #000000; stroke-width: 1.5;"/><line style="stroke: #000000; stroke-width: 1.5;" x1="22.5" x2="102.5" y1="90.2969" y2="90.2969"/><text fill="#000000" font-family="sans-serif" font-size="14" font-weight="bold" lengthAdjust="spacingAndGlyphs" textLength="67" x="26.5" y="82.9951">patterns</text><!--MD5=[2a9217e8f2d7f96589335d2c6f09894a]
class Experiment--><rect fill="#FEFECE" filter="url(#f7fgyvf40l1yc)" height="48" id="Experiment" style="stroke: #A80036; stroke-width: 1.5;" width="102" x="348" y="70.5"/><ellipse cx="363" cy="86.5" fill="#ADD1B2" rx="11" ry="11" style="stroke: #A80036; stroke-width: 1.0;"/><path d="M365.9688,92.1406 Q365.3906,92.4375 364.75,92.5781 Q364.1094,92.7344 363.4063,92.7344 Q360.9063,92.7344 359.5781,91.0938 Q358.2656,89.4375 358.2656,86.3125 Q358.2656,83.1875 359.5781,81.5313 Q360.9063,79.875 363.4063,79.875 Q364.1094,79.875 364.75,80.0313 Q365.4063,80.1875 365.9688,80.4844 L365.9688,83.2031 Q365.3438,82.625 364.75,82.3594 Q364.1563,82.0781 363.5313,82.0781 Q362.1875,82.0781 361.5,83.1563 Q360.8125,84.2188 360.8125,86.3125 Q360.8125,88.4063 361.5,89.4844 Q362.1875,90.5469 363.5313,90.5469 Q364.1563,90.5469 364.75,90.2813 Q365.3438,90 365.9688,89.4219 L365.9688,92.1406 Z "/><text fill="#000000" font-family="sans-serif" font-size="12" lengthAdjust="spacingAndGlyphs" textLength="70" x="377" y="90.6543">Experiment</text><line style="stroke: #A80036; stroke-width: 1.5;" x1="349" x2="449" y1="102.5" y2="102.5"/><line style="stroke: #A80036; stroke-width: 1.5;" x1="349" x2="449" y1="110.5" y2="110.5"/><!--MD5=[808738ddb1e6a682f4e66ebc5dd1d7a2]
class TaskHandler--><rect fill="#FEFECE" filter="url(#f7fgyvf40l1yc)" height="48" id="TaskHandler" style="stroke: #A80036; stroke-width: 1.5;" width="110" x="340" y="187.5"/><ellipse cx="355" cy="203.5" fill="#ADD1B2" rx="11" ry="11" style="stroke: #A80036; stroke-width: 1.0;"/><path d="M357.9688,209.1406 Q357.3906,209.4375 356.75,209.5781 Q356.1094,209.7344 355.4063,209.7344 Q352.9063,209.7344 351.5781,208.0938 Q350.2656,206.4375 350.2656,203.3125 Q350.2656,200.1875 351.5781,198.5313 Q352.9063,196.875 355.4063,196.875 Q356.1094,196.875 356.75,197.0313 Q357.4063,197.1875 357.9688,197.4844 L357.9688,200.2031 Q357.3438,199.625 356.75,199.3594 Q356.1563,199.0781 355.5313,199.0781 Q354.1875,199.0781 353.5,200.1563 Q352.8125,201.2188 352.8125,203.3125 Q352.8125,205.4063 353.5,206.4844 Q354.1875,207.5469 355.5313,207.5469 Q356.1563,207.5469 356.75,207.2813 Q357.3438,207 357.9688,206.4219 L357.9688,209.1406 Z "/><text fill="#000000" font-family="sans-serif" font-size="12" lengthAdjust="spacingAndGlyphs" textLength="78" x="369" y="207.6543">TaskHandler</text><line style="stroke: #A80036; stroke-width: 1.5;" x1="341" x2="449" y1="219.5" y2="219.5"/><line style="stroke: #A80036; stroke-width: 1.5;" x1="341" x2="449" y1="227.5" y2="227.5"/><!--MD5=[90839f01c52367f18f6ad948d876fba3]
reverse link Task to TaskFolder--><path d="M532,262.5247 C532,287.1534 532,315.5514 532,335.224 " fill="none" id="Task&lt;-TaskFolder" style="stroke: #A80036; stroke-width: 1.0;"/><polygon fill="none" points="525.0001,262.1657,532,242.1657,539.0001,262.1657,525.0001,262.1657" style="stroke: #A80036; stroke-width: 1.0;"/><!--MD5=[e19a3b523cd245a715f84bb26cc214f6]
reverse link Experiment to Task--><path d="M456.2111,125.945 C459.6105,128.3782 462.903,130.9028 466,133.5 C482.4465,147.2921 498.0905,165.4719 510.0165,180.8104 " fill="none" id="Experiment&lt;-Task" style="stroke: #A80036; stroke-width: 1.0;"/><polygon fill="#A80036" points="445.0983,118.5076,447.8598,125.169,455.0709,125.1819,452.3094,118.5206,445.0983,118.5076" style="stroke: #A80036; stroke-width: 1.0;"/><!--MD5=[bcfdda38ca473c60cc15cf2c9e8c5ae1]
reverse link Experiment to Trainer--><path d="M463.5307,95.3449 C608.4624,97.7223 950.6199,106.1896 995,133.5 C1014.5481,145.5294 1026.7609,169.2078 1033.6472,187.3354 " fill="none" id="Experiment&lt;-Trainer" style="stroke: #A80036; stroke-width: 1.0;"/><polygon fill="#A80036" points="450.1373,95.1334,456.0733,99.2277,462.1358,95.323,456.1998,91.2287,450.1373,95.1334" style="stroke: #A80036; stroke-width: 1.0;"/><!--MD5=[f0913c8fd8a79788a60107ea5d88bae6]
reverse link Trainer to Observer--><path d="M1039.4842,248.8903 C1038.3837,276.0366 1036.9269,311.9695 1035.9769,335.4022 " fill="none" id="Trainer&lt;-Observer" style="stroke: #A80036; stroke-width: 1.0;"/><polygon fill="#A80036" points="1040.0226,235.6081,1035.7828,241.4411,1039.5364,247.5982,1043.7762,241.7652,1040.0226,235.6081" style="stroke: #A80036; stroke-width: 1.0;"/><!--MD5=[49a02f9886b36fbdfd3110a314f47693]
reverse link Trainer to Model--><path d="M1078.7433,244.5847 C1084.2731,249.6655 1089.8396,254.9137 1095,260 C1117.6204,282.2956 1141.9678,308.7464 1159.9302,328.7698 " fill="none" id="Trainer&lt;-Model" style="stroke: #A80036; stroke-width: 1.0;"/><polygon fill="#A80036" points="1068.9247,235.6911,1070.6863,242.6837,1077.8186,243.7471,1076.057,236.7545,1068.9247,235.6911" style="stroke: #A80036; stroke-width: 1.0;"/><!--MD5=[96eb1aab8876d34fe0ed7af04f18fa83]
reverse link Task to Dataset--><path d="M572.6752,237.9081 C581.5165,244.5713 590.4676,252.0967 598,260 C609.9416,272.5297 621.1148,287.4713 630.7504,301.9185 " fill="none" id="Task&lt;-Dataset" style="stroke: #A80036; stroke-width: 1.0;"/><polygon fill="#FFFFFF" points="562.048,230.2407,564.5733,236.9952,571.7795,237.262,569.2542,230.5075,562.048,230.2407" style="stroke: #A80036; stroke-width: 1.0;"/><!--MD5=[7b4cf0218d6ff7dad1ec6ca4cccd4bdd]
reverse link Model to ConcreteModel--><path d="M1236.5842,403.5273 C1268.1695,431.5729 1307.8828,466.8356 1333.8289,489.874 " fill="none" id="Model&lt;-ConcreteModel" style="stroke: #A80036; stroke-width: 1.0;"/><polygon fill="none" points="1231.6844,408.5379,1221.3768,390.0242,1240.9799,398.0692,1231.6844,408.5379" style="stroke: #A80036; stroke-width: 1.0;"/><!--MD5=[2e25be9426d34a008482ea6d2f7411a8]
reverse link Model to ModelBuilder--><path d="M1187,403.0746 C1187,426.3819 1187,454.7745 1187,476.9995 " fill="none" id="Model&lt;-ModelBuilder" style="stroke: #A80036; stroke-width: 1.0;"/><polygon fill="#A80036" points="1187,390.0242,1183,396.0242,1187,402.0242,1191,396.0242,1187,390.0242" style="stroke: #A80036; stroke-width: 1.0;"/><!--MD5=[65b686b7dd704db1af2544f699b83bd3]
reverse link Experiment to AlgoBuilder--><path d="M463.2792,103.7189 C502.655,110.1952 553.806,120.1024 598,133.5 C645.802,147.9914 698.1095,170.4053 735.2166,187.494 " fill="none" id="Experiment&lt;-AlgoBuilder" style="stroke: #A80036; stroke-width: 1.0;"/><polygon fill="#A80036" points="450.4041,101.6541,455.695,106.5537,462.2527,103.5543,456.9618,98.6547,450.4041,101.6541" style="stroke: #A80036; stroke-width: 1.0;"/><!--MD5=[eef46b21a00ff506ab4f4ceebc1dc497]
reverse link Experiment to TaskHandler--><path d="M397.7224,131.8685 C397.1021,150.0144 396.3746,171.2941 395.8277,187.2886 " fill="none" id="Experiment&lt;-TaskHandler" style="stroke: #A80036; stroke-width: 1.0;"/><polygon fill="#A80036" points="398.1712,118.7425,393.9685,124.6023,397.7611,130.7355,401.9638,124.8757,398.1712,118.7425" style="stroke: #A80036; stroke-width: 1.0;"/><!--MD5=[3c32accbc02b49e755c0296ecb447d8e]
@startuml
' comment
' *- -  composition
' <|- - extension
' o- - aggregation
' - -  association (1 to n or 1 to 1 or n to 1)
' ..>
'Dependency is a weaker form of bond which indicates that one class depends on 
'another because it uses it at some point in time. One class depends on 
'another if the independent class is a parameter variable or local variable of 
'a method of the dependent class. This is different from an association, where 
'an attribute of the dependent class is an instance of the independent class. 
'Sometimes the relationship between two classes is very weak. They are not 
'implemented with member variables at all. Rather they might be implemented as 
'member function arguments.
/'agsa'/
package task {
  abstract class Task {
    + dim_y
  }
  Task <|- - TaskFolder
}

package algos {
  class AlgoBuilder {}
  package trainer {
    class Trainer {}
  }
  package observer {
    class Observer {}
  }
  package model_selection {
    class ModelSel {}
  }
} 

package dataset <<DataBase>>{
  class Dataset {
    minit-m(9000)
    - -
    svhn(73240)
    - -
    usps(7280)
    - -
    synth(479400)
  }
}

package model{
  abstract class Model {
  + int y_dim
  }
  abstract class ModelBuilder {
  +build_part_a(scenario)
  +build_part_b(scenario)
  }
  class ConcreteModel {}
}


package components {
  package common_networks {
  }
  package patterns{}
  package experiment {
    class Experiment {}
    class TaskHandler{}
  }
}


Experiment *- - Task
Experiment *- - Trainer
Trainer *- - Observer
Trainer *- - Model
Task o- - Dataset
Model <|- - ConcreteModel
Model *- - ModelBuilder
Experiment *- - AlgoBuilder
Experiment *- - TaskHandler
@enduml

@startuml
package task {
  abstract class Task {
    + dim_y
  }
  Task <|- - TaskFolder
}

package algos {
  class AlgoBuilder {}
  package trainer {
    class Trainer {}
  }
  package observer {
    class Observer {}
  }
  package model_selection {
    class ModelSel {}
  }
} 

package dataset <<DataBase>>{
  class Dataset {
    minit-m(9000)
    - -
    svhn(73240)
    - -
    usps(7280)
    - -
    synth(479400)
  }
}

package model{
  abstract class Model {
  + int y_dim
  }
  abstract class ModelBuilder {
  +build_part_a(scenario)
  +build_part_b(scenario)
  }
  class ConcreteModel {}
}


package components {
  package common_networks {
  }
  package patterns{}
  package experiment {
    class Experiment {}
    class TaskHandler{}
  }
}


Experiment *- - Task
Experiment *- - Trainer
Trainer *- - Observer
Trainer *- - Model
Task o- - Dataset
Model <|- - ConcreteModel
Model *- - ModelBuilder
Experiment *- - AlgoBuilder
Experiment *- - TaskHandler
@enduml

PlantUML version 1.2020.10(Sun May 17 11:35:57 CEST 2020)
(GPL source distribution)
Java Runtime: OpenJDK Runtime Environment
JVM: OpenJDK 64-Bit Server VM
Java Version: 11.0.11+9-Ubuntu-0ubuntu2.18.04
Operating System: Linux
Default Encoding: UTF-8
Language: en
Country: US
--></g></svg>