<?xml version="1.0" encoding="UTF-8" standalone="no"?><svg xmlns="http://www.w3.org/2000/svg" xmlns:xlink="http://www.w3.org/1999/xlink" contentScriptType="application/ecmascript" contentStyleType="text/css" height="675px" preserveAspectRatio="none" style="width:1117px;height:675px;" version="1.1" viewBox="0 0 1117 675" width="1117px" zoomAndPan="magnify"><defs><filter height="300%" id="fifbjevks8oqk" width="300%" x="-1" y="-1"><feGaussianBlur result="blurOut" stdDeviation="2.0"/><feColorMatrix in="blurOut" result="blurOut2" type="matrix" values="0 0 0 0 0 0 0 0 0 0 0 0 0 0 0 0 0 0 .4 0"/><feOffset dx="4.0" dy="4.0" in="blurOut2" result="blurOut3"/><feBlend in="SourceGraphic" in2="blurOut3" mode="normal"/></filter></defs><g><!--MD5=[069e9760850462dce85f4fc8f425d607]
cluster task--><polygon fill="#FFFFFF" filter="url(#fifbjevks8oqk)" points="474,392,513,392,520,414.2969,590,414.2969,590,629.5,474,629.5,474,392" style="stroke: #000000; stroke-width: 1.5;"/><line style="stroke: #000000; stroke-width: 1.5;" x1="474" x2="520" y1="414.2969" y2="414.2969"/><text fill="#000000" font-family="sans-serif" font-size="14" font-weight="bold" lengthAdjust="spacingAndGlyphs" textLength="33" x="478" y="406.9951">task</text><!--MD5=[87f8a3a00a2fa5ddd5caf781eed993f7]
cluster algos--><polygon fill="#FFFFFF" filter="url(#fifbjevks8oqk)" points="726,371.5,774,371.5,781,393.7969,1095,393.7969,1095,637.5,726,637.5,726,371.5" style="stroke: #000000; stroke-width: 1.5;"/><line style="stroke: #000000; stroke-width: 1.5;" x1="726" x2="781" y1="393.7969" y2="393.7969"/><text fill="#000000" font-family="sans-serif" font-size="14" font-weight="bold" lengthAdjust="spacingAndGlyphs" textLength="42" x="730" y="386.4951">algos</text><!--MD5=[dc6ea05477d27a46d26532ab9b7f2125]
cluster trainer--><polygon fill="#FFFFFF" filter="url(#fifbjevks8oqk)" points="995,398.5,1054,398.5,1061,420.7969,1087,420.7969,1087,481.5,995,481.5,995,398.5" style="stroke: #000000; stroke-width: 1.5;"/><line style="stroke: #000000; stroke-width: 1.5;" x1="995" x2="1061" y1="420.7969" y2="420.7969"/><text fill="#000000" font-family="sans-serif" font-size="14" font-weight="bold" lengthAdjust="spacingAndGlyphs" textLength="53" x="999" y="413.4951">trainer</text><!--MD5=[11deb2d3d13514570db491c951d8ed2a]
cluster observer--><polygon fill="#FFFFFF" filter="url(#fifbjevks8oqk)" points="983,546.5,1061,546.5,1068,568.7969,1087,568.7969,1087,629.5,983,629.5,983,546.5" style="stroke: #000000; stroke-width: 1.5;"/><line style="stroke: #000000; stroke-width: 1.5;" x1="983" x2="1068" y1="568.7969" y2="568.7969"/><text fill="#000000" font-family="sans-serif" font-size="14" font-weight="bold" lengthAdjust="spacingAndGlyphs" textLength="72" x="987" y="561.4951">observer</text><!--MD5=[a5dcfd8e27bfd7961a25ab31384b9578]
cluster model_selection--><polygon fill="#FFFFFF" filter="url(#fifbjevks8oqk)" points="844,398.5,977,398.5,984,420.7969,987,420.7969,987,481.5,844,481.5,844,398.5" style="stroke: #000000; stroke-width: 1.5;"/><line style="stroke: #000000; stroke-width: 1.5;" x1="844" x2="984" y1="420.7969" y2="420.7969"/><text fill="#000000" font-family="sans-serif" font-size="14" font-weight="bold" lengthAdjust="spacingAndGlyphs" textLength="127" x="848" y="413.4951">model_selection</text><!--MD5=[d00c18208dae02e212a5592433a1df85]
cluster dataset--><path d="M610,508 C610,498 664,498 664,498 C664,498 718,498 718,508 L718,653 C718,663 664,663 664,663 C664,663 610,663 610,653 L610,508 " fill="#FFFFFF" filter="url(#fifbjevks8oqk)" style="stroke: #000000; stroke-width: 1.5;"/><path d="M610,508 C610,518 664,518 664,518 C664,518 718,518 718,508 " fill="none" style="stroke: #000000; stroke-width: 1.5;"/><text fill="#000000" font-family="sans-serif" font-size="14" font-weight="bold" lengthAdjust="spacingAndGlyphs" textLength="59" x="634.5" y="532.9951">dataset</text><!--MD5=[5d4cd377749310b66bf14896f5cd8d9b]
cluster model--><polygon fill="#FFFFFF" filter="url(#fifbjevks8oqk)" points="275,16.5,329,16.5,336,38.7969,604,38.7969,604,246.5,275,246.5,275,16.5" style="stroke: #000000; stroke-width: 1.5;"/><line style="stroke: #000000; stroke-width: 1.5;" x1="275" x2="336" y1="38.7969" y2="38.7969"/><text fill="#000000" font-family="sans-serif" font-size="14" font-weight="bold" lengthAdjust="spacingAndGlyphs" textLength="48" x="279" y="31.4951">model</text><!--MD5=[67a6735b2a5707e03290b64fb931c9ce]
cluster components--><polygon fill="#FFFFFF" filter="url(#fifbjevks8oqk)" points="14,254.5,118,254.5,125,276.7969,466,276.7969,466,489.5,14,489.5,14,254.5" style="stroke: #000000; stroke-width: 1.5;"/><line style="stroke: #000000; stroke-width: 1.5;" x1="14" x2="125" y1="276.7969" y2="276.7969"/><text fill="#000000" font-family="sans-serif" font-size="14" font-weight="bold" lengthAdjust="spacingAndGlyphs" textLength="98" x="18" y="269.4951">components</text><!--MD5=[229e27752f54fd5e7d127f0fc31beeed]
cluster experiment--><polygon fill="#FFFFFF" filter="url(#fifbjevks8oqk)" points="332,281.5,428,281.5,435,303.7969,458,303.7969,458,481.5,332,481.5,332,281.5" style="stroke: #000000; stroke-width: 1.5;"/><line style="stroke: #000000; stroke-width: 1.5;" x1="332" x2="435" y1="303.7969" y2="303.7969"/><text fill="#000000" font-family="sans-serif" font-size="14" font-weight="bold" lengthAdjust="spacingAndGlyphs" textLength="90" x="336" y="296.4951">experiment</text><!--MD5=[b34797a66dc35cbf1d65f7e3ca75530e]
class Task--><rect fill="#FEFECE" filter="url(#fifbjevks8oqk)" height="60.8047" id="Task" style="stroke: #A80036; stroke-width: 1.5;" width="60" x="502" y="419"/><ellipse cx="517" cy="435" fill="#A9DCDF" rx="11" ry="11" style="stroke: #A80036; stroke-width: 1.0;"/><path d="M517.1094,430.3438 L515.9531,435.4219 L518.2813,435.4219 L517.1094,430.3438 Z M515.625,428.1094 L518.6094,428.1094 L521.9688,440.5 L519.5156,440.5 L518.75,437.4375 L515.4688,437.4375 L514.7188,440.5 L512.2813,440.5 L515.625,428.1094 Z "/><text fill="#000000" font-family="sans-serif" font-size="12" font-style="italic" lengthAdjust="spacingAndGlyphs" textLength="28" x="531" y="439.1543">Task</text><line style="stroke: #A80036; stroke-width: 1.5;" x1="503" x2="561" y1="451" y2="451"/><ellipse cx="513" cy="462" fill="none" rx="3" ry="3" style="stroke: #038048; stroke-width: 1.0;"/><text fill="#000000" font-family="sans-serif" font-size="11" lengthAdjust="spacingAndGlyphs" textLength="33" x="522" y="465.2104">dim_y</text><line style="stroke: #A80036; stroke-width: 1.5;" x1="503" x2="561" y1="471.8047" y2="471.8047"/><!--MD5=[5b5a07016a0d6740f0fb84d05fbc9352]
class TaskFolder--><rect fill="#FEFECE" filter="url(#fifbjevks8oqk)" height="48" id="TaskFolder" style="stroke: #A80036; stroke-width: 1.5;" width="100" x="482" y="573.5"/><ellipse cx="497" cy="589.5" fill="#ADD1B2" rx="11" ry="11" style="stroke: #A80036; stroke-width: 1.0;"/><path d="M499.9688,595.1406 Q499.3906,595.4375 498.75,595.5781 Q498.1094,595.7344 497.4063,595.7344 Q494.9063,595.7344 493.5781,594.0938 Q492.2656,592.4375 492.2656,589.3125 Q492.2656,586.1875 493.5781,584.5313 Q494.9063,582.875 497.4063,582.875 Q498.1094,582.875 498.75,583.0313 Q499.4063,583.1875 499.9688,583.4844 L499.9688,586.2031 Q499.3438,585.625 498.75,585.3594 Q498.1563,585.0781 497.5313,585.0781 Q496.1875,585.0781 495.5,586.1563 Q494.8125,587.2188 494.8125,589.3125 Q494.8125,591.4063 495.5,592.4844 Q496.1875,593.5469 497.5313,593.5469 Q498.1563,593.5469 498.75,593.2813 Q499.3438,593 499.9688,592.4219 L499.9688,595.1406 Z "/><text fill="#000000" font-family="sans-serif" font-size="12" lengthAdjust="spacingAndGlyphs" textLength="68" x="511" y="593.6543">TaskFolder</text><line style="stroke: #A80036; stroke-width: 1.5;" x1="483" x2="581" y1="605.5" y2="605.5"/><line style="stroke: #A80036; stroke-width: 1.5;" x1="483" x2="581" y1="613.5" y2="613.5"/><!--MD5=[a4dc2b9a52fafc9c4c7e964c40966336]
class AlgoBuilder--><rect fill="#FEFECE" filter="url(#fifbjevks8oqk)" height="48" id="AlgoBuilder" style="stroke: #A80036; stroke-width: 1.5;" width="102" x="734" y="425.5"/><ellipse cx="749" cy="441.5" fill="#ADD1B2" rx="11" ry="11" style="stroke: #A80036; stroke-width: 1.0;"/><path d="M751.9688,447.1406 Q751.3906,447.4375 750.75,447.5781 Q750.1094,447.7344 749.4063,447.7344 Q746.9063,447.7344 745.5781,446.0938 Q744.2656,444.4375 744.2656,441.3125 Q744.2656,438.1875 745.5781,436.5313 Q746.9063,434.875 749.4063,434.875 Q750.1094,434.875 750.75,435.0313 Q751.4063,435.1875 751.9688,435.4844 L751.9688,438.2031 Q751.3438,437.625 750.75,437.3594 Q750.1563,437.0781 749.5313,437.0781 Q748.1875,437.0781 747.5,438.1563 Q746.8125,439.2188 746.8125,441.3125 Q746.8125,443.4063 747.5,444.4844 Q748.1875,445.5469 749.5313,445.5469 Q750.1563,445.5469 750.75,445.2813 Q751.3438,445 751.9688,444.4219 L751.9688,447.1406 Z "/><text fill="#000000" font-family="sans-serif" font-size="12" lengthAdjust="spacingAndGlyphs" textLength="70" x="763" y="445.6543">AlgoBuilder</text><line style="stroke: #A80036; stroke-width: 1.5;" x1="735" x2="835" y1="457.5" y2="457.5"/><line style="stroke: #A80036; stroke-width: 1.5;" x1="735" x2="835" y1="465.5" y2="465.5"/><!--MD5=[3512c909caa28192c0057f20071d7997]
class Trainer--><rect fill="#FEFECE" filter="url(#fifbjevks8oqk)" height="48" id="Trainer" style="stroke: #A80036; stroke-width: 1.5;" width="76" x="1003" y="425.5"/><ellipse cx="1018" cy="441.5" fill="#ADD1B2" rx="11" ry="11" style="stroke: #A80036; stroke-width: 1.0;"/><path d="M1020.9688,447.1406 Q1020.3906,447.4375 1019.75,447.5781 Q1019.1094,447.7344 1018.4063,447.7344 Q1015.9063,447.7344 1014.5781,446.0938 Q1013.2656,444.4375 1013.2656,441.3125 Q1013.2656,438.1875 1014.5781,436.5313 Q1015.9063,434.875 1018.4063,434.875 Q1019.1094,434.875 1019.75,435.0313 Q1020.4063,435.1875 1020.9688,435.4844 L1020.9688,438.2031 Q1020.3438,437.625 1019.75,437.3594 Q1019.1563,437.0781 1018.5313,437.0781 Q1017.1875,437.0781 1016.5,438.1563 Q1015.8125,439.2188 1015.8125,441.3125 Q1015.8125,443.4063 1016.5,444.4844 Q1017.1875,445.5469 1018.5313,445.5469 Q1019.1563,445.5469 1019.75,445.2813 Q1020.3438,445 1020.9688,444.4219 L1020.9688,447.1406 Z "/><text fill="#000000" font-family="sans-serif" font-size="12" lengthAdjust="spacingAndGlyphs" textLength="44" x="1032" y="445.6543">Trainer</text><line style="stroke: #A80036; stroke-width: 1.5;" x1="1004" x2="1078" y1="457.5" y2="457.5"/><line style="stroke: #A80036; stroke-width: 1.5;" x1="1004" x2="1078" y1="465.5" y2="465.5"/><!--MD5=[d40932010816485ec57b44b6eea2392a]
class Observer--><rect fill="#FEFECE" filter="url(#fifbjevks8oqk)" height="48" id="Observer" style="stroke: #A80036; stroke-width: 1.5;" width="88" x="991" y="573.5"/><ellipse cx="1006" cy="589.5" fill="#ADD1B2" rx="11" ry="11" style="stroke: #A80036; stroke-width: 1.0;"/><path d="M1008.9688,595.1406 Q1008.3906,595.4375 1007.75,595.5781 Q1007.1094,595.7344 1006.4063,595.7344 Q1003.9063,595.7344 1002.5781,594.0938 Q1001.2656,592.4375 1001.2656,589.3125 Q1001.2656,586.1875 1002.5781,584.5313 Q1003.9063,582.875 1006.4063,582.875 Q1007.1094,582.875 1007.75,583.0313 Q1008.4063,583.1875 1008.9688,583.4844 L1008.9688,586.2031 Q1008.3438,585.625 1007.75,585.3594 Q1007.1563,585.0781 1006.5313,585.0781 Q1005.1875,585.0781 1004.5,586.1563 Q1003.8125,587.2188 1003.8125,589.3125 Q1003.8125,591.4063 1004.5,592.4844 Q1005.1875,593.5469 1006.5313,593.5469 Q1007.1563,593.5469 1007.75,593.2813 Q1008.3438,593 1008.9688,592.4219 L1008.9688,595.1406 Z "/><text fill="#000000" font-family="sans-serif" font-size="12" lengthAdjust="spacingAndGlyphs" textLength="56" x="1020" y="593.6543">Observer</text><line style="stroke: #A80036; stroke-width: 1.5;" x1="992" x2="1078" y1="605.5" y2="605.5"/><line style="stroke: #A80036; stroke-width: 1.5;" x1="992" x2="1078" y1="613.5" y2="613.5"/><!--MD5=[44287fa3e0564af7b41ad1c1d16f6e6a]
class ModelSel--><rect fill="#FEFECE" filter="url(#fifbjevks8oqk)" height="48" id="ModelSel" style="stroke: #A80036; stroke-width: 1.5;" width="88" x="875" y="425.5"/><ellipse cx="890" cy="441.5" fill="#ADD1B2" rx="11" ry="11" style="stroke: #A80036; stroke-width: 1.0;"/><path d="M892.9688,447.1406 Q892.3906,447.4375 891.75,447.5781 Q891.1094,447.7344 890.4063,447.7344 Q887.9063,447.7344 886.5781,446.0938 Q885.2656,444.4375 885.2656,441.3125 Q885.2656,438.1875 886.5781,436.5313 Q887.9063,434.875 890.4063,434.875 Q891.1094,434.875 891.75,435.0313 Q892.4063,435.1875 892.9688,435.4844 L892.9688,438.2031 Q892.3438,437.625 891.75,437.3594 Q891.1563,437.0781 890.5313,437.0781 Q889.1875,437.0781 888.5,438.1563 Q887.8125,439.2188 887.8125,441.3125 Q887.8125,443.4063 888.5,444.4844 Q889.1875,445.5469 890.5313,445.5469 Q891.1563,445.5469 891.75,445.2813 Q892.3438,445 892.9688,444.4219 L892.9688,447.1406 Z "/><text fill="#000000" font-family="sans-serif" font-size="12" lengthAdjust="spacingAndGlyphs" textLength="56" x="904" y="445.6543">ModelSel</text><line style="stroke: #A80036; stroke-width: 1.5;" x1="876" x2="962" y1="457.5" y2="457.5"/><line style="stroke: #A80036; stroke-width: 1.5;" x1="876" x2="962" y1="465.5" y2="465.5"/><!--MD5=[8b82677223ea9eb28a50de16faa90dcd]
class Dataset--><rect fill="#FEFECE" filter="url(#fifbjevks8oqk)" height="115.2188" id="Dataset" style="stroke: #A80036; stroke-width: 1.5;" width="93" x="617.5" y="540"/><ellipse cx="637.45" cy="556" fill="#ADD1B2" rx="11" ry="11" style="stroke: #A80036; stroke-width: 1.0;"/><path d="M640.4188,561.6406 Q639.8406,561.9375 639.2,562.0781 Q638.5594,562.2344 637.8563,562.2344 Q635.3563,562.2344 634.0281,560.5938 Q632.7156,558.9375 632.7156,555.8125 Q632.7156,552.6875 634.0281,551.0313 Q635.3563,549.375 637.8563,549.375 Q638.5594,549.375 639.2,549.5313 Q639.8563,549.6875 640.4188,549.9844 L640.4188,552.7031 Q639.7938,552.125 639.2,551.8594 Q638.6063,551.5781 637.9813,551.5781 Q636.6375,551.5781 635.95,552.6563 Q635.2625,553.7188 635.2625,555.8125 Q635.2625,557.9063 635.95,558.9844 Q636.6375,560.0469 637.9813,560.0469 Q638.6063,560.0469 639.2,559.7813 Q639.7938,559.5 640.4188,558.9219 L640.4188,561.6406 Z "/><text fill="#000000" font-family="sans-serif" font-size="12" lengthAdjust="spacingAndGlyphs" textLength="50" x="652.55" y="560.1543">Dataset</text><line style="stroke: #A80036; stroke-width: 1.5;" x1="618.5" x2="709.5" y1="572" y2="572"/><text fill="#000000" font-family="sans-serif" font-size="11" lengthAdjust="spacingAndGlyphs" textLength="79" x="623.5" y="586.2104">minit-m(9000)</text><line style="stroke: #A80036; stroke-width: 1.0;" x1="618.5" x2="709.5" y1="592.8047" y2="592.8047"/><text fill="#000000" font-family="sans-serif" font-size="11" lengthAdjust="spacingAndGlyphs" textLength="70" x="623.5" y="607.0151">svhn(73240)</text><line style="stroke: #A80036; stroke-width: 1.0;" x1="618.5" x2="709.5" y1="613.6094" y2="613.6094"/><text fill="#000000" font-family="sans-serif" font-size="11" lengthAdjust="spacingAndGlyphs" textLength="64" x="623.5" y="627.8198">usps(7280)</text><line style="stroke: #A80036; stroke-width: 1.0;" x1="618.5" x2="709.5" y1="634.4141" y2="634.4141"/><text fill="#000000" font-family="sans-serif" font-size="11" lengthAdjust="spacingAndGlyphs" textLength="81" x="623.5" y="648.6245">synth(479400)</text><!--MD5=[7e20e022571e30ec1001cf6eabd7f3e2]
class Model--><rect fill="#FEFECE" filter="url(#fifbjevks8oqk)" height="60.8047" id="Model" style="stroke: #A80036; stroke-width: 1.5;" width="77" x="494.5" y="43.5"/><ellipse cx="513.1" cy="59.5" fill="#A9DCDF" rx="11" ry="11" style="stroke: #A80036; stroke-width: 1.0;"/><path d="M513.2094,54.8438 L512.0531,59.9219 L514.3813,59.9219 L513.2094,54.8438 Z M511.725,52.6094 L514.7094,52.6094 L518.0688,65 L515.6156,65 L514.85,61.9375 L511.5688,61.9375 L510.8188,65 L508.3813,65 L511.725,52.6094 Z "/><text fill="#000000" font-family="sans-serif" font-size="12" font-style="italic" lengthAdjust="spacingAndGlyphs" textLength="37" x="527.9" y="63.6543">Model</text><line style="stroke: #A80036; stroke-width: 1.5;" x1="495.5" x2="570.5" y1="75.5" y2="75.5"/><ellipse cx="505.5" cy="86.5" fill="none" rx="3" ry="3" style="stroke: #038048; stroke-width: 1.0;"/><text fill="#000000" font-family="sans-serif" font-size="11" lengthAdjust="spacingAndGlyphs" textLength="51" x="514.5" y="89.7104">int y_dim</text><line style="stroke: #A80036; stroke-width: 1.5;" x1="495.5" x2="570.5" y1="96.3047" y2="96.3047"/><!--MD5=[de853b39a30e94ea5f90241bcbd78441]
class ModelBuilder--><rect fill="#FEFECE" filter="url(#fifbjevks8oqk)" height="73.6094" id="ModelBuilder" style="stroke: #A80036; stroke-width: 1.5;" width="152" x="283" y="164.5"/><ellipse cx="316" cy="180.5" fill="#A9DCDF" rx="11" ry="11" style="stroke: #A80036; stroke-width: 1.0;"/><path d="M316.1094,175.8438 L314.9531,180.9219 L317.2813,180.9219 L316.1094,175.8438 Z M314.625,173.6094 L317.6094,173.6094 L320.9688,186 L318.5156,186 L317.75,182.9375 L314.4688,182.9375 L313.7188,186 L311.2813,186 L314.625,173.6094 Z "/><text fill="#000000" font-family="sans-serif" font-size="12" font-style="italic" lengthAdjust="spacingAndGlyphs" textLength="80" x="334" y="184.6543">ModelBuilder</text><line style="stroke: #A80036; stroke-width: 1.5;" x1="284" x2="434" y1="196.5" y2="196.5"/><line style="stroke: #A80036; stroke-width: 1.5;" x1="284" x2="434" y1="204.5" y2="204.5"/><ellipse cx="294" cy="215.5" fill="#84BE84" rx="3" ry="3" style="stroke: #038048; stroke-width: 1.0;"/><text fill="#000000" font-family="sans-serif" font-size="11" lengthAdjust="spacingAndGlyphs" textLength="126" x="303" y="218.7104">build_part_a(scenario)</text><ellipse cx="294" cy="228.3047" fill="#84BE84" rx="3" ry="3" style="stroke: #038048; stroke-width: 1.0;"/><text fill="#000000" font-family="sans-serif" font-size="11" lengthAdjust="spacingAndGlyphs" textLength="126" x="303" y="231.5151">build_part_b(scenario)</text><!--MD5=[269ed4e23a75e217dd0324641cbe2b7d]
class ConcreteModel--><rect fill="#FEFECE" filter="url(#fifbjevks8oqk)" height="48" id="ConcreteModel" style="stroke: #A80036; stroke-width: 1.5;" width="126" x="470" y="177.5"/><ellipse cx="485" cy="193.5" fill="#ADD1B2" rx="11" ry="11" style="stroke: #A80036; stroke-width: 1.0;"/><path d="M487.9688,199.1406 Q487.3906,199.4375 486.75,199.5781 Q486.1094,199.7344 485.4063,199.7344 Q482.9063,199.7344 481.5781,198.0938 Q480.2656,196.4375 480.2656,193.3125 Q480.2656,190.1875 481.5781,188.5313 Q482.9063,186.875 485.4063,186.875 Q486.1094,186.875 486.75,187.0313 Q487.4063,187.1875 487.9688,187.4844 L487.9688,190.2031 Q487.3438,189.625 486.75,189.3594 Q486.1563,189.0781 485.5313,189.0781 Q484.1875,189.0781 483.5,190.1563 Q482.8125,191.2188 482.8125,193.3125 Q482.8125,195.4063 483.5,196.4844 Q484.1875,197.5469 485.5313,197.5469 Q486.1563,197.5469 486.75,197.2813 Q487.3438,197 487.9688,196.4219 L487.9688,199.1406 Z "/><text fill="#000000" font-family="sans-serif" font-size="12" lengthAdjust="spacingAndGlyphs" textLength="94" x="499" y="197.6543">ConcreteModel</text><line style="stroke: #A80036; stroke-width: 1.5;" x1="471" x2="595" y1="209.5" y2="209.5"/><line style="stroke: #A80036; stroke-width: 1.5;" x1="471" x2="595" y1="217.5" y2="217.5"/><polygon fill="#FFFFFF" filter="url(#fifbjevks8oqk)" points="144.5,306,299.5,306,306.5,328.2969,313.5,328.2969,313.5,358.5938,144.5,358.5938,144.5,306" style="stroke: #000000; stroke-width: 1.5;"/><line style="stroke: #000000; stroke-width: 1.5;" x1="144.5" x2="306.5" y1="328.2969" y2="328.2969"/><text fill="#000000" font-family="sans-serif" font-size="14" font-weight="bold" lengthAdjust="spacingAndGlyphs" textLength="149" x="148.5" y="320.9951">common_networks</text><polygon fill="#FFFFFF" filter="url(#fifbjevks8oqk)" points="22.5,306,95.5,306,102.5,328.2969,109.5,328.2969,109.5,358.5938,22.5,358.5938,22.5,306" style="stroke: #000000; stroke-width: 1.5;"/><line style="stroke: #000000; stroke-width: 1.5;" x1="22.5" x2="102.5" y1="328.2969" y2="328.2969"/><text fill="#000000" font-family="sans-serif" font-size="14" font-weight="bold" lengthAdjust="spacingAndGlyphs" textLength="67" x="26.5" y="320.9951">patterns</text><!--MD5=[2a9217e8f2d7f96589335d2c6f09894a]
class Experiment--><rect fill="#FEFECE" filter="url(#fifbjevks8oqk)" height="48" id="Experiment" style="stroke: #A80036; stroke-width: 1.5;" width="102" x="348" y="308.5"/><ellipse cx="363" cy="324.5" fill="#ADD1B2" rx="11" ry="11" style="stroke: #A80036; stroke-width: 1.0;"/><path d="M365.9688,330.1406 Q365.3906,330.4375 364.75,330.5781 Q364.1094,330.7344 363.4063,330.7344 Q360.9063,330.7344 359.5781,329.0938 Q358.2656,327.4375 358.2656,324.3125 Q358.2656,321.1875 359.5781,319.5313 Q360.9063,317.875 363.4063,317.875 Q364.1094,317.875 364.75,318.0313 Q365.4063,318.1875 365.9688,318.4844 L365.9688,321.2031 Q365.3438,320.625 364.75,320.3594 Q364.1563,320.0781 363.5313,320.0781 Q362.1875,320.0781 361.5,321.1563 Q360.8125,322.2188 360.8125,324.3125 Q360.8125,326.4063 361.5,327.4844 Q362.1875,328.5469 363.5313,328.5469 Q364.1563,328.5469 364.75,328.2813 Q365.3438,328 365.9688,327.4219 L365.9688,330.1406 Z "/><text fill="#000000" font-family="sans-serif" font-size="12" lengthAdjust="spacingAndGlyphs" textLength="70" x="377" y="328.6543">Experiment</text><line style="stroke: #A80036; stroke-width: 1.5;" x1="349" x2="449" y1="340.5" y2="340.5"/><line style="stroke: #A80036; stroke-width: 1.5;" x1="349" x2="449" y1="348.5" y2="348.5"/><!--MD5=[808738ddb1e6a682f4e66ebc5dd1d7a2]
class TaskHandler--><rect fill="#FEFECE" filter="url(#fifbjevks8oqk)" height="48" id="TaskHandler" style="stroke: #A80036; stroke-width: 1.5;" width="110" x="340" y="425.5"/><ellipse cx="355" cy="441.5" fill="#ADD1B2" rx="11" ry="11" style="stroke: #A80036; stroke-width: 1.0;"/><path d="M357.9688,447.1406 Q357.3906,447.4375 356.75,447.5781 Q356.1094,447.7344 355.4063,447.7344 Q352.9063,447.7344 351.5781,446.0938 Q350.2656,444.4375 350.2656,441.3125 Q350.2656,438.1875 351.5781,436.5313 Q352.9063,434.875 355.4063,434.875 Q356.1094,434.875 356.75,435.0313 Q357.4063,435.1875 357.9688,435.4844 L357.9688,438.2031 Q357.3438,437.625 356.75,437.3594 Q356.1563,437.0781 355.5313,437.0781 Q354.1875,437.0781 353.5,438.1563 Q352.8125,439.2188 352.8125,441.3125 Q352.8125,443.4063 353.5,444.4844 Q354.1875,445.5469 355.5313,445.5469 Q356.1563,445.5469 356.75,445.2813 Q357.3438,445 357.9688,444.4219 L357.9688,447.1406 Z "/><text fill="#000000" font-family="sans-serif" font-size="12" lengthAdjust="spacingAndGlyphs" textLength="78" x="369" y="445.6543">TaskHandler</text><line style="stroke: #A80036; stroke-width: 1.5;" x1="341" x2="449" y1="457.5" y2="457.5"/><line style="stroke: #A80036; stroke-width: 1.5;" x1="341" x2="449" y1="465.5" y2="465.5"/><!--MD5=[90839f01c52367f18f6ad948d876fba3]
reverse link Task to TaskFolder--><path d="M532,500.5247 C532,525.1534 532,553.5514 532,573.224 " fill="none" id="Task&lt;-TaskFolder" style="stroke: #A80036; stroke-width: 1.0;"/><polygon fill="none" points="525.0001,500.1657,532,480.1657,539.0001,500.1657,525.0001,500.1657" style="stroke: #A80036; stroke-width: 1.0;"/><!--MD5=[e19a3b523cd245a715f84bb26cc214f6]
reverse link Experiment to Task--><path d="M456.2111,363.945 C459.6105,366.3782 462.903,368.9028 466,371.5 C482.4465,385.2921 498.0905,403.4719 510.0165,418.8104 " fill="none" id="Experiment&lt;-Task" style="stroke: #A80036; stroke-width: 1.0;"/><polygon fill="#A80036" points="445.0983,356.5076,447.8598,363.169,455.0709,363.1819,452.3094,356.5206,445.0983,356.5076" style="stroke: #A80036; stroke-width: 1.0;"/><!--MD5=[bcfdda38ca473c60cc15cf2c9e8c5ae1]
reverse link Experiment to Trainer--><path d="M463.3504,335.9216 C615.1621,344.0977 983.7888,364.6009 995,371.5 C1014.5481,383.5294 1026.7609,407.2078 1033.6472,425.3354 " fill="none" id="Experiment&lt;-Trainer" style="stroke: #A80036; stroke-width: 1.0;"/><polygon fill="#A80036" points="450.2132,335.2157,455.9899,339.5319,462.1959,335.8596,456.4192,331.5434,450.2132,335.2157" style="stroke: #A80036; stroke-width: 1.0;"/><!--MD5=[f0913c8fd8a79788a60107ea5d88bae6]
reverse link Trainer to Observer--><path d="M1039.4842,486.8903 C1038.3837,514.0366 1036.9269,549.9695 1035.9769,573.4022 " fill="none" id="Trainer&lt;-Observer" style="stroke: #A80036; stroke-width: 1.0;"/><polygon fill="#A80036" points="1040.0226,473.6081,1035.7828,479.4411,1039.5364,485.5982,1043.7762,479.7652,1040.0226,473.6081" style="stroke: #A80036; stroke-width: 1.0;"/><!--MD5=[49a02f9886b36fbdfd3110a314f47693]
reverse link Trainer to Model--><path d="M1024.3479,413.512 C1016.7022,399.39 1006.7143,383.6834 995,371.5 C863.255,234.4786 656.7181,130.53 571.6222,91.1769 " fill="none" id="Trainer&lt;-Model" style="stroke: #A80036; stroke-width: 1.0;"/><polygon fill="#A80036" points="1030.4483,425.3859,1031.2643,418.2211,1024.9644,414.7122,1024.1485,421.877,1030.4483,425.3859" style="stroke: #A80036; stroke-width: 1.0;"/><!--MD5=[96eb1aab8876d34fe0ed7af04f18fa83]
reverse link Task to Dataset--><path d="M572.6752,475.9081 C581.5165,482.5713 590.4676,490.0967 598,498 C609.9416,510.5297 621.1148,525.4713 630.7504,539.9185 " fill="none" id="Task&lt;-Dataset" style="stroke: #A80036; stroke-width: 1.0;"/><polygon fill="#FFFFFF" points="562.048,468.2407,564.5733,474.9952,571.7795,475.262,569.2542,468.5075,562.048,468.2407" style="stroke: #A80036; stroke-width: 1.0;"/><!--MD5=[7b4cf0218d6ff7dad1ec6ca4cccd4bdd]
reverse link Model to ConcreteModel--><path d="M533,124.7199 C533,142.7961 533,162.3323 533,177.1746 " fill="none" id="Model&lt;-ConcreteModel" style="stroke: #A80036; stroke-width: 1.0;"/><polygon fill="none" points="526.0001,124.5395,533,104.5394,540.0001,124.5394,526.0001,124.5395" style="stroke: #A80036; stroke-width: 1.0;"/><!--MD5=[2e25be9426d34a008482ea6d2f7411a8]
reverse link Model to ModelBuilder--><path d="M483.7571,110.0832 C460.618,127.0385 433.0578,147.2335 409.7336,164.3245 " fill="none" id="Model&lt;-ModelBuilder" style="stroke: #A80036; stroke-width: 1.0;"/><polygon fill="#A80036" points="494.3838,102.2964,487.1798,102.6163,484.7043,109.3892,491.9083,109.0693,494.3838,102.2964" style="stroke: #A80036; stroke-width: 1.0;"/><!--MD5=[65b686b7dd704db1af2544f699b83bd3]
reverse link Experiment to AlgoBuilder--><path d="M463.2792,341.7189 C502.655,348.1952 553.806,358.1024 598,371.5 C645.802,385.9914 698.1095,408.4053 735.2166,425.494 " fill="none" id="Experiment&lt;-AlgoBuilder" style="stroke: #A80036; stroke-width: 1.0;"/><polygon fill="#A80036" points="450.4041,339.6541,455.695,344.5537,462.2527,341.5543,456.9618,336.6547,450.4041,339.6541" style="stroke: #A80036; stroke-width: 1.0;"/><!--MD5=[eef46b21a00ff506ab4f4ceebc1dc497]
reverse link Experiment to TaskHandler--><path d="M397.7224,369.8685 C397.1021,388.0144 396.3746,409.2941 395.8277,425.2886 " fill="none" id="Experiment&lt;-TaskHandler" style="stroke: #A80036; stroke-width: 1.0;"/><polygon fill="#A80036" points="398.1712,356.7425,393.9685,362.6023,397.7611,368.7355,401.9638,362.8757,398.1712,356.7425" style="stroke: #A80036; stroke-width: 1.0;"/><!--MD5=[c98c11a69ad5a095a639ca307cce1240]
link ModelBuilder to common_networks--><path d="M322.0949,238.6889 C300.9264,260.0203 274.835,286.3124 255.6654,305.6295 " fill="none" id="ModelBuilder-common_networks" style="stroke: #A80036; stroke-width: 1.0;"/><!--MD5=[10ddf40d0f83252023204f6a02d191d7]
@startuml
' comment
' *- -  composition
' <|- - extension
' o- - aggregation
' - -  association (1 to n or 1 to 1 or n to 1)
' ..>
'Dependency is a weaker form of bond which indicates that one class depends on 
'another because it uses it at some point in time. One class depends on 
'another if the independent class is a parameter variable or local variable of 
'a method of the dependent class. This is different from an association, where 
'an attribute of the dependent class is an instance of the independent class. 
'Sometimes the relationship between two classes is very weak. They are not 
'implemented with member variables at all. Rather they might be implemented as 
'member function arguments.
/'agsa'/
package task {
  abstract class Task {
    + dim_y
  }
  Task <|- - TaskFolder
}

package algos {
  class AlgoBuilder {}
  package trainer {
    class Trainer {}
  }
  package observer {
    class Observer {}
  }
  package model_selection {
    class ModelSel {}
  }
} 

package dataset <<DataBase>>{
  class Dataset {
    minit-m(9000)
    - -
    svhn(73240)
    - -
    usps(7280)
    - -
    synth(479400)
  }
}

package model{
  abstract class Model {
  + int y_dim
  }
  abstract class ModelBuilder {
  +build_part_a(scenario)
  +build_part_b(scenario)
  }
  class ConcreteModel {}
}


package components {
  package common_networks {
  }
  package patterns{}
  package experiment {
    class Experiment {}
    class TaskHandler{}
  }
}


Experiment *- - Task
Experiment *- - Trainer
Trainer *- - Observer
Trainer *- - Model
Task o- - Dataset
Model <|- - ConcreteModel
Model *- - ModelBuilder
Experiment *- - AlgoBuilder
Experiment *- - TaskHandler
ModelBuilder - - common_networks
@enduml

@startuml
package task {
  abstract class Task {
    + dim_y
  }
  Task <|- - TaskFolder
}

package algos {
  class AlgoBuilder {}
  package trainer {
    class Trainer {}
  }
  package observer {
    class Observer {}
  }
  package model_selection {
    class ModelSel {}
  }
} 

package dataset <<DataBase>>{
  class Dataset {
    minit-m(9000)
    - -
    svhn(73240)
    - -
    usps(7280)
    - -
    synth(479400)
  }
}

package model{
  abstract class Model {
  + int y_dim
  }
  abstract class ModelBuilder {
  +build_part_a(scenario)
  +build_part_b(scenario)
  }
  class ConcreteModel {}
}


package components {
  package common_networks {
  }
  package patterns{}
  package experiment {
    class Experiment {}
    class TaskHandler{}
  }
}


Experiment *- - Task
Experiment *- - Trainer
Trainer *- - Observer
Trainer *- - Model
Task o- - Dataset
Model <|- - ConcreteModel
Model *- - ModelBuilder
Experiment *- - AlgoBuilder
Experiment *- - TaskHandler
ModelBuilder - - common_networks
@enduml

PlantUML version 1.2020.10(Sun May 17 11:35:57 CEST 2020)
(GPL source distribution)
Java Runtime: OpenJDK Runtime Environment
JVM: OpenJDK 64-Bit Server VM
Java Version: 11.0.11+9-Ubuntu-0ubuntu2.18.04
Operating System: Linux
Default Encoding: UTF-8
Language: en
Country: US
--></g></svg>