<?xml version="1.0" encoding="UTF-8" standalone="no"?>
<svg
   xmlns:dc="http://purl.org/dc/elements/1.1/"
   xmlns:cc="http://creativecommons.org/ns#"
   xmlns:rdf="http://www.w3.org/1999/02/22-rdf-syntax-ns#"
   xmlns:svg="http://www.w3.org/2000/svg"
   xmlns="http://www.w3.org/2000/svg"
   viewBox="0 0 477.62799 206.75067"
   height="206.75067"
   width="477.62799"
   xml:space="preserve"
   id="svg2"
   version="1.1"><metadata
     id="metadata8"><rdf:RDF><cc:Work
         rdf:about=""><dc:format>image/svg+xml</dc:format><dc:type
           rdf:resource="http://purl.org/dc/dcmitype/StillImage" /></cc:Work></rdf:RDF></metadata><defs
     id="defs6" /><g
     transform="matrix(1.3333333,0,0,-1.3333333,0,206.75067)"
     id="g10"><g
       transform="translate(6.526,114.781)"
       id="g12"><g
         id="g14"><g
           id="g16"><g
             id="g18"><path
               id="path20"
               style="fill:#dfdfdf;fill-opacity:1;fill-rule:nonzero;stroke:none"
               d="m 129.21555,-84.8026 c 5.53511,-5.53512 14.50909,-5.53512 20.0442,0 5.53511,5.53511 5.53511,14.50908 0,20.04421" /></g></g><g
           id="g22"><g
             id="g24"><g
               id="g26"><path
                 id="path28"
                 style="fill:#808080;fill-opacity:1;fill-rule:nonzero;stroke:#333333;stroke-width:0.79701;stroke-linecap:butt;stroke-linejoin:miter;stroke-miterlimit:10;stroke-dasharray:none;stroke-opacity:1"
                 d="M 4.6963,0 C 4.6963,2.59372 2.59372,4.6963 0,4.6963 -2.59372,4.6963 -4.6963,2.59372 -4.6963,0 c 0,-2.59372 2.10258,-4.6963 4.6963,-4.6963 2.59372,0 4.6963,2.10258 4.6963,4.6963 z" /></g><g
               id="g30"><g
                 id="g32" /></g></g><g
             id="g34"><g
               transform="translate(-3.205,-12.904)"
               id="g36"><g
                 id="g38"><g
                   transform="translate(-3.321,-101.877)"
                   id="g40"><text
                     id="text44"
                     style="font-variant:normal;font-weight:normal;font-size:9.96259975px;font-family:CMMI10;-inkscape-font-specification:CMMI10;writing-mode:lr-tb;fill:#000000;fill-opacity:1;fill-rule:nonzero;stroke:none"
                     transform="matrix(1,0,0,-1,3.321,101.877)"><tspan
                       id="tspan42"
                       y="0"
                       x="0">α</tspan></text>
<g
                     transform="translate(3.321,101.877)"
                     id="g46" /></g></g><g
                 transform="translate(3.205,12.904)"
                 id="g48" /></g></g><g
             id="g50"><g
               id="g52"><path
                 id="path54"
                 style="fill:none;stroke:#333333;stroke-width:0.79701;stroke-linecap:butt;stroke-linejoin:miter;stroke-miterlimit:10;stroke-dasharray:none;stroke-opacity:1"
                 d="m 79.19502,0 c 0,7.82784 -6.34555,14.17339 -14.1734,14.17339 -7.82785,0 -14.1734,-6.34555 -14.1734,-14.17339 0,-7.82784 6.34555,-14.17339 14.1734,-14.17339 7.82785,0 14.1734,6.34555 14.1734,14.17339 z" /></g><g
               transform="translate(65.02)"
               id="g56"><g
                 id="g58" /><g
                 transform="translate(-65.02)"
                 id="g60" /></g></g><g
             id="g62"><g
               transform="translate(62.685,-22.381)"
               id="g64"><g
                 id="g66"><g
                   transform="translate(-69.211,-92.4)"
                   id="g68"><text
                     id="text72"
                     style="font-variant:normal;font-weight:normal;font-size:9.96259975px;font-family:CMMI10;-inkscape-font-specification:CMMI10;writing-mode:lr-tb;fill:#000000;fill-opacity:1;fill-rule:nonzero;stroke:none"
                     transform="matrix(1,0,0,-1,69.211,92.4)"><tspan
                       id="tspan70"
                       y="0"
                       x="0">s</tspan></text>
<g
                     transform="translate(69.211,92.4)"
                     id="g74" /></g></g><g
                 transform="translate(-62.685,22.381)"
                 id="g76" /></g></g><g
             id="g78"><g
               id="g80"><path
                 id="path82"
                 style="fill:none;stroke:#333333;stroke-width:0.79701;stroke-linecap:butt;stroke-linejoin:miter;stroke-miterlimit:10;stroke-dasharray:none;stroke-opacity:1"
                 d="m 153.69373,0 c 0,7.82784 -6.34555,14.17339 -14.17341,14.17339 -7.82785,0 -14.17338,-6.34555 -14.17338,-14.17339 0,-7.82784 6.34553,-14.17339 14.17338,-14.17339 7.82786,0 14.17341,6.34555 14.17341,14.17339 z" /></g><g
               transform="translate(139.518)"
               id="g84"><g
                 id="g86" /><g
                 transform="translate(-139.518)"
                 id="g88" /></g></g><g
             id="g90"><g
               transform="translate(134.879,-22.381)"
               id="g92"><g
                 id="g94"><g
                   transform="translate(-141.405,-92.4)"
                   id="g96"><text
                     id="text100"
                     style="font-variant:normal;font-weight:normal;font-size:9.96259975px;font-family:CMMI10;-inkscape-font-specification:CMMI10;writing-mode:lr-tb;fill:#000000;fill-opacity:1;fill-rule:nonzero;stroke:none"
                     transform="matrix(1,0,0,-1,141.405,92.4)"><tspan
                       id="tspan98"
                       y="0"
                       x="0">z</tspan></text>
<text
                     id="text104"
                     style="font-variant:normal;font-weight:normal;font-size:6.97380018px;font-family:CMMI7;-inkscape-font-specification:CMMI7;writing-mode:lr-tb;fill:#000000;fill-opacity:1;fill-rule:nonzero;stroke:none"
                     transform="matrix(1,0,0,-1,146.038,90.905)"><tspan
                       id="tspan102"
                       y="0"
                       x="0">d</tspan></text>
<g
                     transform="translate(141.405,92.4)"
                     id="g106" /></g></g><g
                 transform="translate(-134.879,22.381)"
                 id="g108" /></g></g><g
             id="g110"><g
               id="g112"><path
                 id="path114"
                 style="fill:none;stroke:#333333;stroke-width:0.79701;stroke-linecap:butt;stroke-linejoin:miter;stroke-miterlimit:10;stroke-dasharray:none;stroke-opacity:1"
                 d="m 153.69373,-74.4987 c 0,7.82785 -6.34555,14.1734 -14.17341,14.1734 -7.82785,0 -14.17338,-6.34555 -14.17338,-14.1734 0,-7.82785 6.34553,-14.1734 14.17338,-14.1734 7.82786,0 14.17341,6.34555 14.17341,14.1734 z" /></g><g
               transform="translate(139.518,-74.498)"
               id="g116"><g
                 id="g118" /><g
                 transform="translate(-139.518,74.498)"
                 id="g120" /></g></g><g
             id="g122"><g
               transform="translate(136.897,-96.879)"
               id="g124"><g
                 id="g126"><g
                   transform="translate(-143.423,-17.902)"
                   id="g128"><text
                     id="text132"
                     style="font-variant:normal;font-weight:normal;font-size:9.96259975px;font-family:CMMI10;-inkscape-font-specification:CMMI10;writing-mode:lr-tb;fill:#000000;fill-opacity:1;fill-rule:nonzero;stroke:none"
                     transform="matrix(1,0,0,-1,143.423,17.902)"><tspan
                       id="tspan130"
                       y="0"
                       x="0">y</tspan></text>
<g
                     transform="translate(143.423,17.902)"
                     id="g134" /></g></g><g
                 transform="translate(-136.897,96.879)"
                 id="g136" /></g></g><g
             id="g138" /><g
             id="g140"><g
               id="g142"><path
                 id="path144"
                 style="fill:none;stroke:#333333;stroke-width:0.79701;stroke-linecap:butt;stroke-linejoin:miter;stroke-miterlimit:10;stroke-dasharray:none;stroke-opacity:1"
                 d="m 228.19243,-74.4987 c 0,7.82785 -6.34553,14.1734 -14.17339,14.1734 -7.82784,0 -14.1734,-6.34555 -14.1734,-14.1734 0,-7.82785 6.34556,-14.1734 14.1734,-14.1734 7.82786,0 14.17339,6.34555 14.17339,14.1734 z" /></g><g
               transform="translate(214.016,-74.498)"
               id="g146"><g
                 id="g148" /><g
                 transform="translate(-214.016,74.498)"
                 id="g150" /></g></g><g
             id="g152"><g
               transform="translate(209.305,-96.879)"
               id="g154"><g
                 id="g156"><g
                   transform="translate(-215.831,-17.902)"
                   id="g158"><text
                     id="text162"
                     style="font-variant:normal;font-weight:normal;font-size:9.96259975px;font-family:CMMI10;-inkscape-font-specification:CMMI10;writing-mode:lr-tb;fill:#000000;fill-opacity:1;fill-rule:nonzero;stroke:none"
                     transform="matrix(1,0,0,-1,215.831,17.902)"><tspan
                       id="tspan160"
                       y="0"
                       x="0">z</tspan></text>
<text
                     id="text166"
                     style="font-variant:normal;font-weight:normal;font-size:6.97380018px;font-family:CMMI7;-inkscape-font-specification:CMMI7;writing-mode:lr-tb;fill:#000000;fill-opacity:1;fill-rule:nonzero;stroke:none"
                     transform="matrix(1,0,0,-1,220.464,16.408)"><tspan
                       id="tspan164"
                       y="0"
                       x="0">y</tspan></text>
<g
                     transform="translate(215.831,17.902)"
                     id="g168" /></g></g><g
                 transform="translate(-209.305,96.879)"
                 id="g170" /></g></g><g
             id="g172"><g
               id="g174"><path
                 id="path176"
                 style="fill:#e6e6e6;fill-opacity:1;fill-rule:nonzero;stroke:#333333;stroke-width:0.79701;stroke-linecap:butt;stroke-linejoin:miter;stroke-miterlimit:10;stroke-dasharray:none;stroke-opacity:1"
                 d="m 228.19243,0 c 0,7.82784 -6.34553,14.17339 -14.17339,14.17339 -7.82784,0 -14.1734,-6.34555 -14.1734,-14.17339 0,-7.82784 6.34556,-14.17339 14.1734,-14.17339 7.82786,0 14.17339,6.34555 14.17339,14.17339 z" /></g><g
               transform="translate(214.016)"
               id="g178"><g
                 id="g180" /><g
                 transform="translate(-214.016)"
                 id="g182" /></g></g><g
             id="g184"><g
               transform="translate(227.84,-20.632)"
               id="g186"><g
                 id="g188"><g
                   transform="translate(-234.366,-94.149)"
                   id="g190"><text
                     id="text194"
                     style="font-variant:normal;font-weight:normal;font-size:9.96259975px;font-family:CMMI10;-inkscape-font-specification:CMMI10;writing-mode:lr-tb;fill:#000000;fill-opacity:1;fill-rule:nonzero;stroke:none"
                     transform="matrix(1,0,0,-1,234.366,94.149)"><tspan
                       id="tspan192"
                       y="0"
                       x="0">X</tspan></text>
<g
                     transform="translate(234.366,94.149)"
                     id="g196" /></g></g><g
                 transform="translate(-227.84,20.632)"
                 id="g198" /></g></g><g
             id="g200"><g
               id="g202"><path
                 id="path204"
                 style="fill:none;stroke:#808080;stroke-width:0.79701;stroke-linecap:butt;stroke-linejoin:miter;stroke-miterlimit:10;stroke-dasharray:2.98883, 2.98883;stroke-dashoffset:0;stroke-opacity:1"
                 d="m 271.42715,0 c 0,3.89113 -3.15432,7.04544 -7.04545,7.04544 -3.89113,0 -7.04544,-3.15431 -7.04544,-7.04544 0,-3.89113 3.15431,-7.04544 7.04544,-7.04544 3.89113,0 7.04545,3.15431 7.04545,7.04544 z" /></g><g
               transform="translate(264.378)"
               id="g206"><g
                 id="g208" /><g
                 transform="translate(-264.378)"
                 id="g210" /></g></g><g
             id="g212"><g
               transform="translate(273.162,-13.073)"
               id="g214"><g
                 id="g216"><g
                   transform="translate(-279.688,-101.708)"
                   id="g218"><text
                     id="text222"
                     style="font-variant:normal;font-weight:normal;font-size:9.96259975px;font-family:CMMI10;-inkscape-font-specification:CMMI10;writing-mode:lr-tb;fill:#000000;fill-opacity:1;fill-rule:nonzero;stroke:none"
                     transform="matrix(1,0,0,-1,279.688,101.708)"><tspan
                       id="tspan220"
                       y="0"
                       x="0">z</tspan></text>
<text
                     id="text226"
                     style="font-variant:normal;font-weight:normal;font-size:6.97380018px;font-family:CMMI7;-inkscape-font-specification:CMMI7;writing-mode:lr-tb;fill:#000000;fill-opacity:1;fill-rule:nonzero;stroke:none"
                     transform="matrix(1,0,0,-1,284.321,100.213)"><tspan
                       id="tspan224"
                       y="0"
                       x="0">x</tspan></text>
<g
                     transform="translate(279.688,101.708)"
                     id="g228" /></g></g><g
                 transform="translate(-273.162,13.073)"
                 id="g230" /></g></g><g
             id="g232"><g
               id="g234"><path
                 id="path236"
                 style="fill:#808080;fill-opacity:1;fill-rule:nonzero;stroke:#333333;stroke-width:0.79701;stroke-linecap:butt;stroke-linejoin:miter;stroke-miterlimit:10;stroke-dasharray:none;stroke-opacity:1"
                 d="m 326.9717,0 c 0,2.59372 -2.10259,4.6963 -4.69632,4.6963 -2.59372,0 -4.69631,-2.10258 -4.69631,-4.6963 0,-2.59372 2.10259,-4.6963 4.69631,-4.6963 2.59373,0 4.69632,2.10258 4.69632,4.6963 z" /></g><g
               transform="translate(322.271)"
               id="g238"><g
                 id="g240" /><g
                 transform="translate(-322.271)"
                 id="g242" /></g></g><g
             id="g244"><g
               transform="translate(329.393,-13.93)"
               id="g246"><g
                 id="g248"><g
                   transform="translate(-335.919,-100.851)"
                   id="g250"><text
                     id="text254"
                     style="font-variant:normal;font-weight:normal;font-size:9.96259975px;font-family:CMSY10;-inkscape-font-specification:CMSY10;writing-mode:lr-tb;fill:#000000;fill-opacity:1;fill-rule:nonzero;stroke:none"
                     transform="matrix(1,0,0,-1,335.919,100.851)"><tspan
                       id="tspan252"
                       y="0"
                       x="0">N</tspan></text>
<text
                     id="text258"
                     style="font-variant:normal;font-weight:normal;font-size:6.97380018px;font-family:CMR7;-inkscape-font-specification:CMR7;writing-mode:lr-tb;fill:#000000;fill-opacity:1;fill-rule:nonzero;stroke:none"
                     transform="matrix(1,0,0,-1,344.094,99.356)"><tspan
                       id="tspan256"
                       y="0"
                       x="0">0</tspan></text>
<text
                     id="text262"
                     style="font-variant:normal;font-weight:normal;font-size:6.97380018px;font-family:CMMI7;-inkscape-font-specification:CMMI7;writing-mode:lr-tb;fill:#000000;fill-opacity:1;fill-rule:nonzero;stroke:none"
                     transform="matrix(1,0,0,-1,348.065,99.356)"><tspan
                       id="tspan260"
                       y="0"
                       x="0">,</tspan></text>
<text
                     id="text266"
                     style="font-variant:normal;font-weight:normal;font-size:6.97380018px;font-family:CMR7;-inkscape-font-specification:CMR7;writing-mode:lr-tb;fill:#000000;fill-opacity:1;fill-rule:nonzero;stroke:none"
                     transform="matrix(1,0,0,-1,350.431,99.356)"><tspan
                       id="tspan264"
                       y="0"
                       x="0">1</tspan></text>
<g
                     transform="translate(335.919,100.851)"
                     id="g268" /></g></g><g
                 transform="translate(-329.393,13.93)"
                 id="g270" /></g></g><g
             id="g272"><g
               id="g274"><path
                 id="path276"
                 style="fill:none;stroke:#000000;stroke-width:0.79701;stroke-linecap:butt;stroke-linejoin:miter;stroke-miterlimit:10;stroke-dasharray:none;stroke-opacity:1"
                 d="M 5.09482,0 H 45.78725" /><g
                 transform="translate(45.78725)"
                 id="g278"><g
                   id="g280"><path
                     id="path282"
                     style="fill:#000000;fill-opacity:1;fill-rule:nonzero;stroke:none"
                     d="M 4.66248,0 C 3.28098,0.25902 1.0361,1.0361 -0.51805,1.94269 V -1.94269 C 1.0361,-1.0361 3.28098,-0.25902 4.66248,0" /></g></g></g></g><g
             id="g284"><g
               id="g286"><path
                 id="path288"
                 style="fill:none;stroke:#000000;stroke-width:0.79701;stroke-linecap:butt;stroke-linejoin:miter;stroke-miterlimit:10;stroke-dasharray:none;stroke-opacity:1"
                 d="m 79.59352,0 h 40.69243" /><g
                 transform="translate(120.28595)"
                 id="g290"><g
                   id="g292"><path
                     id="path294"
                     style="fill:#000000;fill-opacity:1;fill-rule:nonzero;stroke:none"
                     d="M 4.66248,0 C 3.28098,0.25902 1.0361,1.0361 -0.51805,1.94269 V -1.94269 C 1.0361,-1.0361 3.28098,-0.25902 4.66248,0" /></g></g></g></g><g
             id="g296"><g
               id="g298"><path
                 id="path300"
                 style="fill:none;stroke:#000000;stroke-width:0.79701;stroke-linecap:butt;stroke-linejoin:miter;stroke-miterlimit:10;stroke-dasharray:none;stroke-opacity:1"
                 d="m 77.6813,-7.3095 c 41.76923,-24.1154 81.90883,-24.1154 119.62742,-2.33878" /><g
                 transform="matrix(0.86877,0.50162,-0.50162,0.86877,197.30872,-9.64828)"
                 id="g302"><g
                   id="g304"><path
                     id="path306"
                     style="fill:#000000;fill-opacity:1;fill-rule:nonzero;stroke:none"
                     d="M 4.66248,0 C 3.28098,0.25902 1.0361,1.0361 -0.51805,1.94269 V -1.94269 C 1.0361,-1.0361 3.28098,-0.25902 4.66248,0" /></g></g></g></g><g
             id="g308"><g
               id="g310"><path
                 id="path312"
                 style="fill:none;stroke:#000000;stroke-width:0.79701;stroke-linecap:butt;stroke-linejoin:miter;stroke-miterlimit:10;stroke-dasharray:none;stroke-opacity:1"
                 d="m 154.09222,0 h 40.69243" /><g
                 transform="translate(194.78465)"
                 id="g314"><g
                   id="g316"><path
                     id="path318"
                     style="fill:#000000;fill-opacity:1;fill-rule:nonzero;stroke:none"
                     d="M 4.66248,0 C 3.28098,0.25902 1.0361,1.0361 -0.51805,1.94269 V -1.94269 C 1.0361,-1.0361 3.28098,-0.25902 4.66248,0" /></g></g></g></g><g
             id="g320"><g
               id="g322"><path
                 id="path324"
                 style="fill:none;stroke:#000000;stroke-width:0.79701;stroke-linecap:butt;stroke-linejoin:miter;stroke-miterlimit:10;stroke-dasharray:none;stroke-opacity:1"
                 d="m 154.09222,-74.4987 h 40.69243" /><g
                 transform="translate(194.78465,-74.4987)"
                 id="g326"><g
                   id="g328"><path
                     id="path330"
                     style="fill:#000000;fill-opacity:1;fill-rule:nonzero;stroke:none"
                     d="M 4.66248,0 C 3.28098,0.25902 1.0361,1.0361 -0.51805,1.94269 V -1.94269 C 1.0361,-1.0361 3.28098,-0.25902 4.66248,0" /></g></g></g></g><g
             id="g332"><g
               id="g334"><path
                 id="path336"
                 style="fill:none;stroke:#000000;stroke-width:0.79701;stroke-linecap:butt;stroke-linejoin:miter;stroke-miterlimit:10;stroke-dasharray:none;stroke-opacity:1"
                 d="m 214.01904,-59.9268 v 40.69242" /><g
                 transform="rotate(90,116.62671,97.39233)"
                 id="g338"><g
                   id="g340"><path
                     id="path342"
                     style="fill:#000000;fill-opacity:1;fill-rule:nonzero;stroke:none"
                     d="M 4.66248,0 C 3.28098,0.25902 1.0361,1.0361 -0.51805,1.94269 V -1.94269 C 1.0361,-1.0361 3.28098,-0.25902 4.66248,0" /></g></g></g></g><g
             id="g344"><g
               id="g346"><path
                 id="path348"
                 style="fill:none;stroke:#000000;stroke-width:0.79701;stroke-linecap:butt;stroke-linejoin:miter;stroke-miterlimit:10;stroke-dasharray:2.98883, 2.98883;stroke-dashoffset:0;stroke-opacity:1"
                 d="M 201.35934,7.3095 C 159.59013,31.4249 119.45053,31.4249 81.73193,9.64828" /><g
                 transform="matrix(-0.86877,-0.50162,0.50162,-0.86877,81.73193,9.64828)"
                 id="g350"><g
                   id="g352"><path
                     id="path354"
                     style="fill:#000000;fill-opacity:1;fill-rule:nonzero;stroke:none"
                     d="M 4.66248,0 C 3.28098,0.25902 1.0361,1.0361 -0.51805,1.94269 V -1.94269 C 1.0361,-1.0361 3.28098,-0.25902 4.66248,0" /></g></g></g></g><g
             id="g356"><g
               id="g358"><path
                 id="path360"
                 style="fill:none;stroke:#000000;stroke-width:0.79701;stroke-linecap:butt;stroke-linejoin:miter;stroke-miterlimit:10;stroke-dasharray:2.98883, 2.98883;stroke-dashoffset:0;stroke-opacity:1"
                 d="m 201.35934,7.30862 c -16.60907,9.58922 -32.57024,9.58922 -45.12869,2.3387" /><g
                 transform="matrix(-0.86877,-0.5016,0.5016,-0.86877,156.23065,9.64732)"
                 id="g362"><g
                   id="g364"><path
                     id="path366"
                     style="fill:#000000;fill-opacity:1;fill-rule:nonzero;stroke:none"
                     d="M 4.66248,0 C 3.28098,0.25902 1.0361,1.0361 -0.51805,1.94269 V -1.94269 C 1.0361,-1.0361 3.28098,-0.25902 4.66248,0" /></g></g></g></g><g
             id="g368"><g
               id="g370"><path
                 id="path372"
                 style="fill:none;stroke:#000000;stroke-width:0.79701;stroke-linecap:butt;stroke-linejoin:miter;stroke-miterlimit:10;stroke-dasharray:2.98883, 2.98883;stroke-dashoffset:0;stroke-opacity:1"
                 d="m 226.67873,-7.30905 c 11.26631,-4.89205 21.36604,-3.7356 27.48796,0.7991" /><g
                 transform="matrix(0.80385,0.59543,-0.59543,0.80385,254.16667,-6.50995)"
                 id="g374"><g
                   id="g376"><path
                     id="path378"
                     style="fill:#000000;fill-opacity:1;fill-rule:nonzero;stroke:none"
                     d="M 4.66248,0 C 3.28098,0.25902 1.0361,1.0361 -0.51805,1.94269 V -1.94269 C 1.0361,-1.0361 3.28098,-0.25902 4.66248,0" /></g></g></g></g><g
             id="g380"><g
               id="g382"><path
                 id="path384"
                 style="fill:none;stroke:#000000;stroke-width:0.79701;stroke-linecap:butt;stroke-linejoin:miter;stroke-miterlimit:10;stroke-dasharray:2.98883, 2.98883;stroke-dashoffset:0;stroke-opacity:1"
                 d="m 77.6813,-7.30862 c 16.60909,-9.58922 32.57027,-9.58922 45.12871,-2.3387" /><g
                 transform="matrix(0.86877,0.5016,-0.5016,0.86877,122.81001,-9.64732)"
                 id="g386"><g
                   id="g388"><path
                     id="path390"
                     style="fill:#000000;fill-opacity:1;fill-rule:nonzero;stroke:none"
                     d="M 4.66248,0 C 3.28098,0.25902 1.0361,1.0361 -0.51805,1.94269 V -1.94269 C 1.0361,-1.0361 3.28098,-0.25902 4.66248,0" /></g></g></g></g><g
             id="g392"><g
               id="g394"><path
                 id="path396"
                 style="fill:none;stroke:#000000;stroke-width:0.79701;stroke-linecap:butt;stroke-linejoin:miter;stroke-miterlimit:10;stroke-dasharray:0.79701, 1.99255;stroke-dashoffset:0;stroke-opacity:1"
                 d="m 201.35934,-67.19008 c -16.60907,9.58923 -32.57024,9.58923 -45.12869,2.3387" /><g
                 transform="matrix(-0.86877,-0.5016,0.5016,-0.86877,156.23065,-64.85138)"
                 id="g398"><g
                   id="g400"><path
                     id="path402"
                     style="fill:#000000;fill-opacity:1;fill-rule:nonzero;stroke:none"
                     d="M 4.66248,0 C 3.28098,0.25902 1.0361,1.0361 -0.51805,1.94269 V -1.94269 C 1.0361,-1.0361 3.28098,-0.25902 4.66248,0" /></g></g><g
                 id="g404"><g
                   transform="translate(146.836,-55.226)"
                   id="g406"><g
                     id="g408"><g
                       transform="translate(-153.362,-59.555)"
                       id="g410"><text
                         id="text414"
                         style="font-variant:normal;font-weight:normal;font-size:9.96259975px;font-family:CMMI10;-inkscape-font-specification:CMMI10;writing-mode:lr-tb;fill:#000000;fill-opacity:1;fill-rule:nonzero;stroke:none"
                         transform="matrix(1,0,0,-1,153.362,59.555)"><tspan
                           id="tspan412"
                           y="0"
                           x="0">q</tspan></text>
<text
                         id="text418"
                         style="font-variant:normal;font-weight:normal;font-size:6.97380018px;font-family:CMMI7;-inkscape-font-specification:CMMI7;writing-mode:lr-tb;fill:#000000;fill-opacity:1;fill-rule:nonzero;stroke:none"
                         transform="matrix(1,0,0,-1,157.809,58.06)"><tspan
                           id="tspan416"
                           y="0"
                           x="0">ω</tspan></text>
<text
                         id="text422"
                         style="font-variant:normal;font-weight:normal;font-size:9.96259975px;font-family:CMR10;-inkscape-font-specification:CMR10;writing-mode:lr-tb;fill:#000000;fill-opacity:1;fill-rule:nonzero;stroke:none"
                         transform="matrix(1,0,0,-1,163.576,59.555)"><tspan
                           id="tspan420"
                           y="0"
                           x="0">(</tspan></text>
<text
                         id="text426"
                         style="font-variant:normal;font-weight:normal;font-size:9.96259975px;font-family:CMMI10;-inkscape-font-specification:CMMI10;writing-mode:lr-tb;fill:#000000;fill-opacity:1;fill-rule:nonzero;stroke:none"
                         transform="matrix(1,0,0,-1,167.451,59.555)"><tspan
                           id="tspan424"
                           y="0"
                           x="0">y</tspan></text>
<text
                         id="text430"
                         style="font-variant:normal;font-weight:normal;font-size:9.96259975px;font-family:CMSY10;-inkscape-font-specification:CMSY10;writing-mode:lr-tb;fill:#000000;fill-opacity:1;fill-rule:nonzero;stroke:none"
                         transform="matrix(1,0,0,-1,172.693,59.555)"><tspan
                           id="tspan428"
                           y="0"
                           x="0">|</tspan></text>
<text
                         id="text434"
                         style="font-variant:normal;font-weight:normal;font-size:9.96259975px;font-family:CMMI10;-inkscape-font-specification:CMMI10;writing-mode:lr-tb;fill:#000000;fill-opacity:1;fill-rule:nonzero;stroke:none"
                         transform="matrix(1,0,0,-1,175.46,59.555)"><tspan
                           id="tspan432"
                           y="0"
                           x="0">z</tspan></text>
<text
                         id="text438"
                         style="font-variant:normal;font-weight:normal;font-size:6.97380018px;font-family:CMMI7;-inkscape-font-specification:CMMI7;writing-mode:lr-tb;fill:#000000;fill-opacity:1;fill-rule:nonzero;stroke:none"
                         transform="matrix(1,0,0,-1,180.093,58.06)"><tspan
                           id="tspan436"
                           y="0"
                           x="0">y</tspan></text>
<text
                         id="text442"
                         style="font-variant:normal;font-weight:normal;font-size:9.96259975px;font-family:CMR10;-inkscape-font-specification:CMR10;writing-mode:lr-tb;fill:#000000;fill-opacity:1;fill-rule:nonzero;stroke:none"
                         transform="matrix(1,0,0,-1,184.882,59.555)"><tspan
                           id="tspan440"
                           y="0"
                           x="0">)</tspan></text>
<g
                         transform="translate(153.362,59.555)"
                         id="g444" /></g></g><g
                     transform="translate(-146.836,55.226)"
                     id="g446" /></g></g></g></g><g
             id="g448"><g
               id="g450"><path
                 id="path452"
                 style="fill:none;stroke:#000000;stroke-width:0.79701;stroke-linecap:butt;stroke-linejoin:miter;stroke-miterlimit:10;stroke-dasharray:2.98883, 2.98883;stroke-dashoffset:0;stroke-opacity:1"
                 d="m 201.35934,-81.80733 c -16.60907,-9.58922 -32.57024,-9.58922 -45.12869,-2.3387" /><g
                 transform="matrix(-0.86877,0.5016,-0.5016,-0.86877,156.23065,-84.14603)"
                 id="g454"><g
                   id="g456"><path
                     id="path458"
                     style="fill:#000000;fill-opacity:1;fill-rule:nonzero;stroke:none"
                     d="M 4.66248,0 C 3.28098,0.25902 1.0361,1.0361 -0.51805,1.94269 V -1.94269 C 1.0361,-1.0361 3.28098,-0.25902 4.66248,0" /></g></g><g
                 id="g460"><g
                   transform="translate(164.533,-83.481)"
                   id="g462"><g
                     id="g464" /><g
                     transform="translate(-164.533,83.481)"
                     id="g466" /></g></g></g></g><g
             id="g468"><g
               id="g470"><path
                 id="path472"
                 style="fill:none;stroke:#000000;stroke-width:0.79701;stroke-linecap:butt;stroke-linejoin:miter;stroke-miterlimit:10;stroke-dasharray:none;stroke-opacity:1"
                 d="M 317.18056,0 H 276.48813" /><g
                 transform="rotate(180,138.24406,0)"
                 id="g474"><g
                   id="g476"><path
                     id="path478"
                     style="fill:#000000;fill-opacity:1;fill-rule:nonzero;stroke:none"
                     d="M 4.66248,0 C 3.28098,0.25902 1.0361,1.0361 -0.51805,1.94269 V -1.94269 C 1.0361,-1.0361 3.28098,-0.25902 4.66248,0" /></g></g></g></g><g
             id="g480"><g
               id="g482"><path
                 id="path484"
                 style="fill:none;stroke:#000000;stroke-width:0.79701;stroke-linecap:butt;stroke-linejoin:miter;stroke-miterlimit:10;stroke-dasharray:none;stroke-opacity:1"
                 d="M 256.93774,0 H 233.25342" /><g
                 transform="rotate(180,116.62671,0)"
                 id="g486"><g
                   id="g488"><path
                     id="path490"
                     style="fill:#000000;fill-opacity:1;fill-rule:nonzero;stroke:none"
                     d="M 4.66248,0 C 3.28098,0.25902 1.0361,1.0361 -0.51805,1.94269 V -1.94269 C 1.0361,-1.0361 3.28098,-0.25902 4.66248,0" /></g></g></g></g><g
             id="g492"><g
               id="g494"><path
                 id="path496"
                 style="fill:none;stroke:#000000;stroke-width:0.79701;stroke-linecap:butt;stroke-linejoin:miter;stroke-miterlimit:10;stroke-dasharray:2.98883, 2.98883;stroke-dashoffset:0;stroke-opacity:1"
                 d="m 206.71042,-12.65968 c -9.58923,-16.60907 -9.58923,-32.57025 -2.33872,-45.1287" /><g
                 transform="matrix(0.5016,-0.86877,0.86877,0.5016,204.3717,-57.78838)"
                 id="g498"><g
                   id="g500"><path
                     id="path502"
                     style="fill:#000000;fill-opacity:1;fill-rule:nonzero;stroke:none"
                     d="M 4.66248,0 C 3.28098,0.25902 1.0361,1.0361 -0.51805,1.94269 V -1.94269 C 1.0361,-1.0361 3.28098,-0.25902 4.66248,0" /></g></g></g></g><g
             id="g504"><g
               id="g506"><path
                 id="path508"
                 style="fill:none;stroke:#000000;stroke-width:0.3985;stroke-linecap:butt;stroke-linejoin:miter;stroke-miterlimit:10;stroke-dasharray:none;stroke-opacity:1"
                 d="M 24.93759,-114.58273 H 297.33775 V 40.08402 H 24.93759 Z" /></g><g
               transform="translate(50.449,-37.249)"
               id="g510"><g
                 transform="translate(110.686)"
                 id="g512"><g
                   transform="translate(-110.686)"
                   id="g514" /></g><g
                 transform="translate(-50.449,37.249)"
                 id="g516" /></g></g></g></g></g></g></svg>
