<?xml version="1.0" encoding="UTF-8" standalone="no"?><svg xmlns="http://www.w3.org/2000/svg" xmlns:xlink="http://www.w3.org/1999/xlink" contentScriptType="application/ecmascript" contentStyleType="text/css" height="579px" preserveAspectRatio="none" style="width:1360px;height:579px;" version="1.1" viewBox="0 0 1360 579" width="1360px" zoomAndPan="magnify"><defs><filter height="300%" id="f1ruq91s9xtd34" width="300%" x="-1" y="-1"><feGaussianBlur result="blurOut" stdDeviation="2.0"/><feColorMatrix in="blurOut" result="blurOut2" type="matrix" values="0 0 0 0 0 0 0 0 0 0 0 0 0 0 0 0 0 0 .4 0"/><feOffset dx="4.0" dy="4.0" in="blurOut2" result="blurOut3"/><feBlend in="SourceGraphic" in2="blurOut3" mode="normal"/></filter></defs><g><!--MD5=[069e9760850462dce85f4fc8f425d607]
cluster task--><polygon fill="#FFFFFF" filter="url(#f1ruq91s9xtd34)" points="467,194,506,194,513,216.2969,583,216.2969,583,415.5,467,415.5,467,194" style="stroke: #000000; stroke-width: 1.5;"/><line style="stroke: #000000; stroke-width: 1.5;" x1="467" x2="513" y1="216.2969" y2="216.2969"/><text fill="#000000" font-family="sans-serif" font-size="14" font-weight="bold" lengthAdjust="spacingAndGlyphs" textLength="33" x="471" y="208.9951">task</text><!--MD5=[87f8a3a00a2fa5ddd5caf781eed993f7]
cluster algos--><polygon fill="#FFFFFF" filter="url(#f1ruq91s9xtd34)" points="1026,83.5,1074,83.5,1081,105.7969,1338,105.7969,1338,423.5,1026,423.5,1026,83.5" style="stroke: #000000; stroke-width: 1.5;"/><line style="stroke: #000000; stroke-width: 1.5;" x1="1026" x2="1081" y1="105.7969" y2="105.7969"/><text fill="#000000" font-family="sans-serif" font-size="14" font-weight="bold" lengthAdjust="spacingAndGlyphs" textLength="42" x="1030" y="98.4951">algos</text><!--MD5=[dc6ea05477d27a46d26532ab9b7f2125]
cluster trainer--><polygon fill="#FFFFFF" filter="url(#f1ruq91s9xtd34)" points="1039,200.5,1098,200.5,1105,222.7969,1131,222.7969,1131,283.5,1039,283.5,1039,200.5" style="stroke: #000000; stroke-width: 1.5;"/><line style="stroke: #000000; stroke-width: 1.5;" x1="1039" x2="1105" y1="222.7969" y2="222.7969"/><text fill="#000000" font-family="sans-serif" font-size="14" font-weight="bold" lengthAdjust="spacingAndGlyphs" textLength="53" x="1043" y="215.4951">trainer</text><!--MD5=[11deb2d3d13514570db491c951d8ed2a]
cluster observer--><polygon fill="#FFFFFF" filter="url(#f1ruq91s9xtd34)" points="1070,332.5,1148,332.5,1155,354.7969,1174,354.7969,1174,415.5,1070,415.5,1070,332.5" style="stroke: #000000; stroke-width: 1.5;"/><line style="stroke: #000000; stroke-width: 1.5;" x1="1070" x2="1155" y1="354.7969" y2="354.7969"/><text fill="#000000" font-family="sans-serif" font-size="14" font-weight="bold" lengthAdjust="spacingAndGlyphs" textLength="72" x="1074" y="347.4951">observer</text><!--MD5=[a5dcfd8e27bfd7961a25ab31384b9578]
cluster model_selection--><polygon fill="#FFFFFF" filter="url(#f1ruq91s9xtd34)" points="1181,200.5,1314,200.5,1321,222.7969,1324,222.7969,1324,283.5,1181,283.5,1181,200.5" style="stroke: #000000; stroke-width: 1.5;"/><line style="stroke: #000000; stroke-width: 1.5;" x1="1181" x2="1321" y1="222.7969" y2="222.7969"/><text fill="#000000" font-family="sans-serif" font-size="14" font-weight="bold" lengthAdjust="spacingAndGlyphs" textLength="127" x="1185" y="215.4951">model_selection</text><!--MD5=[d00c18208dae02e212a5592433a1df85]
cluster dataset--><path d="M602,310 C602,300 651,300 651,300 C651,300 700,300 700,310 L700,423 C700,433 651,433 651,433 C651,433 602,433 602,423 L602,310 " fill="#FFFFFF" filter="url(#f1ruq91s9xtd34)" style="stroke: #000000; stroke-width: 1.5;"/><path d="M602,310 C602,320 651,320 651,320 C651,320 700,320 700,310 " fill="none" style="stroke: #000000; stroke-width: 1.5;"/><text fill="#000000" font-family="sans-serif" font-size="14" font-weight="bold" lengthAdjust="spacingAndGlyphs" textLength="59" x="621.5" y="334.9951">dataset</text><!--MD5=[5d4cd377749310b66bf14896f5cd8d9b]
cluster model--><polygon fill="#FFFFFF" filter="url(#f1ruq91s9xtd34)" points="720,319.5,774,319.5,781,341.7969,1018,341.7969,1018,567,720,567,720,319.5" style="stroke: #000000; stroke-width: 1.5;"/><line style="stroke: #000000; stroke-width: 1.5;" x1="720" x2="781" y1="341.7969" y2="341.7969"/><text fill="#000000" font-family="sans-serif" font-size="14" font-weight="bold" lengthAdjust="spacingAndGlyphs" textLength="48" x="724" y="334.4951">model</text><!--MD5=[67a6735b2a5707e03290b64fb931c9ce]
cluster components--><polygon fill="#FFFFFF" filter="url(#f1ruq91s9xtd34)" points="14,56.5,118,56.5,125,78.7969,459,78.7969,459,291.5,14,291.5,14,56.5" style="stroke: #000000; stroke-width: 1.5;"/><line style="stroke: #000000; stroke-width: 1.5;" x1="14" x2="125" y1="78.7969" y2="78.7969"/><text fill="#000000" font-family="sans-serif" font-size="14" font-weight="bold" lengthAdjust="spacingAndGlyphs" textLength="98" x="18" y="71.4951">components</text><!--MD5=[229e27752f54fd5e7d127f0fc31beeed]
cluster experiment--><polygon fill="#FFFFFF" filter="url(#f1ruq91s9xtd34)" points="133,83.5,229,83.5,236,105.7969,259,105.7969,259,283.5,133,283.5,133,83.5" style="stroke: #000000; stroke-width: 1.5;"/><line style="stroke: #000000; stroke-width: 1.5;" x1="133" x2="236" y1="105.7969" y2="105.7969"/><text fill="#000000" font-family="sans-serif" font-size="14" font-weight="bold" lengthAdjust="spacingAndGlyphs" textLength="90" x="137" y="98.4951">experiment</text><!--MD5=[b34797a66dc35cbf1d65f7e3ca75530e]
class Task--><rect fill="#FEFECE" filter="url(#f1ruq91s9xtd34)" height="60.8047" id="Task" style="stroke: #A80036; stroke-width: 1.5;" width="60" x="495" y="221"/><ellipse cx="510" cy="237" fill="#A9DCDF" rx="11" ry="11" style="stroke: #A80036; stroke-width: 1.0;"/><path d="M510.1094,232.3438 L508.9531,237.4219 L511.2813,237.4219 L510.1094,232.3438 Z M508.625,230.1094 L511.6094,230.1094 L514.9688,242.5 L512.5156,242.5 L511.75,239.4375 L508.4688,239.4375 L507.7188,242.5 L505.2813,242.5 L508.625,230.1094 Z "/><text fill="#000000" font-family="sans-serif" font-size="12" font-style="italic" lengthAdjust="spacingAndGlyphs" textLength="28" x="524" y="241.1543">Task</text><line style="stroke: #A80036; stroke-width: 1.5;" x1="496" x2="554" y1="253" y2="253"/><ellipse cx="506" cy="264" fill="none" rx="3" ry="3" style="stroke: #038048; stroke-width: 1.0;"/><text fill="#000000" font-family="sans-serif" font-size="11" lengthAdjust="spacingAndGlyphs" textLength="33" x="515" y="267.2104">dim_y</text><line style="stroke: #A80036; stroke-width: 1.5;" x1="496" x2="554" y1="273.8047" y2="273.8047"/><!--MD5=[5b5a07016a0d6740f0fb84d05fbc9352]
class TaskFolder--><rect fill="#FEFECE" filter="url(#f1ruq91s9xtd34)" height="48" id="TaskFolder" style="stroke: #A80036; stroke-width: 1.5;" width="100" x="475" y="359.5"/><ellipse cx="490" cy="375.5" fill="#ADD1B2" rx="11" ry="11" style="stroke: #A80036; stroke-width: 1.0;"/><path d="M492.9688,381.1406 Q492.3906,381.4375 491.75,381.5781 Q491.1094,381.7344 490.4063,381.7344 Q487.9063,381.7344 486.5781,380.0938 Q485.2656,378.4375 485.2656,375.3125 Q485.2656,372.1875 486.5781,370.5313 Q487.9063,368.875 490.4063,368.875 Q491.1094,368.875 491.75,369.0313 Q492.4063,369.1875 492.9688,369.4844 L492.9688,372.2031 Q492.3438,371.625 491.75,371.3594 Q491.1563,371.0781 490.5313,371.0781 Q489.1875,371.0781 488.5,372.1563 Q487.8125,373.2188 487.8125,375.3125 Q487.8125,377.4063 488.5,378.4844 Q489.1875,379.5469 490.5313,379.5469 Q491.1563,379.5469 491.75,379.2813 Q492.3438,379 492.9688,378.4219 L492.9688,381.1406 Z "/><text fill="#000000" font-family="sans-serif" font-size="12" lengthAdjust="spacingAndGlyphs" textLength="68" x="504" y="379.6543">TaskFolder</text><line style="stroke: #A80036; stroke-width: 1.5;" x1="476" x2="574" y1="391.5" y2="391.5"/><line style="stroke: #A80036; stroke-width: 1.5;" x1="476" x2="574" y1="399.5" y2="399.5"/><!--MD5=[a4dc2b9a52fafc9c4c7e964c40966336]
class AlgoBuilder--><rect fill="#FEFECE" filter="url(#f1ruq91s9xtd34)" height="48" id="AlgoBuilder" style="stroke: #A80036; stroke-width: 1.5;" width="102" x="1034" y="110.5"/><ellipse cx="1049" cy="126.5" fill="#A9DCDF" rx="11" ry="11" style="stroke: #A80036; stroke-width: 1.0;"/><path d="M1049.1094,121.8438 L1047.9531,126.9219 L1050.2813,126.9219 L1049.1094,121.8438 Z M1047.625,119.6094 L1050.6094,119.6094 L1053.9688,132 L1051.5156,132 L1050.75,128.9375 L1047.4688,128.9375 L1046.7188,132 L1044.2813,132 L1047.625,119.6094 Z "/><text fill="#000000" font-family="sans-serif" font-size="12" font-style="italic" lengthAdjust="spacingAndGlyphs" textLength="70" x="1063" y="130.6543">AlgoBuilder</text><line style="stroke: #A80036; stroke-width: 1.5;" x1="1035" x2="1135" y1="142.5" y2="142.5"/><line style="stroke: #A80036; stroke-width: 1.5;" x1="1035" x2="1135" y1="150.5" y2="150.5"/><!--MD5=[21dfce9084707774cf6ce5c469344671]
class ConcreteAlgoBuilder--><rect fill="#FEFECE" filter="url(#f1ruq91s9xtd34)" height="48" id="ConcreteAlgoBuilder" style="stroke: #A80036; stroke-width: 1.5;" width="159" x="1171.5" y="110.5"/><ellipse cx="1186.5" cy="126.5" fill="#ADD1B2" rx="11" ry="11" style="stroke: #A80036; stroke-width: 1.0;"/><path d="M1189.4688,132.1406 Q1188.8906,132.4375 1188.25,132.5781 Q1187.6094,132.7344 1186.9063,132.7344 Q1184.4063,132.7344 1183.0781,131.0938 Q1181.7656,129.4375 1181.7656,126.3125 Q1181.7656,123.1875 1183.0781,121.5313 Q1184.4063,119.875 1186.9063,119.875 Q1187.6094,119.875 1188.25,120.0313 Q1188.9063,120.1875 1189.4688,120.4844 L1189.4688,123.2031 Q1188.8438,122.625 1188.25,122.3594 Q1187.6563,122.0781 1187.0313,122.0781 Q1185.6875,122.0781 1185,123.1563 Q1184.3125,124.2188 1184.3125,126.3125 Q1184.3125,128.4063 1185,129.4844 Q1185.6875,130.5469 1187.0313,130.5469 Q1187.6563,130.5469 1188.25,130.2813 Q1188.8438,130 1189.4688,129.4219 L1189.4688,132.1406 Z "/><text fill="#000000" font-family="sans-serif" font-size="12" lengthAdjust="spacingAndGlyphs" textLength="127" x="1200.5" y="130.6543">ConcreteAlgoBuilder</text><line style="stroke: #A80036; stroke-width: 1.5;" x1="1172.5" x2="1329.5" y1="142.5" y2="142.5"/><line style="stroke: #A80036; stroke-width: 1.5;" x1="1172.5" x2="1329.5" y1="150.5" y2="150.5"/><!--MD5=[3512c909caa28192c0057f20071d7997]
class Trainer--><rect fill="#FEFECE" filter="url(#f1ruq91s9xtd34)" height="48" id="Trainer" style="stroke: #A80036; stroke-width: 1.5;" width="76" x="1047" y="227.5"/><ellipse cx="1062" cy="243.5" fill="#ADD1B2" rx="11" ry="11" style="stroke: #A80036; stroke-width: 1.0;"/><path d="M1064.9688,249.1406 Q1064.3906,249.4375 1063.75,249.5781 Q1063.1094,249.7344 1062.4063,249.7344 Q1059.9063,249.7344 1058.5781,248.0938 Q1057.2656,246.4375 1057.2656,243.3125 Q1057.2656,240.1875 1058.5781,238.5313 Q1059.9063,236.875 1062.4063,236.875 Q1063.1094,236.875 1063.75,237.0313 Q1064.4063,237.1875 1064.9688,237.4844 L1064.9688,240.2031 Q1064.3438,239.625 1063.75,239.3594 Q1063.1563,239.0781 1062.5313,239.0781 Q1061.1875,239.0781 1060.5,240.1563 Q1059.8125,241.2188 1059.8125,243.3125 Q1059.8125,245.4063 1060.5,246.4844 Q1061.1875,247.5469 1062.5313,247.5469 Q1063.1563,247.5469 1063.75,247.2813 Q1064.3438,247 1064.9688,246.4219 L1064.9688,249.1406 Z "/><text fill="#000000" font-family="sans-serif" font-size="12" lengthAdjust="spacingAndGlyphs" textLength="44" x="1076" y="247.6543">Trainer</text><line style="stroke: #A80036; stroke-width: 1.5;" x1="1048" x2="1122" y1="259.5" y2="259.5"/><line style="stroke: #A80036; stroke-width: 1.5;" x1="1048" x2="1122" y1="267.5" y2="267.5"/><!--MD5=[d40932010816485ec57b44b6eea2392a]
class Observer--><rect fill="#FEFECE" filter="url(#f1ruq91s9xtd34)" height="48" id="Observer" style="stroke: #A80036; stroke-width: 1.5;" width="88" x="1078" y="359.5"/><ellipse cx="1093" cy="375.5" fill="#ADD1B2" rx="11" ry="11" style="stroke: #A80036; stroke-width: 1.0;"/><path d="M1095.9688,381.1406 Q1095.3906,381.4375 1094.75,381.5781 Q1094.1094,381.7344 1093.4063,381.7344 Q1090.9063,381.7344 1089.5781,380.0938 Q1088.2656,378.4375 1088.2656,375.3125 Q1088.2656,372.1875 1089.5781,370.5313 Q1090.9063,368.875 1093.4063,368.875 Q1094.1094,368.875 1094.75,369.0313 Q1095.4063,369.1875 1095.9688,369.4844 L1095.9688,372.2031 Q1095.3438,371.625 1094.75,371.3594 Q1094.1563,371.0781 1093.5313,371.0781 Q1092.1875,371.0781 1091.5,372.1563 Q1090.8125,373.2188 1090.8125,375.3125 Q1090.8125,377.4063 1091.5,378.4844 Q1092.1875,379.5469 1093.5313,379.5469 Q1094.1563,379.5469 1094.75,379.2813 Q1095.3438,379 1095.9688,378.4219 L1095.9688,381.1406 Z "/><text fill="#000000" font-family="sans-serif" font-size="12" lengthAdjust="spacingAndGlyphs" textLength="56" x="1107" y="379.6543">Observer</text><line style="stroke: #A80036; stroke-width: 1.5;" x1="1079" x2="1165" y1="391.5" y2="391.5"/><line style="stroke: #A80036; stroke-width: 1.5;" x1="1079" x2="1165" y1="399.5" y2="399.5"/><!--MD5=[44287fa3e0564af7b41ad1c1d16f6e6a]
class ModelSel--><rect fill="#FEFECE" filter="url(#f1ruq91s9xtd34)" height="48" id="ModelSel" style="stroke: #A80036; stroke-width: 1.5;" width="88" x="1207" y="227.5"/><ellipse cx="1222" cy="243.5" fill="#ADD1B2" rx="11" ry="11" style="stroke: #A80036; stroke-width: 1.0;"/><path d="M1224.9688,249.1406 Q1224.3906,249.4375 1223.75,249.5781 Q1223.1094,249.7344 1222.4063,249.7344 Q1219.9063,249.7344 1218.5781,248.0938 Q1217.2656,246.4375 1217.2656,243.3125 Q1217.2656,240.1875 1218.5781,238.5313 Q1219.9063,236.875 1222.4063,236.875 Q1223.1094,236.875 1223.75,237.0313 Q1224.4063,237.1875 1224.9688,237.4844 L1224.9688,240.2031 Q1224.3438,239.625 1223.75,239.3594 Q1223.1563,239.0781 1222.5313,239.0781 Q1221.1875,239.0781 1220.5,240.1563 Q1219.8125,241.2188 1219.8125,243.3125 Q1219.8125,245.4063 1220.5,246.4844 Q1221.1875,247.5469 1222.5313,247.5469 Q1223.1563,247.5469 1223.75,247.2813 Q1224.3438,247 1224.9688,246.4219 L1224.9688,249.1406 Z "/><text fill="#000000" font-family="sans-serif" font-size="12" lengthAdjust="spacingAndGlyphs" textLength="56" x="1236" y="247.6543">ModelSel</text><line style="stroke: #A80036; stroke-width: 1.5;" x1="1208" x2="1294" y1="259.5" y2="259.5"/><line style="stroke: #A80036; stroke-width: 1.5;" x1="1208" x2="1294" y1="267.5" y2="267.5"/><!--MD5=[8b82677223ea9eb28a50de16faa90dcd]
class Dataset--><rect fill="#FEFECE" filter="url(#f1ruq91s9xtd34)" height="83.207" id="Dataset" style="stroke: #A80036; stroke-width: 1.5;" width="82" x="610" y="342"/><ellipse cx="625" cy="358" fill="#ADD1B2" rx="11" ry="11" style="stroke: #A80036; stroke-width: 1.0;"/><path d="M627.9688,363.6406 Q627.3906,363.9375 626.75,364.0781 Q626.1094,364.2344 625.4063,364.2344 Q622.9063,364.2344 621.5781,362.5938 Q620.2656,360.9375 620.2656,357.8125 Q620.2656,354.6875 621.5781,353.0313 Q622.9063,351.375 625.4063,351.375 Q626.1094,351.375 626.75,351.5313 Q627.4063,351.6875 627.9688,351.9844 L627.9688,354.7031 Q627.3438,354.125 626.75,353.8594 Q626.1563,353.5781 625.5313,353.5781 Q624.1875,353.5781 623.5,354.6563 Q622.8125,355.7188 622.8125,357.8125 Q622.8125,359.9063 623.5,360.9844 Q624.1875,362.0469 625.5313,362.0469 Q626.1563,362.0469 626.75,361.7813 Q627.3438,361.5 627.9688,360.9219 L627.9688,363.6406 Z "/><text fill="#000000" font-family="sans-serif" font-size="12" lengthAdjust="spacingAndGlyphs" textLength="50" x="639" y="362.1543">Dataset</text><line style="stroke: #A80036; stroke-width: 1.5;" x1="611" x2="691" y1="374" y2="374"/><line style="stroke: #A80036; stroke-width: 1.0;" x1="611" x2="691" y1="382" y2="382"/><line style="stroke: #A80036; stroke-width: 1.5;" x1="611" x2="623.5" y1="396.4023" y2="396.4023"/><text fill="#000000" font-family="sans-serif" font-size="11" lengthAdjust="spacingAndGlyphs" textLength="55" x="623.5" y="399.7104">get__item</text><line style="stroke: #A80036; stroke-width: 1.5;" x1="678.5" x2="691" y1="396.4023" y2="396.4023"/><line style="stroke: #A80036; stroke-width: 1.0;" x1="611" x2="691" y1="409.207" y2="409.207"/><line style="stroke: #A80036; stroke-width: 1.0;" x1="611" x2="691" y1="417.207" y2="417.207"/><!--MD5=[7e20e022571e30ec1001cf6eabd7f3e2]
class Model--><rect fill="#FEFECE" filter="url(#f1ruq91s9xtd34)" height="73.6094" id="Model" style="stroke: #A80036; stroke-width: 1.5;" width="78" x="932" y="346.5"/><ellipse cx="951.05" cy="362.5" fill="#A9DCDF" rx="11" ry="11" style="stroke: #A80036; stroke-width: 1.0;"/><path d="M951.1594,357.8438 L950.0031,362.9219 L952.3313,362.9219 L951.1594,357.8438 Z M949.675,355.6094 L952.6594,355.6094 L956.0188,368 L953.5656,368 L952.8,364.9375 L949.5188,364.9375 L948.7688,368 L946.3313,368 L949.675,355.6094 Z "/><text fill="#000000" font-family="sans-serif" font-size="12" font-style="italic" lengthAdjust="spacingAndGlyphs" textLength="37" x="965.95" y="366.6543">Model</text><line style="stroke: #A80036; stroke-width: 1.5;" x1="933" x2="1009" y1="378.5" y2="378.5"/><ellipse cx="943" cy="389.5" fill="none" rx="3" ry="3" style="stroke: #038048; stroke-width: 1.0;"/><text fill="#000000" font-family="sans-serif" font-size="11" lengthAdjust="spacingAndGlyphs" textLength="51" x="952" y="392.7104">int dim_y</text><ellipse cx="943" cy="402.3047" fill="none" rx="3" ry="3" style="stroke: #038048; stroke-width: 1.0;"/><text fill="#000000" font-family="sans-serif" font-size="11" lengthAdjust="spacingAndGlyphs" textLength="52" x="952" y="405.5151">int dim_d</text><line style="stroke: #A80036; stroke-width: 1.5;" x1="933" x2="1009" y1="412.1094" y2="412.1094"/><!--MD5=[de853b39a30e94ea5f90241bcbd78441]
class ModelBuilder--><rect fill="#FEFECE" filter="url(#f1ruq91s9xtd34)" height="73.6094" id="ModelBuilder" style="stroke: #A80036; stroke-width: 1.5;" width="112" x="898" y="485"/><ellipse cx="913" cy="501" fill="#A9DCDF" rx="11" ry="11" style="stroke: #A80036; stroke-width: 1.0;"/><path d="M913.1094,496.3438 L911.9531,501.4219 L914.2813,501.4219 L913.1094,496.3438 Z M911.625,494.1094 L914.6094,494.1094 L917.9688,506.5 L915.5156,506.5 L914.75,503.4375 L911.4688,503.4375 L910.7188,506.5 L908.2813,506.5 L911.625,494.1094 Z "/><text fill="#000000" font-family="sans-serif" font-size="12" font-style="italic" lengthAdjust="spacingAndGlyphs" textLength="80" x="927" y="505.1543">ModelBuilder</text><line style="stroke: #A80036; stroke-width: 1.5;" x1="899" x2="1009" y1="517" y2="517"/><line style="stroke: #A80036; stroke-width: 1.5;" x1="899" x2="1009" y1="525" y2="525"/><ellipse cx="909" cy="536" fill="#84BE84" rx="3" ry="3" style="stroke: #038048; stroke-width: 1.0;"/><text fill="#000000" font-family="sans-serif" font-size="11" lengthAdjust="spacingAndGlyphs" textLength="77" x="918" y="539.2104">build_part_a()</text><ellipse cx="909" cy="548.8047" fill="#84BE84" rx="3" ry="3" style="stroke: #038048; stroke-width: 1.0;"/><text fill="#000000" font-family="sans-serif" font-size="11" lengthAdjust="spacingAndGlyphs" textLength="77" x="918" y="552.0151">build_part_b()</text><!--MD5=[269ed4e23a75e217dd0324641cbe2b7d]
class ConcreteModel--><rect fill="#FEFECE" filter="url(#f1ruq91s9xtd34)" height="48" id="ConcreteModel" style="stroke: #A80036; stroke-width: 1.5;" width="126" x="737" y="498"/><ellipse cx="752" cy="514" fill="#ADD1B2" rx="11" ry="11" style="stroke: #A80036; stroke-width: 1.0;"/><path d="M754.9688,519.6406 Q754.3906,519.9375 753.75,520.0781 Q753.1094,520.2344 752.4063,520.2344 Q749.9063,520.2344 748.5781,518.5938 Q747.2656,516.9375 747.2656,513.8125 Q747.2656,510.6875 748.5781,509.0313 Q749.9063,507.375 752.4063,507.375 Q753.1094,507.375 753.75,507.5313 Q754.4063,507.6875 754.9688,507.9844 L754.9688,510.7031 Q754.3438,510.125 753.75,509.8594 Q753.1563,509.5781 752.5313,509.5781 Q751.1875,509.5781 750.5,510.6563 Q749.8125,511.7188 749.8125,513.8125 Q749.8125,515.9063 750.5,516.9844 Q751.1875,518.0469 752.5313,518.0469 Q753.1563,518.0469 753.75,517.7813 Q754.3438,517.5 754.9688,516.9219 L754.9688,519.6406 Z "/><text fill="#000000" font-family="sans-serif" font-size="12" lengthAdjust="spacingAndGlyphs" textLength="94" x="766" y="518.1543">ConcreteModel</text><line style="stroke: #A80036; stroke-width: 1.5;" x1="738" x2="862" y1="530" y2="530"/><line style="stroke: #A80036; stroke-width: 1.5;" x1="738" x2="862" y1="538" y2="538"/><!--MD5=[951a3888498f898ff1ebd3a39820e9a1]
class ConcreteModelBuilder--><rect fill="#FEFECE" filter="url(#f1ruq91s9xtd34)" height="48" id="ConcreteModelBuilder" style="stroke: #A80036; stroke-width: 1.5;" width="169" x="727.5" y="359.5"/><ellipse cx="742.5" cy="375.5" fill="#ADD1B2" rx="11" ry="11" style="stroke: #A80036; stroke-width: 1.0;"/><path d="M745.4688,381.1406 Q744.8906,381.4375 744.25,381.5781 Q743.6094,381.7344 742.9063,381.7344 Q740.4063,381.7344 739.0781,380.0938 Q737.7656,378.4375 737.7656,375.3125 Q737.7656,372.1875 739.0781,370.5313 Q740.4063,368.875 742.9063,368.875 Q743.6094,368.875 744.25,369.0313 Q744.9063,369.1875 745.4688,369.4844 L745.4688,372.2031 Q744.8438,371.625 744.25,371.3594 Q743.6563,371.0781 743.0313,371.0781 Q741.6875,371.0781 741,372.1563 Q740.3125,373.2188 740.3125,375.3125 Q740.3125,377.4063 741,378.4844 Q741.6875,379.5469 743.0313,379.5469 Q743.6563,379.5469 744.25,379.2813 Q744.8438,379 745.4688,378.4219 L745.4688,381.1406 Z "/><text fill="#000000" font-family="sans-serif" font-size="12" lengthAdjust="spacingAndGlyphs" textLength="137" x="756.5" y="379.6543">ConcreteModelBuilder</text><line style="stroke: #A80036; stroke-width: 1.5;" x1="728.5" x2="895.5" y1="391.5" y2="391.5"/><line style="stroke: #A80036; stroke-width: 1.5;" x1="728.5" x2="895.5" y1="399.5" y2="399.5"/><polygon fill="#FFFFFF" filter="url(#f1ruq91s9xtd34)" points="282.5,108,437.5,108,444.5,130.2969,451.5,130.2969,451.5,160.5938,282.5,160.5938,282.5,108" style="stroke: #000000; stroke-width: 1.5;"/><line style="stroke: #000000; stroke-width: 1.5;" x1="282.5" x2="444.5" y1="130.2969" y2="130.2969"/><text fill="#000000" font-family="sans-serif" font-size="14" font-weight="bold" lengthAdjust="spacingAndGlyphs" textLength="149" x="286.5" y="122.9951">common_networks</text><polygon fill="#FFFFFF" filter="url(#f1ruq91s9xtd34)" points="22.5,108,95.5,108,102.5,130.2969,109.5,130.2969,109.5,160.5938,22.5,160.5938,22.5,108" style="stroke: #000000; stroke-width: 1.5;"/><line style="stroke: #000000; stroke-width: 1.5;" x1="22.5" x2="102.5" y1="130.2969" y2="130.2969"/><text fill="#000000" font-family="sans-serif" font-size="14" font-weight="bold" lengthAdjust="spacingAndGlyphs" textLength="67" x="26.5" y="122.9951">patterns</text><!--MD5=[2a9217e8f2d7f96589335d2c6f09894a]
class Experiment--><rect fill="#FEFECE" filter="url(#f1ruq91s9xtd34)" height="48" id="Experiment" style="stroke: #A80036; stroke-width: 1.5;" width="102" x="145" y="110.5"/><ellipse cx="160" cy="126.5" fill="#ADD1B2" rx="11" ry="11" style="stroke: #A80036; stroke-width: 1.0;"/><path d="M162.9688,132.1406 Q162.3906,132.4375 161.75,132.5781 Q161.1094,132.7344 160.4063,132.7344 Q157.9063,132.7344 156.5781,131.0938 Q155.2656,129.4375 155.2656,126.3125 Q155.2656,123.1875 156.5781,121.5313 Q157.9063,119.875 160.4063,119.875 Q161.1094,119.875 161.75,120.0313 Q162.4063,120.1875 162.9688,120.4844 L162.9688,123.2031 Q162.3438,122.625 161.75,122.3594 Q161.1563,122.0781 160.5313,122.0781 Q159.1875,122.0781 158.5,123.1563 Q157.8125,124.2188 157.8125,126.3125 Q157.8125,128.4063 158.5,129.4844 Q159.1875,130.5469 160.5313,130.5469 Q161.1563,130.5469 161.75,130.2813 Q162.3438,130 162.9688,129.4219 L162.9688,132.1406 Z "/><text fill="#000000" font-family="sans-serif" font-size="12" lengthAdjust="spacingAndGlyphs" textLength="70" x="174" y="130.6543">Experiment</text><line style="stroke: #A80036; stroke-width: 1.5;" x1="146" x2="246" y1="142.5" y2="142.5"/><line style="stroke: #A80036; stroke-width: 1.5;" x1="146" x2="246" y1="150.5" y2="150.5"/><!--MD5=[808738ddb1e6a682f4e66ebc5dd1d7a2]
class TaskHandler--><rect fill="#FEFECE" filter="url(#f1ruq91s9xtd34)" height="48" id="TaskHandler" style="stroke: #A80036; stroke-width: 1.5;" width="110" x="141" y="227.5"/><ellipse cx="156" cy="243.5" fill="#ADD1B2" rx="11" ry="11" style="stroke: #A80036; stroke-width: 1.0;"/><path d="M158.9688,249.1406 Q158.3906,249.4375 157.75,249.5781 Q157.1094,249.7344 156.4063,249.7344 Q153.9063,249.7344 152.5781,248.0938 Q151.2656,246.4375 151.2656,243.3125 Q151.2656,240.1875 152.5781,238.5313 Q153.9063,236.875 156.4063,236.875 Q157.1094,236.875 157.75,237.0313 Q158.4063,237.1875 158.9688,237.4844 L158.9688,240.2031 Q158.3438,239.625 157.75,239.3594 Q157.1563,239.0781 156.5313,239.0781 Q155.1875,239.0781 154.5,240.1563 Q153.8125,241.2188 153.8125,243.3125 Q153.8125,245.4063 154.5,246.4844 Q155.1875,247.5469 156.5313,247.5469 Q157.1563,247.5469 157.75,247.2813 Q158.3438,247 158.9688,246.4219 L158.9688,249.1406 Z "/><text fill="#000000" font-family="sans-serif" font-size="12" lengthAdjust="spacingAndGlyphs" textLength="78" x="170" y="247.6543">TaskHandler</text><line style="stroke: #A80036; stroke-width: 1.5;" x1="142" x2="250" y1="259.5" y2="259.5"/><line style="stroke: #A80036; stroke-width: 1.5;" x1="142" x2="250" y1="267.5" y2="267.5"/><!--MD5=[90839f01c52367f18f6ad948d876fba3]
reverse link Task to TaskFolder--><path d="M525,302.25 C525,321.812 525,343.2649 525,359.2123 " fill="none" id="Task&lt;-TaskFolder" style="stroke: #A80036; stroke-width: 1.0;"/><polygon fill="none" points="518.0001,302.1153,525,282.1152,532.0001,302.1152,518.0001,302.1153" style="stroke: #A80036; stroke-width: 1.0;"/><!--MD5=[e19a3b523cd245a715f84bb26cc214f6]
reverse link Experiment to Task--><path d="M257.3434,163.4371 C347.0831,198.8853 446.2622,228.8572 494.9444,242.9694 " fill="none" id="Experiment&lt;-Task" style="stroke: #A80036; stroke-width: 1.0;"/><polygon fill="#A80036" points="245.0343,158.5153,249.1203,164.4571,256.1765,162.9707,252.0906,157.0289,245.0343,158.5153" style="stroke: #A80036; stroke-width: 1.0;"/><!--MD5=[bcfdda38ca473c60cc15cf2c9e8c5ae1]
reverse link Experiment to Trainer--><path d="M256.1097,162.0718 C399.7166,200.5875 444.3113,178.3457 591,194 C761.2083,212.1643 964.0535,236.6789 1046.9098,246.8149 " fill="none" id="Experiment&lt;-Trainer" style="stroke: #A80036; stroke-width: 1.0;"/><polygon fill="#A80036" points="243.2958,158.5468,248.0199,163.995,254.866,161.7297,250.1419,156.2815,243.2958,158.5468" style="stroke: #A80036; stroke-width: 1.0;"/><!--MD5=[f0913c8fd8a79788a60107ea5d88bae6]
reverse link Trainer to Observer--><path d="M1095.3208,288.3201 C1101.6939,311.0565 1109.6884,339.5775 1115.2567,359.4427 " fill="none" id="Trainer&lt;-Observer" style="stroke: #A80036; stroke-width: 1.0;"/><polygon fill="#A80036" points="1091.7864,275.7108,1089.5543,282.5678,1095.0253,287.2654,1097.2574,280.4085,1091.7864,275.7108" style="stroke: #A80036; stroke-width: 1.0;"/><!--MD5=[49a02f9886b36fbdfd3110a314f47693]
reverse link Trainer to Model--><path d="M1055.5836,285.5611 C1039.4689,304.2203 1019.4784,327.3671 1002.9781,346.4728 " fill="none" id="Trainer&lt;-Model" style="stroke: #A80036; stroke-width: 1.0;"/><polygon fill="#A80036" points="1064.0906,275.7108,1057.1416,277.6373,1056.2472,284.7927,1063.1962,282.8662,1064.0906,275.7108" style="stroke: #A80036; stroke-width: 1.0;"/><!--MD5=[96eb1aab8876d34fe0ed7af04f18fa83]
reverse link Task to Dataset--><path d="M565.7057,278.3023 C574.4781,284.9088 583.3923,292.3107 591,300 C603.4295,312.5627 615.2187,327.8965 625.0039,341.9793 " fill="none" id="Task&lt;-Dataset" style="stroke: #A80036; stroke-width: 1.0;"/><polygon fill="#FFFFFF" points="555.173,270.6725,557.6855,277.4318,564.8911,277.7123,562.3786,270.953,555.173,270.6725" style="stroke: #A80036; stroke-width: 1.0;"/><!--MD5=[7b4cf0218d6ff7dad1ec6ca4cccd4bdd]
reverse link Model to ConcreteModel--><path d="M916.4901,430.9415 C915.6556,431.6338 914.8252,432.3204 914,433 C886.6721,455.5077 854.8646,480.2208 831.8022,497.882 " fill="none" id="Model&lt;-ConcreteModel" style="stroke: #A80036; stroke-width: 1.0;"/><polygon fill="none" points="912.1863,425.4138,931.9822,417.8557,921.2203,436.109,912.1863,425.4138" style="stroke: #A80036; stroke-width: 1.0;"/><!--MD5=[2e25be9426d34a008482ea6d2f7411a8]
reverse link Model to ModelBuilder--><path d="M964.8369,433.711 C962.766,450.583 960.4944,469.0898 958.5683,484.7821 " fill="none" id="Model&lt;-ModelBuilder" style="stroke: #A80036; stroke-width: 1.0;"/><polygon fill="#A80036" points="966.4443,420.6155,961.7431,426.0835,964.9823,432.5261,969.6835,427.0581,966.4443,420.6155" style="stroke: #A80036; stroke-width: 1.0;"/><!--MD5=[65b686b7dd704db1af2544f699b83bd3]
reverse link Experiment to AlgoBuilder--><path d="M209.4901,98.3031 C220.9887,73.1689 240.2009,41.587 268.5,26.5 C339.4864,-11.3449 369.3403,19.7371 449.5,26.5 C668.9069,45.0108 926.4362,98.8615 1033.8911,122.7969 " fill="none" id="Experiment&lt;-AlgoBuilder" style="stroke: #A80036; stroke-width: 1.0;"/><polygon fill="#A80036" points="204.3159,110.3796,210.3556,106.4398,209.0419,99.3494,203.0022,103.2892,204.3159,110.3796" style="stroke: #A80036; stroke-width: 1.0;"/><!--MD5=[eef46b21a00ff506ab4f4ceebc1dc497]
reverse link Experiment to TaskHandler--><path d="M196,171.8685 C196,190.0144 196,211.2941 196,227.2886 " fill="none" id="Experiment&lt;-TaskHandler" style="stroke: #A80036; stroke-width: 1.0;"/><polygon fill="#A80036" points="196,158.7425,192,164.7425,196,170.7425,200,164.7425,196,158.7425" style="stroke: #A80036; stroke-width: 1.0;"/><!--MD5=[f334711ea97dff02de28fbd6a605e21b]
link ConcreteModelBuilder to common_networks--><path d="M790.7199,359.2101 C754.0135,318.8318 674.6477,237.9977 591,194 C547.7318,171.2415 495.0777,156.6831 451.6933,147.6677 " fill="none" id="ConcreteModelBuilder-common_networks" style="stroke: #A80036; stroke-width: 1.0;"/><!--MD5=[c01669db50ee2eeee9541e8cd7445378]
link ConcreteAlgoBuilder to Trainer--><path d="M1185.6112,158.5847 C1165.5611,167.8155 1144.2583,179.6495 1127,194 C1115.8788,203.2474 1106.1502,216.0526 1098.8642,227.2319 " fill="none" id="ConcreteAlgoBuilder-Trainer" style="stroke: #A80036; stroke-width: 1.0;"/><!--MD5=[1b19516549320088e44e8cae8c9402fb]
link ConcreteAlgoBuilder to Observer--><path d="M1209.1683,158.6789 C1195.9108,168.1722 1182.3005,180.1401 1173,194 C1154.7278,221.2298 1135.0982,314.6582 1126.4843,359.3321 " fill="none" id="ConcreteAlgoBuilder-Observer" style="stroke: #A80036; stroke-width: 1.0;"/><!--MD5=[119a68fbd322920e8a99529e568321e5]
link ConcreteAlgoBuilder to ModelSel--><path d="M1251,158.7425 C1251,178.8226 1251,207.2171 1251,227.2886 " fill="none" id="ConcreteAlgoBuilder-ModelSel" style="stroke: #A80036; stroke-width: 1.0;"/><!--MD5=[fb9588cc336d0276ec331d14f818a18b]
link ConcreteModelBuilder to ConcreteModel--><path d="M809.9098,407.6249 C807.7207,432.8906 804.3017,472.3509 802.1066,497.6869 " fill="none" id="ConcreteModelBuilder-ConcreteModel" style="stroke: #A80036; stroke-width: 1.0;"/><!--MD5=[871602e6ace81ebc7d10450d95b96ae3]
@startuml
' 
' *- -  composition
' <|- - extension
' o- - aggregation
' - -  association (1 to n or 1 to 1 or n to 1)
' ..>
'Dependency is a weaker form of bond which indicates that one class depends on 
'another because it uses it at some point in time. One class depends on 
'another if the independent class is a parameter variable or local variable of 
'a method of the dependent class. This is different from an association, where 
'an attribute of the dependent class is an instance of the independent class. 
'Sometimes the relationship between two classes is very weak. They are not 
'implemented with member variables at all. Rather they might be implemented as 
'member function arguments.
package task {
  abstract class Task {
    + dim_y
  }
  Task <|- - TaskFolder
}

package algos {
  abstract class AlgoBuilder {}
  class ConcreteAlgoBuilder {}
  package trainer {
    class Trainer {}
  }
  package observer {
    class Observer {}
  }
  package model_selection {
    class ModelSel {}
  }
} 

package dataset <<DataBase>>{
  class Dataset {
    - -
    __get__item__
    - -
    - -
  }
}

package model{
  abstract class Model {
  + int dim_y
  + int dim_d
  }
  abstract class ModelBuilder {
  +build_part_a()
  +build_part_b()
  }
  class ConcreteModel {}
  class ConcreteModelBuilder {}
}


package components {
  package common_networks {
  }
  package patterns{}
  package experiment {
    class Experiment {}
    class TaskHandler{}
  }
}


Experiment *- - Task
Experiment *- - Trainer
Trainer *- - Observer
Trainer *- - Model
Task o- - Dataset
Model <|- - ConcreteModel
Model *- - ModelBuilder
Experiment *- - AlgoBuilder
Experiment *- - TaskHandler
ConcreteModelBuilder - - common_networks
ConcreteAlgoBuilder - - Trainer
ConcreteAlgoBuilder - - Observer
ConcreteAlgoBuilder - - ModelSel
ConcreteModelBuilder - - ConcreteModel
@enduml

@startuml
package task {
  abstract class Task {
    + dim_y
  }
  Task <|- - TaskFolder
}

package algos {
  abstract class AlgoBuilder {}
  class ConcreteAlgoBuilder {}
  package trainer {
    class Trainer {}
  }
  package observer {
    class Observer {}
  }
  package model_selection {
    class ModelSel {}
  }
} 

package dataset <<DataBase>>{
  class Dataset {
    - -
    __get__item__
    - -
    - -
  }
}

package model{
  abstract class Model {
  + int dim_y
  + int dim_d
  }
  abstract class ModelBuilder {
  +build_part_a()
  +build_part_b()
  }
  class ConcreteModel {}
  class ConcreteModelBuilder {}
}


package components {
  package common_networks {
  }
  package patterns{}
  package experiment {
    class Experiment {}
    class TaskHandler{}
  }
}


Experiment *- - Task
Experiment *- - Trainer
Trainer *- - Observer
Trainer *- - Model
Task o- - Dataset
Model <|- - ConcreteModel
Model *- - ModelBuilder
Experiment *- - AlgoBuilder
Experiment *- - TaskHandler
ConcreteModelBuilder - - common_networks
ConcreteAlgoBuilder - - Trainer
ConcreteAlgoBuilder - - Observer
ConcreteAlgoBuilder - - ModelSel
ConcreteModelBuilder - - ConcreteModel
@enduml

PlantUML version 1.2020.10(Sun May 17 11:35:57 CEST 2020)
(GPL source distribution)
Java Runtime: OpenJDK Runtime Environment
JVM: OpenJDK 64-Bit Server VM
Java Version: 11.0.11+9-Ubuntu-0ubuntu2.18.04
Operating System: Linux
Default Encoding: UTF-8
Language: en
Country: US
--></g></svg>