<?xml version="1.0" encoding="us-ascii" standalone="no"?><svg xmlns="http://www.w3.org/2000/svg" xmlns:xlink="http://www.w3.org/1999/xlink" contentStyleType="text/css" height="1154px" preserveAspectRatio="none" style="width:1579px;height:1154px;background:#FFFFFF;" version="1.1" viewBox="0 0 1579 1154" width="1579px" zoomAndPan="magnify"><defs/><g><!--cluster tasks--><g id="cluster_tasks"><path d="M1049.5,475 L1092.5,475 A3.75,3.75 0 0 1 1095,477.5 L1102,497.2969 L1363.5,497.2969 A2.5,2.5 0 0 1 1366,499.7969 L1366,801.5 A2.5,2.5 0 0 1 1363.5,804 L1049.5,804 A2.5,2.5 0 0 1 1047,801.5 L1047,477.5 A2.5,2.5 0 0 1 1049.5,475 " fill="none" style="stroke:#000000;stroke-width:1.5;"/><line style="stroke:#000000;stroke-width:1.5;" x1="1047" x2="1102" y1="497.2969" y2="497.2969"/><text fill="#000000" font-family="sans-serif" font-size="14" font-weight="bold" lengthAdjust="spacing" textLength="42" x="1051" y="489.9951">tasks</text></g><!--cluster algos--><g id="cluster_algos"><path d="M333.5,302 L376.5,302 A3.75,3.75 0 0 1 379,304.5 L386,324.2969 L659.5,324.2969 A2.5,2.5 0 0 1 662,326.7969 L662,1144.5 A2.5,2.5 0 0 1 659.5,1147 L333.5,1147 A2.5,2.5 0 0 1 331,1144.5 L331,304.5 A2.5,2.5 0 0 1 333.5,302 " fill="none" style="stroke:#000000;stroke-width:1.5;"/><line style="stroke:#000000;stroke-width:1.5;" x1="331" x2="386" y1="324.2969" y2="324.2969"/><text fill="#000000" font-family="sans-serif" font-size="14" font-weight="bold" lengthAdjust="spacing" textLength="42" x="335" y="316.9951">algos</text></g><!--cluster trainers--><g id="cluster_trainers"><path d="M357.5,648 L420.5,648 A3.75,3.75 0 0 1 423,650.5 L430,670.2969 L622.5,670.2969 A2.5,2.5 0 0 1 625,672.7969 L625,842.5 A2.5,2.5 0 0 1 622.5,845 L357.5,845 A2.5,2.5 0 0 1 355,842.5 L355,650.5 A2.5,2.5 0 0 1 357.5,648 " fill="none" style="stroke:#000000;stroke-width:1.5;"/><line style="stroke:#000000;stroke-width:1.5;" x1="355" x2="430" y1="670.2969" y2="670.2969"/><text fill="#000000" font-family="sans-serif" font-size="14" font-weight="bold" lengthAdjust="spacing" textLength="62" x="359" y="662.9951">trainers</text></g><!--cluster observer--><g id="cluster_observer"><path d="M361.5,869 L434.5,869 A3.75,3.75 0 0 1 437,871.5 L444,891.2969 L630.5,891.2969 A2.5,2.5 0 0 1 633,893.7969 L633,981.5 A2.5,2.5 0 0 1 630.5,984 L361.5,984 A2.5,2.5 0 0 1 359,981.5 L359,871.5 A2.5,2.5 0 0 1 361.5,869 " fill="none" style="stroke:#000000;stroke-width:1.5;"/><line style="stroke:#000000;stroke-width:1.5;" x1="359" x2="444" y1="891.2969" y2="891.2969"/><text fill="#000000" font-family="sans-serif" font-size="14" font-weight="bold" lengthAdjust="spacing" textLength="72" x="363" y="883.9951">observer</text></g><!--cluster model_selection--><g id="cluster_model_selection"><path d="M427.5,1008 L555.5,1008 A3.75,3.75 0 0 1 558,1010.5 L565,1030.2969 L565.5,1030.2969 A2.5,2.5 0 0 1 568,1032.7969 L568,1120.5 A2.5,2.5 0 0 1 565.5,1123 L427.5,1123 A2.5,2.5 0 0 1 425,1120.5 L425,1010.5 A2.5,2.5 0 0 1 427.5,1008 " fill="none" style="stroke:#000000;stroke-width:1.5;"/><line style="stroke:#000000;stroke-width:1.5;" x1="425" x2="565" y1="1030.2969" y2="1030.2969"/><text fill="#000000" font-family="sans-serif" font-size="14" font-weight="bold" lengthAdjust="spacing" textLength="127" x="429" y="1022.9951">model_selection</text></g><!--cluster datasets--><g id="cluster_datasets"><path d="M1398,684 C1398,674 1480,674 1480,674 C1480,674 1562,674 1562,684 L1562,794 C1562,804 1480,804 1480,804 C1480,804 1398,804 1398,794 L1398,684 " fill="none" style="stroke:#181818;stroke-width:1.0;"/><path d="M1398,684 C1398,694 1480,694 1480,694 C1480,694 1562,694 1562,684 " fill="none" style="stroke:#181818;stroke-width:1.0;"/><text fill="#000000" font-family="sans-serif" font-size="14" font-weight="bold" lengthAdjust="spacing" textLength="68" x="1446" y="708.9951">datasets</text></g><!--cluster models--><g id="cluster_models"><path d="M8.5,302 L66.5,302 A3.75,3.75 0 0 1 69,304.5 L76,324.2969 L304.5,324.2969 A2.5,2.5 0 0 1 307,326.7969 L307,1115 A2.5,2.5 0 0 1 304.5,1117.5 L8.5,1117.5 A2.5,2.5 0 0 1 6,1115 L6,304.5 A2.5,2.5 0 0 1 8.5,302 " fill="none" style="stroke:#000000;stroke-width:1.5;"/><line style="stroke:#000000;stroke-width:1.5;" x1="6" x2="76" y1="324.2969" y2="324.2969"/><text fill="#000000" font-family="sans-serif" font-size="14" font-weight="bold" lengthAdjust="spacing" textLength="57" x="10" y="316.9951">models</text></g><!--cluster experiment--><g id="cluster_experiment"><path d="M688.5,137 L779.5,137 A3.75,3.75 0 0 1 782,139.5 L789,159.2969 L984.5,159.2969 A2.5,2.5 0 0 1 987,161.7969 L987,431 A2.5,2.5 0 0 1 984.5,433.5 L688.5,433.5 A2.5,2.5 0 0 1 686,431 L686,139.5 A2.5,2.5 0 0 1 688.5,137 " fill="none" style="stroke:#000000;stroke-width:1.5;"/><line style="stroke:#000000;stroke-width:1.5;" x1="686" x2="789" y1="159.2969" y2="159.2969"/><text fill="#000000" font-family="sans-serif" font-size="14" font-weight="bold" lengthAdjust="spacing" textLength="90" x="690" y="151.9951">experiment</text></g><!--class Task--><g id="elem_Task"><rect codeLine="16" fill="#F1F1F1" height="96.8906" id="Task" rx="2.5" ry="2.5" style="stroke:#181818;stroke-width:0.5;" width="214" x="1128" y="518"/><ellipse cx="1214.75" cy="534" fill="#A9DCDF" rx="11" ry="11" style="stroke:#181818;stroke-width:1.0;"/><path d="M1214.8594,529.3438 L1213.7031,534.4219 L1216.0313,534.4219 L1214.8594,529.3438 Z M1213.375,527.1094 L1216.3594,527.1094 L1219.7188,539.5 L1217.2656,539.5 L1216.5,536.4375 L1213.2188,536.4375 L1212.4688,539.5 L1210.0313,539.5 L1213.375,527.1094 Z " fill="#000000"/><text fill="#000000" font-family="sans-serif" font-size="14" font-style="italic" lengthAdjust="spacing" textLength="32" x="1235.25" y="538.8467">Task</text><line style="stroke:#181818;stroke-width:0.5;" x1="1129" x2="1341" y1="550" y2="550"/><rect fill="none" height="6" style="stroke:#C82930;stroke-width:1.0;" width="6" x="1136" y="560.6484"/><text fill="#000000" font-family="sans-serif" font-size="14" lengthAdjust="spacing" textLength="108" x="1148" y="566.9951">transformations</text><line style="stroke:#181818;stroke-width:0.5;" x1="1129" x2="1341" y1="574.2969" y2="574.2969"/><rect fill="#F24D5C" height="6" style="stroke:#C82930;stroke-width:1.0;" width="6" x="1136" y="584.9453"/><text fill="#000000" font-family="sans-serif" font-size="14" lengthAdjust="spacing" textLength="188" x="1148" y="591.292">datasets (training domains)</text><rect fill="#F24D5C" height="6" style="stroke:#C82930;stroke-width:1.0;" width="6" x="1136" y="601.2422"/><text fill="#000000" font-family="sans-serif" font-size="14" lengthAdjust="spacing" textLength="164" x="1148" y="607.5889">datasets (test domains)</text></g><!--class TaskFolder--><g id="elem_TaskFolder"><rect fill="#F1F1F1" height="48" id="TaskFolder" rx="2.5" ry="2.5" style="stroke:#181818;stroke-width:0.5;" width="108" x="1079" y="732"/><ellipse cx="1094" cy="748" fill="#ADD1B2" rx="11" ry="11" style="stroke:#181818;stroke-width:1.0;"/><path d="M1096.9688,753.6406 Q1096.3906,753.9375 1095.75,754.0781 Q1095.1094,754.2344 1094.4063,754.2344 Q1091.9063,754.2344 1090.5781,752.5938 Q1089.2656,750.9375 1089.2656,747.8125 Q1089.2656,744.6875 1090.5781,743.0313 Q1091.9063,741.375 1094.4063,741.375 Q1095.1094,741.375 1095.75,741.5313 Q1096.4063,741.6875 1096.9688,741.9844 L1096.9688,744.7031 Q1096.3438,744.125 1095.75,743.8594 Q1095.1563,743.5781 1094.5313,743.5781 Q1093.1875,743.5781 1092.5,744.6563 Q1091.8125,745.7188 1091.8125,747.8125 Q1091.8125,749.9063 1092.5,750.9844 Q1093.1875,752.0469 1094.5313,752.0469 Q1095.1563,752.0469 1095.75,751.7813 Q1096.3438,751.5 1096.9688,750.9219 L1096.9688,753.6406 Z " fill="#000000"/><text fill="#000000" font-family="sans-serif" font-size="14" lengthAdjust="spacing" textLength="76" x="1108" y="752.8467">TaskFolder</text><line style="stroke:#181818;stroke-width:0.5;" x1="1080" x2="1186" y1="764" y2="764"/><line style="stroke:#181818;stroke-width:0.5;" x1="1080" x2="1186" y1="772" y2="772"/></g><!--class TaskPathList--><g id="elem_TaskPathList"><rect fill="#F1F1F1" height="48" id="TaskPathList" rx="2.5" ry="2.5" style="stroke:#181818;stroke-width:0.5;" width="119" x="1222.5" y="732"/><ellipse cx="1237.5" cy="748" fill="#ADD1B2" rx="11" ry="11" style="stroke:#181818;stroke-width:1.0;"/><path d="M1240.4688,753.6406 Q1239.8906,753.9375 1239.25,754.0781 Q1238.6094,754.2344 1237.9063,754.2344 Q1235.4063,754.2344 1234.0781,752.5938 Q1232.7656,750.9375 1232.7656,747.8125 Q1232.7656,744.6875 1234.0781,743.0313 Q1235.4063,741.375 1237.9063,741.375 Q1238.6094,741.375 1239.25,741.5313 Q1239.9063,741.6875 1240.4688,741.9844 L1240.4688,744.7031 Q1239.8438,744.125 1239.25,743.8594 Q1238.6563,743.5781 1238.0313,743.5781 Q1236.6875,743.5781 1236,744.6563 Q1235.3125,745.7188 1235.3125,747.8125 Q1235.3125,749.9063 1236,750.9844 Q1236.6875,752.0469 1238.0313,752.0469 Q1238.6563,752.0469 1239.25,751.7813 Q1239.8438,751.5 1240.4688,750.9219 L1240.4688,753.6406 Z " fill="#000000"/><text fill="#000000" font-family="sans-serif" font-size="14" lengthAdjust="spacing" textLength="87" x="1251.5" y="752.8467">TaskPathList</text><line style="stroke:#181818;stroke-width:0.5;" x1="1223.5" x2="1340.5" y1="764" y2="764"/><line style="stroke:#181818;stroke-width:0.5;" x1="1223.5" x2="1340.5" y1="772" y2="772"/></g><!--class AlgoBuilder--><g id="elem_AlgoBuilder"><rect codeLine="26" fill="#F1F1F1" height="113.1875" id="AlgoBuilder" rx="2.5" ry="2.5" style="stroke:#181818;stroke-width:0.5;" width="258" x="361" y="337"/><ellipse cx="446.25" cy="353" fill="#A9DCDF" rx="11" ry="11" style="stroke:#181818;stroke-width:1.0;"/><path d="M446.3594,348.3438 L445.2031,353.4219 L447.5313,353.4219 L446.3594,348.3438 Z M444.875,346.1094 L447.8594,346.1094 L451.2188,358.5 L448.7656,358.5 L448,355.4375 L444.7188,355.4375 L443.9688,358.5 L441.5313,358.5 L444.875,346.1094 Z " fill="#000000"/><text fill="#000000" font-family="sans-serif" font-size="14" font-style="italic" lengthAdjust="spacing" textLength="79" x="466.75" y="357.8467">AlgoBuilder</text><line style="stroke:#181818;stroke-width:0.5;" x1="362" x2="618" y1="369" y2="369"/><line style="stroke:#181818;stroke-width:0.5;" x1="362" x2="618" y1="377" y2="377"/><ellipse cx="372" cy="390.6484" fill="#84BE84" rx="3" ry="3" style="stroke:#038048;stroke-width:1.0;"/><text fill="#000000" font-family="sans-serif" font-size="14" lengthAdjust="spacing" textLength="93" x="381" y="393.9951">build_model()</text><ellipse cx="372" cy="406.9453" fill="#84BE84" rx="3" ry="3" style="stroke:#038048;stroke-width:1.0;"/><text fill="#000000" font-family="sans-serif" font-size="14" lengthAdjust="spacing" textLength="94" x="381" y="410.292">build_trainer()</text><ellipse cx="372" cy="423.2422" fill="#84BE84" rx="3" ry="3" style="stroke:#038048;stroke-width:1.0;"/><text fill="#000000" font-family="sans-serif" font-size="14" lengthAdjust="spacing" textLength="111" x="381" y="426.5889">build_observer()</text><ellipse cx="372" cy="439.5391" fill="#84BE84" rx="3" ry="3" style="stroke:#038048;stroke-width:1.0;"/><text fill="#000000" font-family="sans-serif" font-size="14" lengthAdjust="spacing" textLength="232" x="381" y="442.8857">model_specific_task_processing()</text></g><!--class ConcreteAlgoBuilder--><g id="elem_ConcreteAlgoBuilder"><rect codeLine="32" fill="#F1F1F1" height="113.1875" id="ConcreteAlgoBuilder" rx="2.5" ry="2.5" style="stroke:#181818;stroke-width:0.5;" width="258" x="361" y="510"/><ellipse cx="414.75" cy="526" fill="#ADD1B2" rx="11" ry="11" style="stroke:#181818;stroke-width:1.0;"/><path d="M417.7188,531.6406 Q417.1406,531.9375 416.5,532.0781 Q415.8594,532.2344 415.1563,532.2344 Q412.6563,532.2344 411.3281,530.5938 Q410.0156,528.9375 410.0156,525.8125 Q410.0156,522.6875 411.3281,521.0313 Q412.6563,519.375 415.1563,519.375 Q415.8594,519.375 416.5,519.5313 Q417.1563,519.6875 417.7188,519.9844 L417.7188,522.7031 Q417.0938,522.125 416.5,521.8594 Q415.9063,521.5781 415.2813,521.5781 Q413.9375,521.5781 413.25,522.6563 Q412.5625,523.7188 412.5625,525.8125 Q412.5625,527.9063 413.25,528.9844 Q413.9375,530.0469 415.2813,530.0469 Q415.9063,530.0469 416.5,529.7813 Q417.0938,529.5 417.7188,528.9219 L417.7188,531.6406 Z " fill="#000000"/><text fill="#000000" font-family="sans-serif" font-size="14" lengthAdjust="spacing" textLength="142" x="435.25" y="530.8467">ConcreteAlgoBuilder</text><line style="stroke:#181818;stroke-width:0.5;" x1="362" x2="618" y1="542" y2="542"/><line style="stroke:#181818;stroke-width:0.5;" x1="362" x2="618" y1="550" y2="550"/><ellipse cx="372" cy="563.6484" fill="#84BE84" rx="3" ry="3" style="stroke:#038048;stroke-width:1.0;"/><text fill="#000000" font-family="sans-serif" font-size="14" lengthAdjust="spacing" textLength="93" x="381" y="566.9951">build_model()</text><ellipse cx="372" cy="579.9453" fill="#84BE84" rx="3" ry="3" style="stroke:#038048;stroke-width:1.0;"/><text fill="#000000" font-family="sans-serif" font-size="14" lengthAdjust="spacing" textLength="94" x="381" y="583.292">build_trainer()</text><ellipse cx="372" cy="596.2422" fill="#84BE84" rx="3" ry="3" style="stroke:#038048;stroke-width:1.0;"/><text fill="#000000" font-family="sans-serif" font-size="14" lengthAdjust="spacing" textLength="111" x="381" y="599.5889">build_observer()</text><ellipse cx="372" cy="612.5391" fill="#84BE84" rx="3" ry="3" style="stroke:#038048;stroke-width:1.0;"/><text fill="#000000" font-family="sans-serif" font-size="14" lengthAdjust="spacing" textLength="232" x="381" y="615.8857">model_specific_task_processing()</text></g><!--class Trainer--><g id="elem_Trainer"><rect codeLine="39" fill="#F1F1F1" height="145.7813" id="Trainer" rx="2.5" ry="2.5" style="stroke:#181818;stroke-width:0.5;" width="238" x="371" y="683"/><ellipse cx="461.75" cy="699" fill="#ADD1B2" rx="11" ry="11" style="stroke:#181818;stroke-width:1.0;"/><path d="M464.7188,704.6406 Q464.1406,704.9375 463.5,705.0781 Q462.8594,705.2344 462.1563,705.2344 Q459.6563,705.2344 458.3281,703.5938 Q457.0156,701.9375 457.0156,698.8125 Q457.0156,695.6875 458.3281,694.0313 Q459.6563,692.375 462.1563,692.375 Q462.8594,692.375 463.5,692.5313 Q464.1563,692.6875 464.7188,692.9844 L464.7188,695.7031 Q464.0938,695.125 463.5,694.8594 Q462.9063,694.5781 462.2813,694.5781 Q460.9375,694.5781 460.25,695.6563 Q459.5625,696.7188 459.5625,698.8125 Q459.5625,700.9063 460.25,701.9844 Q460.9375,703.0469 462.2813,703.0469 Q462.9063,703.0469 463.5,702.7813 Q464.0938,702.5 464.7188,701.9219 L464.7188,704.6406 Z " fill="#000000"/><text fill="#000000" font-family="sans-serif" font-size="14" lengthAdjust="spacing" textLength="48" x="482.25" y="703.8467">Trainer</text><line style="stroke:#181818;stroke-width:0.5;" x1="372" x2="608" y1="715" y2="715"/><rect fill="none" height="6" style="stroke:#C82930;stroke-width:1.0;" width="6" x="379" y="725.6484"/><text fill="#000000" font-family="sans-serif" font-size="14" lengthAdjust="spacing" textLength="43" x="391" y="731.9951">model</text><rect fill="none" height="6" style="stroke:#C82930;stroke-width:1.0;" width="6" x="379" y="741.9453"/><text fill="#000000" font-family="sans-serif" font-size="14" lengthAdjust="spacing" textLength="61" x="391" y="748.292">observer</text><rect fill="none" height="6" style="stroke:#C82930;stroke-width:1.0;" width="6" x="379" y="758.2422"/><text fill="#000000" font-family="sans-serif" font-size="14" lengthAdjust="spacing" textLength="29" x="391" y="764.5889">task</text><line style="stroke:#181818;stroke-width:0.5;" x1="372" x2="608" y1="771.8906" y2="771.8906"/><ellipse cx="382" cy="785.5391" fill="#84BE84" rx="3" ry="3" style="stroke:#038048;stroke-width:1.0;"/><text fill="#000000" font-family="sans-serif" font-size="14" lengthAdjust="spacing" textLength="212" x="391" y="788.8857">update_regularization_weight()</text><ellipse cx="382" cy="801.8359" fill="#84BE84" rx="3" ry="3" style="stroke:#038048;stroke-width:1.0;"/><text fill="#000000" font-family="sans-serif" font-size="14" lengthAdjust="spacing" textLength="187" x="391" y="805.1826">update_model_parameter()</text><ellipse cx="382" cy="818.1328" fill="#84BE84" rx="3" ry="3" style="stroke:#038048;stroke-width:1.0;"/><text fill="#000000" font-family="sans-serif" font-size="14" lengthAdjust="spacing" textLength="106" x="391" y="821.4795">calculate_loss()</text></g><!--class Observer--><g id="elem_Observer"><rect codeLine="49" fill="#F1F1F1" height="64.2969" id="Observer" rx="2.5" ry="2.5" style="stroke:#181818;stroke-width:0.5;" width="242" x="375" y="904"/><ellipse cx="460.25" cy="920" fill="#ADD1B2" rx="11" ry="11" style="stroke:#181818;stroke-width:1.0;"/><path d="M463.2188,925.6406 Q462.6406,925.9375 462,926.0781 Q461.3594,926.2344 460.6563,926.2344 Q458.1563,926.2344 456.8281,924.5938 Q455.5156,922.9375 455.5156,919.8125 Q455.5156,916.6875 456.8281,915.0313 Q458.1563,913.375 460.6563,913.375 Q461.3594,913.375 462,913.5313 Q462.6563,913.6875 463.2188,913.9844 L463.2188,916.7031 Q462.5938,916.125 462,915.8594 Q461.4063,915.5781 460.7813,915.5781 Q459.4375,915.5781 458.75,916.6563 Q458.0625,917.7188 458.0625,919.8125 Q458.0625,921.9063 458.75,922.9844 Q459.4375,924.0469 460.7813,924.0469 Q461.4063,924.0469 462,923.7813 Q462.5938,923.5 463.2188,922.9219 L463.2188,925.6406 Z " fill="#000000"/><text fill="#000000" font-family="sans-serif" font-size="14" lengthAdjust="spacing" textLength="63" x="480.75" y="924.8467">Observer</text><line style="stroke:#181818;stroke-width:0.5;" x1="376" x2="616" y1="936" y2="936"/><line style="stroke:#181818;stroke-width:0.5;" x1="376" x2="616" y1="944" y2="944"/><ellipse cx="386" cy="957.6484" fill="#84BE84" rx="3" ry="3" style="stroke:#038048;stroke-width:1.0;"/><text fill="#000000" font-family="sans-serif" font-size="14" lengthAdjust="spacing" textLength="216" x="395" y="960.9951">trainer.model.calculate_metric()</text></g><!--class ModelSel--><g id="elem_ModelSel"><rect codeLine="54" fill="#F1F1F1" height="64.2969" id="ModelSel" rx="2.5" ry="2.5" style="stroke:#181818;stroke-width:0.5;" width="96" x="448" y="1043"/><ellipse cx="463.45" cy="1059" fill="#ADD1B2" rx="11" ry="11" style="stroke:#181818;stroke-width:1.0;"/><path d="M466.4188,1064.6406 Q465.8406,1064.9375 465.2,1065.0781 Q464.5594,1065.2344 463.8563,1065.2344 Q461.3563,1065.2344 460.0281,1063.5938 Q458.7156,1061.9375 458.7156,1058.8125 Q458.7156,1055.6875 460.0281,1054.0313 Q461.3563,1052.375 463.8563,1052.375 Q464.5594,1052.375 465.2,1052.5313 Q465.8563,1052.6875 466.4188,1052.9844 L466.4188,1055.7031 Q465.7938,1055.125 465.2,1054.8594 Q464.6063,1054.5781 463.9813,1054.5781 Q462.6375,1054.5781 461.95,1055.6563 Q461.2625,1056.7188 461.2625,1058.8125 Q461.2625,1060.9063 461.95,1061.9844 Q462.6375,1063.0469 463.9813,1063.0469 Q464.6063,1063.0469 465.2,1062.7813 Q465.7938,1062.5 466.4188,1061.9219 L466.4188,1064.6406 Z " fill="#000000"/><text fill="#000000" font-family="sans-serif" font-size="14" lengthAdjust="spacing" textLength="63" x="477.55" y="1063.8467">ModelSel</text><line style="stroke:#181818;stroke-width:0.5;" x1="449" x2="543" y1="1075" y2="1075"/><rect fill="none" height="6" style="stroke:#C82930;stroke-width:1.0;" width="6" x="456" y="1085.6484"/><text fill="#000000" font-family="sans-serif" font-size="14" lengthAdjust="spacing" textLength="70" x="468" y="1091.9951">early_stop</text><line style="stroke:#181818;stroke-width:0.5;" x1="449" x2="543" y1="1099.2969" y2="1099.2969"/></g><!--class Dataset--><g id="elem_Dataset"><rect codeLine="61" fill="#F1F1F1" height="64.2969" id="Dataset" rx="2.5" ry="2.5" style="stroke:#181818;stroke-width:0.5;" width="131" x="1414.5" y="724"/><ellipse cx="1449.75" cy="740" fill="#ADD1B2" rx="11" ry="11" style="stroke:#181818;stroke-width:1.0;"/><path d="M1452.7188,745.6406 Q1452.1406,745.9375 1451.5,746.0781 Q1450.8594,746.2344 1450.1563,746.2344 Q1447.6563,746.2344 1446.3281,744.5938 Q1445.0156,742.9375 1445.0156,739.8125 Q1445.0156,736.6875 1446.3281,735.0313 Q1447.6563,733.375 1450.1563,733.375 Q1450.8594,733.375 1451.5,733.5313 Q1452.1563,733.6875 1452.7188,733.9844 L1452.7188,736.7031 Q1452.0938,736.125 1451.5,735.8594 Q1450.9063,735.5781 1450.2813,735.5781 Q1448.9375,735.5781 1448.25,736.6563 Q1447.5625,737.7188 1447.5625,739.8125 Q1447.5625,741.9063 1448.25,742.9844 Q1448.9375,744.0469 1450.2813,744.0469 Q1450.9063,744.0469 1451.5,743.7813 Q1452.0938,743.5 1452.7188,742.9219 L1452.7188,745.6406 Z " fill="#000000"/><text fill="#000000" font-family="sans-serif" font-size="14" lengthAdjust="spacing" textLength="54" x="1468.25" y="744.8467">Dataset</text><line style="stroke:#181818;stroke-width:0.5;" x1="1415.5" x2="1544.5" y1="756" y2="756"/><line style="stroke:#181818;stroke-width:0.5;" x1="1415.5" x2="1544.5" y1="764" y2="764"/><ellipse cx="1425.5" cy="777.6484" fill="#84BE84" rx="3" ry="3" style="stroke:#038048;stroke-width:1.0;"/><text fill="#000000" font-family="sans-serif" font-size="14" lengthAdjust="spacing" textLength="105" x="1434.5" y="780.9951">__get__item__()</text></g><!--entity YMLConfiguration--><g id="elem_YMLConfiguration"><path d="M1006,381 C1006,371 1076,371 1076,371 C1076,371 1146,371 1146,381 L1146,406.2969 C1146,416.2969 1076,416.2969 1076,416.2969 C1076,416.2969 1006,416.2969 1006,406.2969 L1006,381 " fill="#F1F1F1" style="stroke:#181818;stroke-width:0.5;"/><path d="M1006,381 C1006,391 1076,391 1076,391 C1076,391 1146,391 1146,381 " fill="none" style="stroke:#181818;stroke-width:0.5;"/><text fill="#000000" font-family="sans-serif" font-size="14" lengthAdjust="spacing" textLength="120" x="1016" y="407.9951">YMLConfiguration</text></g><!--class Model--><g id="elem_Model"><rect codeLine="70" fill="#F1F1F1" height="113.1875" id="Model" rx="2.5" ry="2.5" style="stroke:#181818;stroke-width:0.5;" width="232" x="40" y="337"/><ellipse cx="130.75" cy="353" fill="#A9DCDF" rx="11" ry="11" style="stroke:#181818;stroke-width:1.0;"/><path d="M130.8594,348.3438 L129.7031,353.4219 L132.0313,353.4219 L130.8594,348.3438 Z M129.375,346.1094 L132.3594,346.1094 L135.7188,358.5 L133.2656,358.5 L132.5,355.4375 L129.2188,355.4375 L128.4688,358.5 L126.0313,358.5 L129.375,346.1094 Z " fill="#000000"/><text fill="#000000" font-family="sans-serif" font-size="14" font-style="italic" lengthAdjust="spacing" textLength="42" x="151.25" y="357.8467">Model</text><line style="stroke:#181818;stroke-width:0.5;" x1="41" x2="271" y1="369" y2="369"/><line style="stroke:#181818;stroke-width:0.5;" x1="41" x2="271" y1="377" y2="377"/><ellipse cx="51" cy="390.6484" fill="#84BE84" rx="3" ry="3" style="stroke:#038048;stroke-width:1.0;"/><text fill="#000000" font-family="sans-serif" font-size="14" lengthAdjust="spacing" textLength="113" x="60" y="393.9951">extract_feature()</text><ellipse cx="51" cy="406.9453" fill="#84BE84" rx="3" ry="3" style="stroke:#038048;stroke-width:1.0;"/><text fill="#000000" font-family="sans-serif" font-size="14" lengthAdjust="spacing" textLength="142" x="60" y="410.292">calculate_task_loss()</text><ellipse cx="51" cy="423.2422" fill="#84BE84" rx="3" ry="3" style="stroke:#038048;stroke-width:1.0;"/><text fill="#000000" font-family="sans-serif" font-size="14" lengthAdjust="spacing" textLength="206" x="60" y="426.5889">calculate_regularization_loss()</text><ellipse cx="51" cy="439.5391" fill="#84BE84" rx="3" ry="3" style="stroke:#038048;stroke-width:1.0;"/><text fill="#000000" font-family="sans-serif" font-size="14" lengthAdjust="spacing" textLength="121" x="60" y="442.8857">calculate_metric()</text></g><!--class ModelBuilder--><g id="elem_ModelBuilder"><rect codeLine="76" fill="#F1F1F1" height="64.2969" id="ModelBuilder" rx="2.5" ry="2.5" style="stroke:#181818;stroke-width:0.5;" width="197" x="22.5" y="534.5"/><ellipse cx="71.75" cy="550.5" fill="#A9DCDF" rx="11" ry="11" style="stroke:#181818;stroke-width:1.0;"/><path d="M71.8594,545.8438 L70.7031,550.9219 L73.0313,550.9219 L71.8594,545.8438 Z M70.375,543.6094 L73.3594,543.6094 L76.7188,556 L74.2656,556 L73.5,552.9375 L70.2188,552.9375 L69.4688,556 L67.0313,556 L70.375,543.6094 Z " fill="#000000"/><text fill="#000000" font-family="sans-serif" font-size="14" font-style="italic" lengthAdjust="spacing" textLength="90" x="92.25" y="555.3467">ModelBuilder</text><line style="stroke:#181818;stroke-width:0.5;" x1="23.5" x2="218.5" y1="566.5" y2="566.5"/><line style="stroke:#181818;stroke-width:0.5;" x1="23.5" x2="218.5" y1="574.5" y2="574.5"/><ellipse cx="33.5" cy="588.1484" fill="#84BE84" rx="3" ry="3" style="stroke:#038048;stroke-width:1.0;"/><text fill="#000000" font-family="sans-serif" font-size="14" lengthAdjust="spacing" textLength="171" x="42.5" y="591.4951">build_model_componet()</text></g><!--class ConcreteModel--><g id="elem_ConcreteModel"><rect codeLine="79" fill="#F1F1F1" height="80.5938" id="ConcreteModel" rx="2.5" ry="2.5" style="stroke:#181818;stroke-width:0.5;" width="232" x="59" y="895.5"/><ellipse cx="117.75" cy="911.5" fill="#ADD1B2" rx="11" ry="11" style="stroke:#181818;stroke-width:1.0;"/><path d="M120.7188,917.1406 Q120.1406,917.4375 119.5,917.5781 Q118.8594,917.7344 118.1563,917.7344 Q115.6563,917.7344 114.3281,916.0938 Q113.0156,914.4375 113.0156,911.3125 Q113.0156,908.1875 114.3281,906.5313 Q115.6563,904.875 118.1563,904.875 Q118.8594,904.875 119.5,905.0313 Q120.1563,905.1875 120.7188,905.4844 L120.7188,908.2031 Q120.0938,907.625 119.5,907.3594 Q118.9063,907.0781 118.2813,907.0781 Q116.9375,907.0781 116.25,908.1563 Q115.5625,909.2188 115.5625,911.3125 Q115.5625,913.4063 116.25,914.4844 Q116.9375,915.5469 118.2813,915.5469 Q118.9063,915.5469 119.5,915.2813 Q120.0938,915 120.7188,914.4219 L120.7188,917.1406 Z " fill="#000000"/><text fill="#000000" font-family="sans-serif" font-size="14" lengthAdjust="spacing" textLength="106" x="138.25" y="916.3467">ConcreteModel</text><line style="stroke:#181818;stroke-width:0.5;" x1="60" x2="290" y1="927.5" y2="927.5"/><line style="stroke:#181818;stroke-width:0.5;" x1="60" x2="290" y1="935.5" y2="935.5"/><ellipse cx="70" cy="949.1484" fill="#84BE84" rx="3" ry="3" style="stroke:#038048;stroke-width:1.0;"/><text fill="#000000" font-family="sans-serif" font-size="14" lengthAdjust="spacing" textLength="206" x="79" y="952.4951">calculate_regularization_loss()</text><ellipse cx="70" cy="965.4453" fill="#84BE84" rx="3" ry="3" style="stroke:#038048;stroke-width:1.0;"/><text fill="#000000" font-family="sans-serif" font-size="14" lengthAdjust="spacing" textLength="113" x="79" y="968.792">extract_feature()</text></g><!--class ConcreteModelBuilder--><g id="elem_ConcreteModelBuilder"><rect codeLine="83" fill="#F1F1F1" height="48" id="ConcreteModelBuilder" rx="2.5" ry="2.5" style="stroke:#181818;stroke-width:0.5;" width="186" x="28" y="732"/><ellipse cx="43" cy="748" fill="#ADD1B2" rx="11" ry="11" style="stroke:#181818;stroke-width:1.0;"/><path d="M45.9688,753.6406 Q45.3906,753.9375 44.75,754.0781 Q44.1094,754.2344 43.4063,754.2344 Q40.9063,754.2344 39.5781,752.5938 Q38.2656,750.9375 38.2656,747.8125 Q38.2656,744.6875 39.5781,743.0313 Q40.9063,741.375 43.4063,741.375 Q44.1094,741.375 44.75,741.5313 Q45.4063,741.6875 45.9688,741.9844 L45.9688,744.7031 Q45.3438,744.125 44.75,743.8594 Q44.1563,743.5781 43.5313,743.5781 Q42.1875,743.5781 41.5,744.6563 Q40.8125,745.7188 40.8125,747.8125 Q40.8125,749.9063 41.5,750.9844 Q42.1875,752.0469 43.5313,752.0469 Q44.1563,752.0469 44.75,751.7813 Q45.3438,751.5 45.9688,750.9219 L45.9688,753.6406 Z " fill="#000000"/><text fill="#000000" font-family="sans-serif" font-size="14" lengthAdjust="spacing" textLength="154" x="57" y="752.8467">ConcreteModelBuilder</text><line style="stroke:#181818;stroke-width:0.5;" x1="29" x2="213" y1="764" y2="764"/><line style="stroke:#181818;stroke-width:0.5;" x1="29" x2="213" y1="772" y2="772"/></g><path d="M79.5,1048.5 L144.5,1048.5 A3.75,3.75 0 0 1 147,1051 L154,1070.7969 L158.5,1070.7969 A2.5,2.5 0 0 1 161,1073.2969 L161,1098.5938 A2.5,2.5 0 0 1 158.5,1101.0938 L79.5,1101.0938 A2.5,2.5 0 0 1 77,1098.5938 L77,1051 A2.5,2.5 0 0 1 79.5,1048.5 " fill="#F1F1F1" style="stroke:#181818;stroke-width:0.5;"/><line style="stroke:#181818;stroke-width:0.5;" x1="77" x2="154" y1="1070.7969" y2="1070.7969"/><text fill="#000000" font-family="sans-serif" font-size="14" lengthAdjust="spacing" textLength="64" x="81" y="1063.4951">networks</text><!--class Experiment--><g id="elem_Experiment"><rect codeLine="90" fill="#F1F1F1" height="96.8906" id="Experiment" rx="2.5" ry="2.5" style="stroke:#181818;stroke-width:0.5;" width="110" x="857" y="172"/><ellipse cx="872" cy="188" fill="#ADD1B2" rx="11" ry="11" style="stroke:#181818;stroke-width:1.0;"/><path d="M874.9688,193.6406 Q874.3906,193.9375 873.75,194.0781 Q873.1094,194.2344 872.4063,194.2344 Q869.9063,194.2344 868.5781,192.5938 Q867.2656,190.9375 867.2656,187.8125 Q867.2656,184.6875 868.5781,183.0313 Q869.9063,181.375 872.4063,181.375 Q873.1094,181.375 873.75,181.5313 Q874.4063,181.6875 874.9688,181.9844 L874.9688,184.7031 Q874.3438,184.125 873.75,183.8594 Q873.1563,183.5781 872.5313,183.5781 Q871.1875,183.5781 870.5,184.6563 Q869.8125,185.7188 869.8125,187.8125 Q869.8125,189.9063 870.5,190.9844 Q871.1875,192.0469 872.5313,192.0469 Q873.1563,192.0469 873.75,191.7813 Q874.3438,191.5 874.9688,190.9219 L874.9688,193.6406 Z " fill="#000000"/><text fill="#000000" font-family="sans-serif" font-size="14" lengthAdjust="spacing" textLength="78" x="886" y="192.8467">Experiment</text><line style="stroke:#181818;stroke-width:0.5;" x1="858" x2="966" y1="204" y2="204"/><rect fill="none" height="6" style="stroke:#C82930;stroke-width:1.0;" width="6" x="865" y="214.6484"/><text fill="#000000" font-family="sans-serif" font-size="14" lengthAdjust="spacing" textLength="29" x="877" y="220.9951">task</text><rect fill="none" height="6" style="stroke:#C82930;stroke-width:1.0;" width="6" x="865" y="230.9453"/><text fill="#000000" font-family="sans-serif" font-size="14" lengthAdjust="spacing" textLength="44" x="877" y="237.292">trainer</text><line style="stroke:#181818;stroke-width:0.5;" x1="858" x2="966" y1="244.5938" y2="244.5938"/><ellipse cx="868" cy="258.2422" fill="#84BE84" rx="3" ry="3" style="stroke:#038048;stroke-width:1.0;"/><text fill="#000000" font-family="sans-serif" font-size="14" lengthAdjust="spacing" textLength="66" x="877" y="261.5889">execute()</text></g><!--class TaskHandler--><g id="elem_TaskHandler"><rect codeLine="95" fill="#F1F1F1" height="48" id="TaskHandler" rx="2.5" ry="2.5" style="stroke:#181818;stroke-width:0.5;" width="118" x="853" y="369.5"/><ellipse cx="868" cy="385.5" fill="#ADD1B2" rx="11" ry="11" style="stroke:#181818;stroke-width:1.0;"/><path d="M870.9688,391.1406 Q870.3906,391.4375 869.75,391.5781 Q869.1094,391.7344 868.4063,391.7344 Q865.9063,391.7344 864.5781,390.0938 Q863.2656,388.4375 863.2656,385.3125 Q863.2656,382.1875 864.5781,380.5313 Q865.9063,378.875 868.4063,378.875 Q869.1094,378.875 869.75,379.0313 Q870.4063,379.1875 870.9688,379.4844 L870.9688,382.2031 Q870.3438,381.625 869.75,381.3594 Q869.1563,381.0781 868.5313,381.0781 Q867.1875,381.0781 866.5,382.1563 Q865.8125,383.2188 865.8125,385.3125 Q865.8125,387.4063 866.5,388.4844 Q867.1875,389.5469 868.5313,389.5469 Q869.1563,389.5469 869.75,389.2813 Q870.3438,389 870.9688,388.4219 L870.9688,391.1406 Z " fill="#000000"/><text fill="#000000" font-family="sans-serif" font-size="14" lengthAdjust="spacing" textLength="86" x="882" y="390.3467">TaskHandler</text><line style="stroke:#181818;stroke-width:0.5;" x1="854" x2="970" y1="401.5" y2="401.5"/><line style="stroke:#181818;stroke-width:0.5;" x1="854" x2="970" y1="409.5" y2="409.5"/></g><!--class AlgoHandler--><g id="elem_AlgoHandler"><rect codeLine="96" fill="#F1F1F1" height="48" id="AlgoHandler" rx="2.5" ry="2.5" style="stroke:#181818;stroke-width:0.5;" width="115" x="702.5" y="369.5"/><ellipse cx="717.5" cy="385.5" fill="#ADD1B2" rx="11" ry="11" style="stroke:#181818;stroke-width:1.0;"/><path d="M720.4688,391.1406 Q719.8906,391.4375 719.25,391.5781 Q718.6094,391.7344 717.9063,391.7344 Q715.4063,391.7344 714.0781,390.0938 Q712.7656,388.4375 712.7656,385.3125 Q712.7656,382.1875 714.0781,380.5313 Q715.4063,378.875 717.9063,378.875 Q718.6094,378.875 719.25,379.0313 Q719.9063,379.1875 720.4688,379.4844 L720.4688,382.2031 Q719.8438,381.625 719.25,381.3594 Q718.6563,381.0781 718.0313,381.0781 Q716.6875,381.0781 716,382.1563 Q715.3125,383.2188 715.3125,385.3125 Q715.3125,387.4063 716,388.4844 Q716.6875,389.5469 718.0313,389.5469 Q718.6563,389.5469 719.25,389.2813 Q719.8438,389 720.4688,388.4219 L720.4688,391.1406 Z " fill="#000000"/><text fill="#000000" font-family="sans-serif" font-size="14" lengthAdjust="spacing" textLength="83" x="731.5" y="390.3467">AlgoHandler</text><line style="stroke:#181818;stroke-width:0.5;" x1="703.5" x2="816.5" y1="401.5" y2="401.5"/><line style="stroke:#181818;stroke-width:0.5;" x1="703.5" x2="816.5" y1="409.5" y2="409.5"/></g><!--class UserInput--><g id="elem_UserInput"><rect codeLine="100" fill="#F1F1F1" height="113.1875" id="UserInput" rx="2.5" ry="2.5" style="stroke:#181818;stroke-width:0.5;" width="219" x="1003.5" y="164"/><ellipse cx="1075.25" cy="180" fill="#B4A7E5" rx="11" ry="11" style="stroke:#181818;stroke-width:1.0;"/><path d="M1071.1719,175.7656 L1071.1719,173.6094 L1078.5625,173.6094 L1078.5625,175.7656 L1076.0938,175.7656 L1076.0938,183.8438 L1078.5625,183.8438 L1078.5625,186 L1071.1719,186 L1071.1719,183.8438 L1073.6406,183.8438 L1073.6406,175.7656 L1071.1719,175.7656 Z " fill="#000000"/><text fill="#000000" font-family="sans-serif" font-size="14" font-style="italic" lengthAdjust="spacing" textLength="67" x="1095.75" y="184.8467">UserInput</text><line style="stroke:#181818;stroke-width:0.5;" x1="1004.5" x2="1221.5" y1="196" y2="196"/><rect fill="none" height="6" style="stroke:#C82930;stroke-width:1.0;" width="6" x="1011.5" y="206.6484"/><text fill="#000000" font-family="sans-serif" font-size="14" lengthAdjust="spacing" textLength="29" x="1023.5" y="212.9951">task</text><rect fill="none" height="6" style="stroke:#C82930;stroke-width:1.0;" width="6" x="1011.5" y="222.9453"/><text fill="#000000" font-family="sans-serif" font-size="14" lengthAdjust="spacing" textLength="118" x="1023.5" y="229.292">hyperparameters</text><line style="stroke:#181818;stroke-width:0.5;" x1="1004.5" x2="1221.5" y1="236.5938" y2="236.5938"/><ellipse cx="1014.5" cy="250.2422" fill="#84BE84" rx="3" ry="3" style="stroke:#038048;stroke-width:1.0;"/><text fill="#000000" font-family="sans-serif" font-size="14" lengthAdjust="spacing" textLength="193" x="1023.5" y="253.5889">read_yml_for_configuration()</text><ellipse cx="1014.5" cy="266.5391" fill="#84BE84" rx="3" ry="3" style="stroke:#038048;stroke-width:1.0;"/><text fill="#000000" font-family="sans-serif" font-size="14" lengthAdjust="spacing" textLength="192" x="1023.5" y="269.8857">command_line_arguments()</text></g><!--class benchmark--><g id="elem_benchmark"><rect codeLine="107" fill="#F1F1F1" height="96.8906" id="benchmark" rx="2.5" ry="2.5" style="stroke:#181818;stroke-width:0.5;" width="219" x="902.5" y="7"/><ellipse cx="968.75" cy="23" fill="#F1F1F1" rx="11" ry="11" style="stroke:#181818;stroke-width:1.0;"/><path d="M968.5469,18.6719 L968.5469,22.2969 L969.5469,22.2969 Q970.75,22.2969 971.2344,21.8906 Q971.7188,21.4844 971.7188,20.4844 Q971.7188,19.4844 971.2344,19.0781 Q970.75,18.6719 969.5469,18.6719 L968.5469,18.6719 Z M966.0938,16.6094 L969.4531,16.6094 Q972.0156,16.6094 973.1406,17.5313 Q974.2656,18.4375 974.2656,20.4844 Q974.2656,22.5313 973.1406,23.4531 Q972.0156,24.3594 969.4531,24.3594 L968.5469,24.3594 L968.5469,29 L966.0938,29 L966.0938,16.6094 Z " fill="#000000"/><text fill="#000000" font-family="sans-serif" font-size="14" lengthAdjust="spacing" textLength="78" x="989.25" y="27.8467">benchmark</text><line style="stroke:#181818;stroke-width:0.5;" x1="903.5" x2="1120.5" y1="39" y2="39"/><line style="stroke:#181818;stroke-width:0.5;" x1="903.5" x2="1120.5" y1="47" y2="47"/><ellipse cx="913.5" cy="60.6484" fill="#84BE84" rx="3" ry="3" style="stroke:#038048;stroke-width:1.0;"/><text fill="#000000" font-family="sans-serif" font-size="14" lengthAdjust="spacing" textLength="118" x="922.5" y="63.9951">run_experiment()</text><ellipse cx="913.5" cy="76.9453" fill="#84BE84" rx="3" ry="3" style="stroke:#038048;stroke-width:1.0;"/><text fill="#000000" font-family="sans-serif" font-size="14" lengthAdjust="spacing" textLength="90" x="922.5" y="80.292">plot_results()</text><ellipse cx="913.5" cy="93.2422" fill="#84BE84" rx="3" ry="3" style="stroke:#038048;stroke-width:1.0;"/><text fill="#000000" font-family="sans-serif" font-size="14" lengthAdjust="spacing" textLength="193" x="922.5" y="96.5889">read_yml_for_configuration()</text></g><!--reverse link Task to TaskFolder--><g id="link_Task_TaskFolder"><path codeLine="21" d="M1199.29,633.14 C1180.64,667.43 1158.97,707.27 1145.62,731.8 " fill="none" id="Task-backto-TaskFolder" style="stroke:#181818;stroke-width:1.0;"/><polygon fill="none" points="1193.29,629.52,1209,615.3,1205.59,636.21,1193.29,629.52" style="stroke:#181818;stroke-width:1.0;"/></g><!--reverse link Task to TaskPathList--><g id="link_Task_TaskPathList"><path codeLine="22" d="M1251.93,635.04 C1260.42,668.9 1270.15,707.72 1276.19,731.8 " fill="none" id="Task-backto-TaskPathList" style="stroke:#181818;stroke-width:1.0;"/><polygon fill="none" points="1245.05,636.4,1246.98,615.3,1258.63,633,1245.05,636.4" style="stroke:#181818;stroke-width:1.0;"/></g><!--link UserInput to YMLConfiguration--><g id="link_UserInput_YMLConfiguration"><path codeLine="115" d="M1100.99,277.02 C1094.07,309.01 1085.76,347.4 1080.68,370.87 " fill="none" id="UserInput-YMLConfiguration" style="stroke:#181818;stroke-width:1.0;"/></g><!--link UserInput to tasks--><g id="link_UserInput_tasks"><path codeLine="116" d="M1156.91,277.13 C1159.75,282.62 1162.19,288.28 1164,294 C1184.92,360.1 1210.8,398.84 1164,450 C1148.79,466.63 1078.82,442.96 1063,459 C1046.595,475.635 1044.4,501.695 1046.4013,523.8725 C1046.5263,525.2586 1046.6678,526.6295 1046.8232,527.982 C1046.8621,528.3202 1046.9018,528.6571 1046.9424,528.9929 " fill="none" id="UserInput-tasks" style="stroke:#181818;stroke-width:1.0;"/></g><!--link UserInput to TaskHandler--><g id="link_UserInput_TaskHandler"><path codeLine="117" d="M1009.45,277.14 C1001.94,282.49 994.7,288.13 988,294 C962.66,316.21 939.98,347.93 926.13,369.32 " fill="none" id="UserInput-TaskHandler" style="stroke:#181818;stroke-width:1.0;"/></g><!--reverse link ModelBuilder to ConcreteModelBuilder--><g id="link_ModelBuilder_ConcreteModelBuilder"><path codeLine="118" d="M121,619.09 C121,655.97 121,703.84 121,731.81 " fill="none" id="ModelBuilder-backto-ConcreteModelBuilder" style="stroke:#181818;stroke-width:1.0;"/><polygon fill="none" points="114,618.88,121,598.88,128,618.88,114,618.88" style="stroke:#181818;stroke-width:1.0;"/></g><!--link UserInput to AlgoHandler--><g id="link_UserInput_AlgoHandler"><path codeLine="119" d="M1003.41,272.07 C997.91,273.88 992.42,275.54 987,277 C921.36,294.68 894.14,260.48 835,294 C804.71,311.17 782.72,346.05 770.66,369.36 " fill="none" id="UserInput-AlgoHandler" style="stroke:#181818;stroke-width:1.0;"/></g><!--link Experiment to benchmark--><g id="link_Experiment_benchmark"><path codeLine="120" d="M941.23,171.86 C952.07,154.19 964.49,133.93 975.88,115.38 " fill="none" id="Experiment-to-benchmark" style="stroke:#181818;stroke-width:1.0;"/><polygon fill="#181818" points="982.81,104.08,976.266,107.1091,976.5451,114.3148,983.0892,111.2857,982.81,104.08" style="stroke:#181818;stroke-width:1.0;"/></g><!--reverse link Trainer to Observer--><g id="link_Trainer_Observer"><path codeLine="121" d="M492.88,842.38 C493.62,864.37 494.37,886.65 494.95,903.85 " fill="none" id="Trainer-backto-Observer" style="stroke:#181818;stroke-width:1.0;"/><polygon fill="#181818" points="492.43,829.14,488.6366,835.2727,492.8386,841.133,496.632,835.0003,492.43,829.14" style="stroke:#181818;stroke-width:1.0;"/></g><!--reverse link Trainer to ConcreteModel--><g id="link_Trainer_ConcreteModel"><path codeLine="122" d="M368.88,836.08 C359.18,841.93 349.48,847.63 340,853 C314.11,867.66 285.26,882.49 259.01,895.43 " fill="none" id="Trainer-backto-ConcreteModel" style="stroke:#181818;stroke-width:1.0;"/><polygon fill="#181818" points="380.24,829.15,373.0347,828.8599,369.9957,835.3994,377.201,835.6895,380.24,829.15" style="stroke:#181818;stroke-width:1.0;"/></g><!--reverse link Task to Dataset--><g id="link_Task_Dataset"><path codeLine="123" d="M1332.49,622.19 C1341.29,627.95 1349.92,633.93 1358,640 C1391.98,665.52 1426.88,699.34 1450.6,723.69 " fill="none" id="Task-backto-Dataset" style="stroke:#181818;stroke-width:1.0;"/><polygon fill="none" points="1321.29,615.03,1324.1928,621.631,1331.4025,621.4904,1328.4997,614.8894,1321.29,615.03" style="stroke:#181818;stroke-width:1.0;"/></g><!--reverse link Model to ConcreteModel--><g id="link_Model_ConcreteModel"><path codeLine="124" d="M236.77,469.65 C248.93,551.7 239.74,825.97 231,853 C226.18,867.93 217.7,882.6 208.79,895.32 " fill="none" id="Model-backto-ConcreteModel" style="stroke:#181818;stroke-width:1.0;"/><polygon fill="none" points="229.93,471.17,231.91,450.08,243.52,467.8,229.93,471.17" style="stroke:#181818;stroke-width:1.0;"/></g><!--reverse link AlgoBuilder to ConcreteAlgoBuilder--><g id="link_AlgoBuilder_ConcreteAlgoBuilder"><path codeLine="125" d="M490,470.46 C490,483.76 490,497.36 490,509.97 " fill="none" id="AlgoBuilder-backto-ConcreteAlgoBuilder" style="stroke:#181818;stroke-width:1.0;"/><polygon fill="none" points="483,470.02,490,450.02,497,470.02,483,470.02" style="stroke:#181818;stroke-width:1.0;"/></g><!--reverse link Model to ModelBuilder--><g id="link_Model_ModelBuilder"><path codeLine="126" d="M141.97,463.06 C136.93,487.68 131.49,514.25 127.41,534.17 " fill="none" id="Model-backto-ModelBuilder" style="stroke:#181818;stroke-width:1.0;"/><polygon fill="#181818" points="144.64,450.02,139.5158,455.0937,142.2283,461.7752,147.3526,456.7015,144.64,450.02" style="stroke:#181818;stroke-width:1.0;"/></g><!--reverse link ConcreteModel to networks--><g id="link_ConcreteModel_networks"><path codeLine="127" d="M153.77,988.93 C145.48,1009.23 136.33,1031.59 129.51,1048.3 " fill="none" id="ConcreteModel-backto-networks" style="stroke:#181818;stroke-width:1.0;"/><polygon fill="#181818" points="158.8,976.63,152.8296,980.674,154.2662,987.7405,160.2366,983.6966,158.8,976.63" style="stroke:#181818;stroke-width:1.0;"/></g><!--reverse link AlgoHandler to ConcreteAlgoBuilder--><g id="link_AlgoHandler_ConcreteAlgoBuilder"><path codeLine="128" d="M712.57,424.54 C675.37,448.1 622.56,481.55 577.72,509.95 " fill="none" id="AlgoHandler-backto-ConcreteAlgoBuilder" style="stroke:#181818;stroke-width:1.0;"/><polygon fill="#181818" points="723.59,417.56,716.3809,417.3908,713.452,423.9803,720.6611,424.1495,723.59,417.56" style="stroke:#181818;stroke-width:1.0;"/></g><!--reverse link Experiment to TaskHandler--><g id="link_Experiment_TaskHandler"><path codeLine="129" d="M912,282.15 C912,312.26 912,346.87 912,369.18 " fill="none" id="Experiment-backto-TaskHandler" style="stroke:#181818;stroke-width:1.0;"/><polygon fill="#181818" points="912,269.13,908,275.13,912,281.13,916,275.13,912,269.13" style="stroke:#181818;stroke-width:1.0;"/></g><!--reverse link Experiment to AlgoHandler--><g id="link_Experiment_AlgoHandler"><path codeLine="130" d="M849.79,278.35 C844.68,283.54 839.68,288.8 835,294 C812.99,318.44 790.5,348.85 775.97,369.36 " fill="none" id="Experiment-backto-AlgoHandler" style="stroke:#181818;stroke-width:1.0;"/><polygon fill="#181818" points="859.08,269.13,852.0035,270.5167,850.5618,277.5823,857.6383,276.1955,859.08,269.13" style="stroke:#181818;stroke-width:1.0;"/></g><!--reverse link TaskHandler to tasks--><g id="link_TaskHandler_tasks"><path codeLine="131" d="M939.75,427.68 C960.195,452.125 988.3925,485.845 1011.7788,513.8125 C1023.4719,527.7963 1033.9622,540.3419 1041.6792,549.5709 C1043.6085,551.8782 1045.3644,553.9782 1046.9225,555.8415 " fill="none" id="TaskHandler-backto-tasks" style="stroke:#181818;stroke-width:1.0;"/><polygon fill="#181818" points="931.29,417.56,932.0612,424.7297,938.9761,426.7754,938.2049,419.6057,931.29,417.56" style="stroke:#181818;stroke-width:1.0;"/></g><!--link ConcreteModelBuilder to networks--><g id="link_ConcreteModelBuilder_networks"><path codeLine="132" d="M95.71,780.27 C76.56,799.71 51.78,829.3 41,861 C22.25,916.12 19.39,937.94 41,992 C49.9,1014.26 68.03,1033.93 84.57,1048.42 " fill="none" id="ConcreteModelBuilder-networks" style="stroke:#181818;stroke-width:1.0;"/></g><!--reverse link ConcreteAlgoBuilder to Trainer--><g id="link_ConcreteAlgoBuilder_Trainer"><path codeLine="134" d="M477.66,636.27 C477.15,651.41 477.12,667.5 477.55,682.77 " fill="none" id="ConcreteAlgoBuilder-backto-Trainer" style="stroke:#181818;stroke-width:1.0;"/><polygon fill="#181818" points="478.23,623.25,473.9765,629.073,477.7156,635.239,481.9691,629.4159,478.23,623.25" style="stroke:#181818;stroke-width:1.0;"/></g><!--link ConcreteAlgoBuilder to Trainer--><g id="link_ConcreteAlgoBuilder_Trainer"><path codeLine="137" d="M502.46,623.25 C503.54,641.92 503.78,663.02 503.18,682.77 " fill="none" id="ConcreteAlgoBuilder-Trainer" style="stroke:#181818;stroke-width:1.0;"/></g><!--link ConcreteAlgoBuilder to ConcreteModel--><g id="link_ConcreteAlgoBuilder_ConcreteModel"><path codeLine="135" d="M373.01,623.2 C366.54,628.4 360.46,634 355,640 C285.79,715.97 324.36,769.11 265,853 C254.13,868.36 239.94,882.95 226.06,895.45 " fill="none" id="ConcreteAlgoBuilder-ConcreteModel" style="stroke:#181818;stroke-width:1.0;"/></g><!--link ConcreteAlgoBuilder to Observer--><g id="link_ConcreteAlgoBuilder_Observer"><path codeLine="136" d="M612.24,623.24 C617.07,628.37 621.38,633.95 625,640 C673.59,721.25 670.58,770.03 625,853 C613.12,874.63 592.84,891.37 571.84,903.91 " fill="none" id="ConcreteAlgoBuilder-Observer" style="stroke:#181818;stroke-width:1.0;"/></g><!--reverse link Observer to ModelSel--><g id="link_Observer_ModelSel"><path codeLine="138" d="M508.72,981.31 C510.06,1001.29 509.67,1024.41 507.56,1042.56 " fill="none" id="Observer-backto-ModelSel" style="stroke:#181818;stroke-width:1.0;"/><polygon fill="#181818" points="507.52,968.09,504.0841,974.4299,508.6148,980.04,512.0507,973.7001,507.52,968.09" style="stroke:#181818;stroke-width:1.0;"/></g><!--link ModelSel to Observer--><g id="link_ModelSel_Observer"><path codeLine="140" d="M485.08,1042.56 C482.63,1020.22 482.64,990.35 485.12,968.09 " fill="none" id="ModelSel-Observer" style="stroke:#181818;stroke-width:1.0;"/></g><!--link ConcreteModelBuilder to ConcreteModel--><g id="link_ConcreteModelBuilder_ConcreteModel"><path codeLine="141" d="M128.06,780.27 C135.92,806.17 148.87,848.86 159.18,882.85 " fill="none" id="ConcreteModelBuilder-to-ConcreteModel" style="stroke:#181818;stroke-width:1.0;"/><polygon fill="#181818" points="162.98,895.39,165.0654,888.487,159.4955,883.907,157.4101,890.81,162.98,895.39" style="stroke:#181818;stroke-width:1.0;"/></g><!--link benchmark to UserInput--><g id="link_benchmark_UserInput"><path codeLine="142" d="M1041.48,104.08 C1053.07,122.78 1066.46,144.38 1078.49,163.8 " fill="none" id="benchmark-UserInput" style="stroke:#181818;stroke-width:1.0;"/></g><!--SRC=[nLR1ZkCs3BtxAtYRPD84sFjWW6wdHGliOelkzj2JeCXqB8mi6P8ysNIQVoybougSSTgzxM4m2acHZ-IZw3kexk1-kmKGfkkDaruQJQA7VqY6NprgDmeC_UQ7WyK3JoRX4dVE21abi7e7te06Oo6UteMJZgSrcUzsZzNT4_QeQzJY1D81XoFoPxJG6Dk1QM1lT0t7LeeMfAwbu1uT-9PxC1f1A0e7TNJXI4BGkJQ-9GTx57nm2D83_NFXFrrofaFeZTIUt86N7UxWqtyxaWt5mn0z8VN9EiBjkUKTUh9xuLRolSAGepA2gqBI17z0Tgsfmw_WyChT3hwqCZgjPTEW3Oh6cWwuBclw0nM3b14V9UIjt0yUR_YC43L1TvvhaQtUfB8ZTv-fCg4UBffOL36SQsLFfVH7H2hNqOps63s_e3t5TWNeU09EiAXcv4jslSAEt2FrJlgMCk_sHObSQ0LNQWT_y5XZ7-vtyj1w2WRbTUx8NxhU35f4Nd5x68BUxQgUYsT-GF3SFJjuhOY0U-Sj5rC9lf0YoW6sG0hj0hN6v9AqvdGRlOCLwQMM-W2rwUZarcyjqFbIUwQ_62AEHpZzObIDzetuTyhqWtI-EbSPD5S7imZwHrAy7sHm5DKRs8TVh3CrgjMwa4J4Q6SoitTeNx8mNcAkHo4RALYe5Ekj4UWSfRgQiXWZ_sIqiCJdxu4WztBqw5BRKXz7OP9jOEYfASZezHaKqUhls55sn42YrNfkDCRFevhLDAI2RfE5Ciwjfcv7ytIUCfa8HD3ZyNo5URAROVuq5swcp7OnmkuIdc1PALPhMFIToeSAH_gN8Ju6tMTKcUB8hJenvqrV-3h3XNIPomyFJtHyJpyU7ryp0Pv6zGIPiGDwngJ7Zh7KgOB1VttyG8nfv66muvC_TrfOnYJS0jTZ1ebZj5w2XZN8_M0nqUTIfyYStAjISyM3HPkfogcyIpXcb2yOp-8krEXlZ4kPnBU0MahqXjSCgQG48JaQcrwys952YLzxj38ya3Eg_3mNPp9l9recP2XeewHXE9SJIEQ_SbqhjA-bF3mLfJo0eGMBjk6qS_wa4VXDzuD_hLB4BRGdGfB7qLKRsZUyPgTECNgSgTO5emZ89do9T1I1AOB9ykjFga0mQxmHHj7cqABjk7scxCZZeDcb426T3VJAU6gA6rIy3FyJDoHIPVpXw-QQxdDjt45pKL6pQjRDk1UM-Zo_NzIsAlgttTvVqgscfp5yj4rFpamuYrF5lHG-tjAeZy0M45Nb4fYf2qMw7SBCqfXFHb1FdAsAf6RmIgz5ilTNTRnIbIKgpA9kxCZYE9M0ggMj5yEcmLZIlwdM3QFSaHlwAKPU5hcKzAnNLNxWbrnTPNH_XIXJ95pElFeN]--></g></svg>